<?xml version="1.0" encoding="utf-8"?>
<!-- Generator: Adobe Illustrator 20.1.0, SVG Export Plug-In . SVG Version: 6.00 Build 0)  -->
<svg version="1.1" id="Layer_1" xmlns="http://www.w3.org/2000/svg" xmlns:xlink="http://www.w3.org/1999/xlink" x="0px" y="0px"
	 viewBox="0 0 572 138" style="enable-background:new 0 0 572 138;" xml:space="preserve">
<style type="text/css">
	.st0{fill:#040000;}
</style>
<g>
	<path class="st0" d="M22.4,2.6H5.7v34H3.5V0.5h18.9V2.6z"/>
	<path class="st0" d="M34.5,35V17.7h-6.3v-4.3h6.3V1H39v12.5h5.8v4.3H39v15.7c2-0.7,3.9-1.4,5.6-2.1l0.5,4
		c-4.8,2.1-12.2,5.1-16.4,6.7l-1.3-4.6C29.2,36.8,31.8,36,34.5,35z M47.5,51.4l-3.2-2.1c4.9-3.9,9.4-8.8,12.3-14.8h-4.6
		c-2.2,3.2-4.8,6-7.4,8.5l-3.4-2.2c4.2-3.6,8-8.2,10.5-13.7h-6.8v-3.7h34.5V27H55.9c-0.5,1.3-1.1,2.5-1.7,3.7h19.5h1.9h2.5
		c-0.9,13.3-2,19.9-3.9,21.1c-0.7,0.4-1.7,0.7-3,0.7c-1.1,0.1-3.6,0-5-0.1l-0.5-4c1.2,0.1,3.3,0.1,4.2,0.1c0.4,0,0.8-0.1,1.1-0.3
		c1-0.6,1.8-4.9,2.4-13.8h-3.8c-2,7.1-5.9,13.3-10.6,18l-3.4-2.1c4.3-4.3,7.8-9.6,9.8-15.9h-4.7C57.8,41.2,53,47.1,47.5,51.4z
		 M75.3,2.4v17.4h-27V2.4H75.3z M52.7,9.6h18.1v-4H52.7V9.6z M52.7,16.5h18.1v-4.1H52.7V16.5z"/>
	<path class="st0" d="M95.3,31.4c0-12.6,10-24.5,24.3-24.5c15.3,0,22,8.8,22,20.2c0,10.8-5,19.7-20.7,23.1l-2.4-4.7
		c13.9-2.5,17.9-9.4,17.9-18.3c0-9.2-5.3-15.3-15.7-15.7c-0.7,21.3-7.4,35.7-15.6,35.7C99.5,47.2,95.3,39.7,95.3,31.4L95.3,31.4z
		 M99.9,31.4c0,5.7,2.4,10.5,5.3,10.5c4.4,0,10.1-11,10.6-30C106,13.6,99.9,22.1,99.9,31.4z"/>
	<path class="st0" d="M174.1,32v-7.7h-4.4v-2c-3,2.4-6.4,4.3-10,5.9c-1.2-1.4-2-2.4-2.8-3.2c4.5-1.8,8.7-4.3,12.1-7.3
		c-1.8-2.1-4.1-4.3-7-6.4l2.7-2.5c2.9,2.1,5.3,4.1,7.2,6.1c2.1-2.4,3.9-5,5.1-7.9h-14.9V3h16.2h0.9h0.3l3.1,0.9
		c-2,6.5-5.7,12-10.5,16.5h23c-4.9-4.6-8.9-10.6-11.4-18l4-1.4c1,2.9,2.2,5.7,3.6,8.1c3.2-2.5,6.2-5.1,7.9-7.1l3.1,2.7
		c-2.1,2.1-5.4,4.8-8.9,7.3c1.1,1.5,2.2,2.8,3.5,4c3.2-2.4,6.2-4.9,8-6.8l3.1,2.9c-2,1.8-5,4.3-8.2,6.5c3.1,2.4,6.6,4.3,10.4,5.6
		l-3.1,3.7c-3.5-1.5-6.8-3.3-9.7-5.7v2.1h-4.9V32h14.4v4h-14.4v7.7c0,2.9,0.5,3.4,2.4,3.4c1.7,0,4.6,0,6.4,0c2-0.1,2.2-0.3,2.3-5.4
		l4.4,0.8c-0.6,8.1-1.4,9-6.3,9.1c-2.2,0.1-5.4,0.1-7.3,0c-5.3-0.1-6.6-1.6-6.6-7.9V36h-9.1c-0.6,6.3-5,11.9-15.8,16.5l-3.3-3.3
		c9.8-3.6,13.8-8.1,14.4-13.2h-13.9v-4H174.1z M187.7,32v-7.7h-9V32H187.7z"/>
	<path class="st0" d="M228.9,4h14.6v34.8h-14.6v4.4h-4.4V4h2.2H228.9z M239,19V8.2h-10.1V19H239z M228.9,23.1v11.5H239V23.1H228.9z
		 M252.6,34.1c-1.5,6.8-4.9,13.1-11.5,18.5l-3.6-3.1c9-7,11.5-15.6,11.5-25.1V3h2.2h2.4h13.9h2.2h2.4v43.8c0,3.2-0.9,5.1-4,5.6
		c-1.5,0.2-5,0.2-7.6,0.1c-0.3-1.9-0.6-3.2-0.9-4.5c2.2,0.2,5.2,0.2,6.2,0.1c1.4-0.1,1.7-0.9,1.7-2.1V34.1H252.6z M267.5,29.9v-9.5
		h-13.9v4c0,1.8-0.1,3.7-0.3,5.5H267.5z M267.5,16.3V7.1h-13.9v9.2H267.5z"/>
	<path class="st0" d="M285.2,50.9h16.7v-34h2.2v36.2h-18.9V50.9z"/>
	<path class="st0" d="M367.5,23.9c-4.8,1.6-10.4,3.7-15.5,5.9c0.5,3,0.7,6.6,0.7,11.1h-4.6c0.1-1,0.1-1.7,0.1-2.6
		c0.1-2.6-0.1-4.8-0.3-6.6c-5.9,3-10.3,6.3-10.3,9.6c0,3.2,4,5,12.7,5c4.1,0,10.6-0.4,14.3-1.2l0.4,4.5c-3.9,0.7-10.2,1-14.7,1
		c-11.1,0-17.5-3.1-17.5-9.1c0-5.5,6.4-10.1,14.1-14c-0.8-2.2-2.1-3.3-3.6-3.3c-3.9,0-8,1.9-11.9,5.3c-1.2,1.1-3.6,3.6-5.3,5.5
		l-3.8-3c4.7-4.5,9.4-11.3,12.7-18.1h-11.2V9.7h13.1c1-2.5,1.8-5,2.3-7.3l4.9,1c-0.6,2.2-1.3,4.3-2.1,6.3h18V14h-19.8
		c-2,4.2-4.1,7.7-5.8,9.9c3.2-2.1,6.6-3.4,9.8-3.4c3.2,0,5.4,1.7,6.8,5.3c5.1-2.3,10.5-4.3,14.7-6.1L367.5,23.9z"/>
	<path class="st0" d="M406.6,47.6c6.2,0.2,20,0.1,27-0.2l-0.7,4.2c-6.8,0.2-20.3,0.2-26.9,0c-6.3-0.2-10.1-1.6-14.3-6.2
		c-3.1,2.9-5.9,5.2-8.4,7.2l-2.1-4.4c2.4-1.5,5-3.5,7.9-6V28.2H382V24h11.5v17.5C397.4,46.2,401.1,47.5,406.6,47.6z M386.2,2
		c3.8,3.5,6.7,6.8,8.6,9.9l-3.9,2.6c-1.8-3.2-4.5-6.6-8.1-10.1L386.2,2z M416.5,35v9.7H412V35h-8.8v9.7h-4.5V14.2h12.5
		c-2-1.6-4.4-3.2-7-4.8l2.8-2.2c2.6,1.5,4.9,2.9,6.9,4.4c2.5-1.7,5.1-3.8,7.3-5.6h-22V2.4h25.6h1.2h1l2.9,1.7c-3.4,3-8.3,6.7-13,9.8
		l0.3,0.3h8.5h2h2.6v26.3c0,2.3-0.6,3.6-2.6,4c-1.2,0.2-4.1,0.2-6.3,0.1l-0.6-3.6c1.4,0.1,3.4,0.1,4,0.1c0.8-0.1,1-0.4,1-1.1V35
		H416.5z M412,22.9v-5.2h-8.8v5.2H412z M412,31.5v-5.2h-8.8v5.2H412z M425.6,22.9v-5.2h-9.2v5.2H425.6z M425.6,31.5v-5.2h-9.2v5.2
		H425.6z"/>
	<path class="st0" d="M458.1,3.3c-0.6,12.1-0.8,23.6-0.8,29.1c0,9.9,3.4,13.6,11,13.6c7.5,0,13-3.9,16.9-16.3l4.6,2.2
		c-5.2,14.6-12.4,18.9-21.7,18.9c-10.9,0-15.7-6.2-15.7-18.3c0-5.4,0.2-17.1,0.3-29.2H458.1z M474.2,10.4c2.4,2.4,4.3,4.6,6.2,7.5
		l-2.6,2c-1.7-2.8-3.6-5.3-6-7.4L474.2,10.4z M480.4,6.4c2.5,2.4,4.3,4.6,6.2,7.5l-2.5,2c-1.7-2.8-3.7-5.3-6-7.5L480.4,6.4z"/>
	<path class="st0" d="M531.6,8.4C536,8,541.4,7.5,545.3,7l0.6,4.8c-2.5,0.1-6.6,0.6-8.6,1c-1.2,0.2-3,1.1-4.3,1.8
		c-7.1,4.5-11.9,10.7-11.9,17.8c0,7.8,6.8,12.4,20.5,13.1l-0.6,4.8c-15.5-0.7-24.9-6.6-24.9-17.7c0-7.5,4.7-14.4,12-19.6
		c-6.2,0.6-18.4,1.3-25.8,1.7L502,10C509.6,9.8,526.4,8.8,531.6,8.4z"/>
	<path class="st0" d="M25.9,133.1H10v2.5H5.6v-19.4c-1,0.9-1.9,1.7-2.9,2.5l-2.4-4c4.8-3.5,9.6-9.2,13.4-16.9h3.9
		c3.9,6.9,8.3,11.5,12.9,14.8l-2.5,4.1c-0.8-0.6-1.5-1.2-2.2-1.9V133.1z M13.1,88.5c-2,5-5.2,9.8-8.5,13.5c-0.2-0.1-0.3-0.2-3.9-2.2
		C4,96.4,7.2,91.9,9,87.3L13.1,88.5z M10,112.6h13.6c-2.7-2.6-5.3-5.9-7.8-10.2c-2.2,4-4.5,7.4-6.8,10.2H10z M21.5,128.9v-12H10v12
		H21.5z M22.6,87c3.2,4.3,5.7,8,7.4,11.5l-4.3,2c-1.6-3.5-3.9-7.4-6.9-11.6L22.6,87z M53.7,133.6l-3.2,3.9
		c-5.1-3.1-8.8-8.2-11.1-16.4c-2,6.9-5.4,12.5-11.6,16.4l-3.7-3.1c11.6-6.7,13-18.6,13.3-34.9h-2.8c-1.1,3.5-2.6,6.9-4.4,10.1
		c-1.6-1-2.7-1.5-3.8-2.1C30.1,101,32,94,32.8,86.1l4.3,0.6c-0.3,3-0.8,5.8-1.5,8.6h13H50h0.7l2.2,0.1c-0.5,5.1-1.4,10.9-2.5,15.3
		l-4-1.2c0.8-2.9,1.4-6.6,1.8-10h-6.3c-0.1,3.1-0.2,6.2-0.4,9C42.9,122.4,46.9,130.1,53.7,133.6z"/>
	<path class="st0" d="M78.3,88.3c-0.6,12.1-0.8,23.6-0.8,29.1c0,9.9,3.4,13.6,11,13.6c7.5,0,13-3.9,16.9-16.3l4.6,2.2
		c-5.2,14.6-12.4,18.9-21.7,18.9c-10.9,0-15.7-6.2-15.7-18.3c0-5.4,0.2-17.1,0.3-29.2H78.3z"/>
	<path class="st0" d="M133.2,94.9c-0.4,4.3-0.7,8.5-0.7,12c0,12.9,4.4,21.1,8.1,21.1c2.2,0,4.3-4,5.5-9.7l4.1,1.8
		c-2.1,8.6-5.2,13.3-9.5,13.3c-6.1,0-13.2-9.4-13.2-26.3c0-3.8,0.1-8.1,0.4-12.6L133.2,94.9z M161.8,93.4
		c8.2,8.3,10.9,17.4,11.4,29.9l-5.3,0.4c-0.1-12.3-2.7-20.3-10.1-27.6L161.8,93.4z"/>
	<path class="st0" d="M240.8,130.5l-3.5,4.1c-7.4-3.9-15.2-10.4-20.3-17.9v20.9h-4.8v-20.3c-5.2,7.3-12.9,13.7-20.2,17.5l-3.2-3.8
		c8-3.7,16.5-10.4,21.4-18h-20.7v-4.3h22.7v-9.6h-18.5v-4.3h18.5V86h4.8v8.7h18.8v4.3H217v9.6h23.1v4.3h-20.7
		C224.2,120.3,232.7,126.8,240.8,130.5z"/>
	<path class="st0" d="M306,130.9l-3.5,4.1c-7.4-3.7-15.3-9.9-20.6-17v19.5h-4.8v-19.1c-5.3,7.1-13.1,13.1-20.5,16.7l-3.2-3.8
		c7.9-3.4,16.4-9.6,21.4-16.7h-20.6v-4.2h13.4c-1.1-3.2-3-6.7-5.5-10.3l3.7-2.1c2.9,3.8,4.9,7.2,6.2,10.3l-4.3,2.1h9.5V97.3h-19.2
		v-4.2h19.2V86h4.8v7.1h19.5v4.2h-19.5v13.2h8.2l-3.2-1.8c2.9-3.7,5.7-7.8,7.1-10.8l4.4,2.1c-1.8,3-4.8,6.9-7.8,10.5h14.7v4.2h-20.7
		C289.6,121.6,298.1,127.6,306,130.9z"/>
	<path class="st0" d="M366.2,108.9c-4.8,1.6-10.4,3.7-15.5,5.9c0.5,3,0.7,6.6,0.7,11.1h-4.6c0.1-1,0.1-1.7,0.1-2.6
		c0.1-2.6-0.1-4.8-0.3-6.6c-5.9,3-10.3,6.3-10.3,9.6c0,3.2,4,5,12.7,5c4.1,0,10.6-0.4,14.3-1.2l0.4,4.5c-3.9,0.7-10.2,1-14.7,1
		c-11.1,0-17.5-3.1-17.5-9.1c0-5.5,6.4-10.1,14.1-14c-0.8-2.2-2.1-3.3-3.6-3.3c-3.9,0-8,1.9-11.9,5.3c-1.2,1.1-3.6,3.6-5.3,5.5
		l-3.8-3c4.7-4.5,9.4-11.3,12.7-18.1h-11.2v-4.3h13.1c1-2.5,1.8-5,2.3-7.3l4.9,1c-0.6,2.2-1.3,4.3-2.1,6.3h18V99h-19.8
		c-2,4.2-4.1,7.7-5.8,9.9c3.2-2.1,6.6-3.4,9.8-3.4c3.2,0,5.4,1.7,6.8,5.3c5.1-2.3,10.5-4.3,14.7-6.1L366.2,108.9z"/>
	<path class="st0" d="M410.1,94.6c11.4,0,18.9,6.8,18.9,17.6c0,13-8.7,20.4-31.1,21l-1-4.9c19.7-0.2,26.8-5.7,26.8-15.8
		c0-7.8-5.2-13.1-14.6-13.1c-5.7,0-16.7,2.7-26.2,5.4l-1.2-5.2C392.1,97.4,403.4,94.6,410.1,94.6z"/>
	<path class="st0" d="M478.7,90.1c-5.3,5.8-16.7,16.2-23.8,21.2c-0.4,0.3-0.6,0.6-0.6,0.8c0,0.3,0.2,0.6,0.4,0.8
		c10.5,6.8,20.3,14.3,26.1,20.2l-4.3,3.8c-6-6.8-17.1-15.2-27.6-22.1c-1-0.7-1.4-1.5-1.4-2.5c0-0.9,0.6-2,1.7-2.9
		c7.4-5.2,20.1-16.5,25.3-22.8L478.7,90.1z"/>
	<path class="st0" d="M532.3,90l2.5,3.5c-5.2,4.3-13,11.1-17.4,15.2c2.9-1.2,5.8-1.8,9.2-1.8c8.8,0,13.9,6.4,13.9,13.8
		c0,9.4-7.1,15-19.8,15c-8.1,0-12.7-3.3-12.7-8.3c0-4.6,4.3-8.1,10.2-8.1c6.4,0,10,4.3,11,10.9c4.1-1.6,6.4-4.6,6.4-9.4
		c0-5.4-3.9-9.9-10.4-9.9c-3,0-7,0.8-10.5,2.3c-3.9,1.7-9.9,6.2-14.2,10.1l-3.2-3.7c8.3-6.2,22.1-18.4,28.6-24.5
		c-5.3,0.4-16.5,1-22.7,1.1l-0.3-4.6C510.5,91.5,525.1,90.8,532.3,90z M518.4,123c-3.6,0-6,1.7-6,4.1s2.6,4.2,8,4.2
		c1.8,0,3.4-0.1,4.9-0.3C524.8,126.3,522.5,123,518.4,123z"/>
	<path class="st0" d="M571.7,130.3c0,3.9-3.2,7.2-7.2,7.2c-4,0-7.3-3.2-7.3-7.2c0-4,3.2-7.2,7.3-7.2
		C568.4,123,571.7,126.3,571.7,130.3L571.7,130.3z M559.4,130.3c0,2.6,2.2,4.9,5,4.9c2.7,0,4.9-2.2,4.9-4.9c0-2.7-2.2-5-4.9-5
		C561.7,125.3,559.4,127.6,559.4,130.3L559.4,130.3z"/>
</g>
</svg>
