<?xml version="1.0" encoding="utf-8"?>
<!-- Generator: Adobe Illustrator 19.0.0, SVG Export Plug-In . SVG Version: 6.00 Build 0)  -->
<!DOCTYPE svg PUBLIC "-//W3C//DTD SVG 1.1//EN" "http://www.w3.org/Graphics/SVG/1.1/DTD/svg11.dtd">
<svg version="1.1" xmlns="http://www.w3.org/2000/svg" xmlns:xlink="http://www.w3.org/1999/xlink" x="0px" y="0px"
	 viewBox="0 0 128 128" enable-background="new 0 0 128 128" xml:space="preserve">
<g id="Layer_1">
	<g>
		<polygon fill="#CDD6DA" points="120,96 64.6,128 9.2,96 9.2,32 64.6,0 120,32"/>
	</g>
	<g>
		<g>
			<path fill="#098F81" d="M64.6,124.3L120,95.6V62.9c-17.9-3.6-36.6-5.6-55.8-5.6c-18.9,0-37.4,1.9-55.1,5.4v32.8L64.6,124.3z"/>
		</g>
	</g>
	<g>
		<g>
			<path fill="#455963" d="M64.5,5.8l50.4,29.1v58.2l-50.4,29.1L14.1,93.1V34.9L64.5,5.8 M64.5,0L9.1,32v64l55.4,32l55.4-32V32
				L64.5,0L64.5,0z"/>
		</g>
	</g>
</g>
<g id="Layer_2">
	<g>
		<polygon fill="#716753" points="62,63.4 69.9,79 62.2,78.9"/>
		<polygon fill="#A19A8A" points="102.2,30.9 102.6,51 102.6,51 107.5,53.6"/>
		<polygon fill="#988E7F" points="43.9,26 29.5,30.9 41.3,40"/>
		<polygon fill="#63594A" points="34.7,73.7 35.5,62.4 28.9,63.9"/>
		<polygon fill="#B7AB9D" points="53.7,27.8 43.9,26 46.8,37.1"/>
		<polygon fill="#817B6C" points="29.5,30.9 24.9,50.2 41.3,40"/>
		<polygon fill="#4F463A" points="24.9,50.2 28.9,63.9 35.5,62.4 41.3,40"/>
		<polygon fill="#3F3622" points="66.9,73.1 61.9,64.4 68.7,63.9"/>
		<polygon fill="#63594A" points="73.9,77.4 80.6,62.2 72.7,62.2"/>
		<polygon fill="#FFFFFF" points="90.7,40.5 90.7,40.5 90.7,40.5"/>
		<polygon fill="#807764" points="75.3,47.5 80.6,62.2 89.2,49.7"/>
		<polygon fill="#9D9685" points="89.2,49.7 89.2,49.7 90.7,61.2 94.6,41.7"/>
		<polygon fill="#4F463A" points="72.7,62.2 80.6,62.2 75.3,47.5"/>
		<polygon fill="#8E8575" points="100.8,52.5 90.7,61.2 108.5,62.2"/>
		<polygon fill="#382B22" points="62.1,64.5 68.6,64 72.7,62.2 75.3,47.5"/>
		<polygon fill="#B3AB9C" points="97.4,48.3 90.7,61.2 100.8,52.5"/>
		<polygon fill="#8E8575" points="89.2,49.7 80.6,62.2 90.7,61.2"/>
		<polygon fill="#807764" points="85.4,67.3 90.7,61.2 80.6,62.2"/>
		<polygon fill="#3F3622" points="80.6,77.2 78.4,67 73.9,77.2"/>
		<path fill="#FFFFFF" d="M89.2,49.7L89.2,49.7L89.2,49.7z"/>
		<polygon fill="#B8AD9D" points="85.4,38.9 80.4,34 68,26 75.3,47.5"/>
		<polygon fill="#9D9685" points="89.2,49.7 89.2,49.7 85.4,38.9 75.3,47.5"/>
		<polygon fill="#6A624D" points="88.2,33 85.8,39.6 91.5,40.8"/>
		<polygon fill="#988E7F" points="93.9,34.4 89.4,40.2 93.3,41.3"/>
		<polyline fill="#50483B" points="44.1,76.2 44.9,65 47.5,64 49.1,71 50.3,76.3"/>
		<polyline fill="#382B22" points="47.5,64.2 40,62.2 44.1,76.2"/>
		<polygon fill="#716753" points="28.9,63.9 27.1,77.7 37.2,77.7"/>
		<polyline fill="#3F3622" points="27.4,40.3 20,60.6 25.2,50.2"/>
		<polygon fill="#63594A" points="35.4,62.4 40.2,62.5 47.5,64.2 41.3,40"/>
		<polygon fill="#988E7F" points="47.5,64.2 62.1,64.5 41.3,40"/>
		<polygon fill="#BFB4A7" points="94.6,41.7 90.7,40.5 85.4,38.9 89.2,49.7"/>
		<polygon fill="#807764" points="75.3,47.5 68,26 64,51"/>
		<polygon fill="#9D9685" points="68,26 41.3,40 64,51"/>
		<polygon fill="#63594A" points="64,51 62.1,64.5 75.3,47.5"/>
		<polygon fill="#6A624D" points="41.3,40 62.1,64.5 64,51"/>
		<polygon fill="#B3AB9C" points="94.6,41.7 92.8,51 92.7,51.5 97.4,48.3"/>
		<polygon fill="#807764" points="97.4,48.3 92.7,51.5 90.7,61.2"/>
		<polygon fill="#817B6C" points="43.9,26 41.3,40 46.8,37.1"/>
		<polygon fill="#817B6C" points="53.7,27.8 68,26 46.8,37.1"/>
		<polygon fill="#807764" points="97.4,48.3 108.5,62.2 107.5,53.6"/>
	</g>
	<g>
		<path fill="#FFFFFF" d="M25.3,89.8c1.1,1.2,2.9,2.2,4.4,2.7c-0.2,0.2-0.5,0.6-0.7,0.8c-1.6-0.6-3.4-1.8-4.6-3.2v3.3h-0.9v-3.2
			c-1.2,1.3-2.9,2.5-4.5,3.1c-0.1-0.2-0.4-0.6-0.6-0.8c1.5-0.5,3.2-1.6,4.3-2.7h-3v-4.5h3.7v-1h-4.8v-0.9h4.8v-1.1h0.9v1.1h4.9v0.9
			h-4.9v1h3.9v4.5H25.3z M20.7,87.2h2.8v-1.2h-2.8V87.2z M20.7,89.1h2.8v-1.2h-2.8V89.1z M24.5,86.1v1.2h3v-1.2H24.5z M27.5,87.9h-3
			v1.2h3V87.9z"/>
		<path fill="#FFFFFF" d="M33.7,90.3c-0.6,1-1.6,2.1-2.5,2.8c-0.2-0.2-0.5-0.4-0.7-0.6c0.9-0.6,1.8-1.6,2.3-2.5L33.7,90.3z
			 M41.4,84.6H30.8v-0.9h4.8v-1.4h0.9v1.4h4.9V84.6z M36.5,89.4v3.2c0,0.5-0.1,0.8-0.6,0.9c-0.4,0.1-1.1,0.1-2.2,0.1
			c0-0.3-0.2-0.6-0.3-0.9c0.8,0,1.6,0,1.8,0c0.2,0,0.3,0,0.3-0.2v-3.1h-3.3v-3.6H40v3.6H36.5z M33.2,88.6H39v-2h-5.9V88.6z M39.2,90
			c0.8,0.8,1.9,1.9,2.4,2.7l-0.9,0.5c-0.5-0.7-1.5-1.9-2.3-2.7L39.2,90z"/>
		<path fill="#FFFFFF" d="M43.3,83.1h1.4l3.8,6.5l1.1,2.1h0.1c-0.1-1-0.2-2.2-0.2-3.3v-5.4h1.2v10.4h-1.3l-3.8-6.6l-1.1-2.1h-0.1
			c0.1,1.1,0.2,2.2,0.2,3.2v5.5h-1.2V83.1z"/>
		<path fill="#FFFFFF" d="M51.9,89.7c0-2.6,1.7-4.1,3.6-4.1c1.9,0,3.6,1.5,3.6,4.1c0,2.6-1.7,4-3.6,4C53.6,93.7,51.9,92.2,51.9,89.7
			z M57.7,89.7c0-1.8-0.9-3-2.2-3c-1.3,0-2.2,1.2-2.2,3s0.9,2.9,2.2,2.9C56.8,92.6,57.7,91.4,57.7,89.7z"/>
		<path fill="#FFFFFF" d="M60,89.7c0-2.5,1.6-4.1,3.3-4.1c0.9,0,1.5,0.3,2.2,0.9l-0.1-1.3v-3h1.3v11.3h-1l-0.1-0.9h0
			c-0.6,0.6-1.4,1.1-2.3,1.1C61.3,93.7,60,92.2,60,89.7z M65.5,91.6v-4c-0.7-0.6-1.2-0.8-1.9-0.8c-1.2,0-2.2,1.2-2.2,2.9
			c0,1.9,0.8,3,2.1,3C64.2,92.6,64.8,92.3,65.5,91.6z"/>
		<path fill="#FFFFFF" d="M68.1,89.7c0-2.5,1.7-4.1,3.5-4.1c2,0,3.1,1.4,3.1,3.6c0,0.3,0,0.6-0.1,0.7h-5.2c0.1,1.6,1.1,2.7,2.6,2.7
			c0.8,0,1.4-0.2,1.9-0.6l0.5,0.9c-0.7,0.4-1.5,0.8-2.6,0.8C69.8,93.7,68.1,92.2,68.1,89.7z M73.5,89c0-1.6-0.7-2.4-1.9-2.4
			c-1.1,0-2.1,0.9-2.2,2.4H73.5z"/>
		<path fill="#FFFFFF" d="M86.8,90h-4.9v2.4c0,0.6-0.1,0.8-0.6,1c-0.4,0.1-1.1,0.2-2.2,0.2c-0.1-0.3-0.3-0.7-0.4-0.9
			c0.9,0,1.8,0,2,0c0.2,0,0.3-0.1,0.3-0.2V90h-4.9v-0.8H81v-0.9h0.6c0.6-0.3,1.2-0.7,1.7-1.1h-5.1v-0.8h6l0.2,0l0.6,0.4
			c-0.8,0.8-1.9,1.6-3,2.2v0.2h4.9V90z M77.2,87.1h-0.9v-2.7h1.9c-0.2-0.5-0.7-1.1-1-1.5l0.8-0.4c0.4,0.5,1,1.2,1.2,1.7l-0.4,0.2
			h2.5c-0.2-0.5-0.6-1.2-0.9-1.8l0.8-0.3c0.4,0.6,0.8,1.4,1,1.9l-0.5,0.2h2.1c0.5-0.6,1-1.4,1.3-2l0.9,0.4c-0.4,0.5-0.8,1.1-1.2,1.5
			h1.9v2.7h-0.9v-1.9h-8.6V87.1z"/>
		<path fill="#FFFFFF" d="M98.8,82.8v10.7h-0.9V93h-8.4v0.5h-0.9V82.8H98.8z M97.9,92.2v-8.5h-8.4v8.5H97.9z M97.2,89.3
			c-0.5,0.4-1,0.8-1.5,1.1c0.6,0.3,1.3,0.6,2,0.8c-0.2,0.1-0.4,0.4-0.5,0.6c-1.1-0.4-2.3-1.1-3.2-1.9v2h-0.8V90
			c-0.8,0.6-1.8,1.1-2.7,1.4c-0.1-0.1-0.4-0.5-0.5-0.6c1.2-0.4,2.4-1,3.3-1.7h-2.2v-2.1h5.7v1.8l0,0L97.2,89.3z M97.2,86.5h-7.2
			v-0.6h3.2v-0.7h-2.4v-0.6h2.4v-0.7h0.8v0.7h2.6v0.6h-2.6v0.7h3.2V86.5z M91.6,88.6h4.1v-1h-4.1V88.6z M94.2,89.2
			c0.3,0.3,0.6,0.6,1,0.8c0.4-0.2,0.8-0.6,1.2-0.8H94.2z"/>
		<path fill="#FFFFFF" d="M111.4,83.4c-0.5,1.1-1.4,2.2-2.2,3c0.7,0.7,1.6,1.2,2.7,1.6c-0.2,0.2-0.5,0.5-0.6,0.8
			c-1-0.4-1.9-0.9-2.7-1.6v0.6h-4.8v-0.6c-0.9,0.8-1.9,1.5-3,1.9c-0.1-0.2-0.3-0.6-0.5-0.7c0.9-0.3,1.8-0.8,2.5-1.4
			c-0.4-0.4-1-0.8-1.5-1.2c-0.2,0.1-0.4,0.3-0.6,0.4c-0.1-0.2-0.4-0.5-0.6-0.6c1.4-0.9,2.4-2.2,2.9-3.2l0.9,0.2
			c-0.1,0.2-0.2,0.4-0.4,0.6h1.8l0.2,0l0.6,0.2c-0.4,1.4-1.1,2.6-2,3.6h4.3c-1-1.1-1.8-2.5-2.3-4.2l0.8-0.2c0.4,1.3,0.9,2.4,1.7,3.4
			c0.6-0.6,1.1-1.3,1.5-2h-2.5v-0.8h3l0.2,0L111.4,83.4z M103.8,90.7c-0.6,1-1.6,2-2.5,2.6c-0.2-0.2-0.5-0.5-0.7-0.6
			c0.9-0.5,1.8-1.4,2.4-2.2L103.8,90.7z M106.5,89.9v2.7c0,0.5-0.1,0.8-0.5,0.9c-0.4,0.1-1,0.1-2,0.1c0-0.3-0.2-0.6-0.3-0.9
			c0.7,0,1.4,0,1.6,0c0.2,0,0.3-0.1,0.3-0.2v-2.7h-4.2V89h9.4v0.8H106.5z M101.8,85.2c0.5,0.4,1.1,0.8,1.5,1.1
			c0.2-0.2,0.5-0.5,0.7-0.8c-0.4-0.3-1-0.7-1.6-1C102.2,84.8,102,85,101.8,85.2z M103.1,83.7c-0.1,0.1-0.2,0.2-0.2,0.3
			c0.5,0.3,1.1,0.7,1.5,0.9c0.2-0.4,0.5-0.8,0.6-1.3H103.1z M108.7,90.4c0.9,0.7,2,1.7,2.5,2.4l-0.7,0.6c-0.5-0.7-1.6-1.7-2.5-2.4
			L108.7,90.4z"/>
	</g>
	<g>
		<path fill="#ADD9D5" d="M47.9,99.5h-0.8v2.9h-0.7v-2.9h-0.8V99h2.3V99.5z"/>
		<path fill="#ADD9D5" d="M47.7,101.1c0-0.4,0.1-0.7,0.3-0.9c0.2-0.2,0.4-0.4,0.8-0.4s0.6,0.1,0.8,0.4c0.2,0.2,0.3,0.6,0.3,0.9v0.1
			c0,0.4-0.1,0.7-0.3,0.9c-0.2,0.2-0.4,0.4-0.8,0.4c-0.3,0-0.6-0.1-0.8-0.4C47.8,101.8,47.7,101.5,47.7,101.1L47.7,101.1z
			 M48.4,101.1c0,0.2,0,0.4,0.1,0.6c0.1,0.1,0.2,0.2,0.3,0.2c0.1,0,0.2-0.1,0.3-0.2c0.1-0.1,0.1-0.3,0.1-0.6v-0.1
			c0-0.2,0-0.4-0.1-0.6c-0.1-0.1-0.2-0.2-0.3-0.2s-0.2,0.1-0.3,0.2S48.4,100.9,48.4,101.1L48.4,101.1z"/>
		<path fill="#ADD9D5" d="M51,101.3h-0.1v1.1h-0.7v-3.7h0.7v2.1H51l0.5-1h0.8l-0.7,1.1l0.8,1.4h-0.8L51,101.3z"/>
		<path fill="#ADD9D5" d="M53.4,101.4L53.4,101.4L53.4,101.4l0.4-1.5h0.7l-0.9,2.9c-0.1,0.2-0.2,0.3-0.3,0.5
			c-0.1,0.1-0.3,0.2-0.5,0.2c-0.1,0-0.1,0-0.2,0c0,0-0.1,0-0.2,0l0.1-0.5c0,0,0,0,0,0c0,0,0,0,0.1,0c0.1,0,0.2,0,0.2-0.1
			c0.1-0.1,0.1-0.1,0.1-0.2l0.1-0.2l-0.8-2.6H53L53.4,101.4z"/>
		<path fill="#ADD9D5" d="M54.6,101.1c0-0.4,0.1-0.7,0.3-0.9c0.2-0.2,0.4-0.4,0.8-0.4s0.6,0.1,0.8,0.4c0.2,0.2,0.3,0.6,0.3,0.9v0.1
			c0,0.4-0.1,0.7-0.3,0.9c-0.2,0.2-0.4,0.4-0.8,0.4c-0.3,0-0.6-0.1-0.8-0.4C54.7,101.8,54.6,101.5,54.6,101.1L54.6,101.1z
			 M55.3,101.1c0,0.2,0,0.4,0.1,0.6c0.1,0.1,0.2,0.2,0.3,0.2c0.1,0,0.2-0.1,0.3-0.2c0.1-0.1,0.1-0.3,0.1-0.6v-0.1
			c0-0.2,0-0.4-0.1-0.6c-0.1-0.1-0.2-0.2-0.3-0.2s-0.2,0.1-0.3,0.2S55.3,100.9,55.3,101.1L55.3,101.1z"/>
		<path fill="#ADD9D5" d="M60.7,102.4H60l-1.1-2.2l0,0v2.2h-0.7V99h0.7l1.1,2.2l0,0V99h0.7V102.4z"/>
		<path fill="#ADD9D5" d="M61.1,101.1c0-0.4,0.1-0.7,0.3-0.9c0.2-0.2,0.4-0.4,0.8-0.4s0.6,0.1,0.8,0.4c0.2,0.2,0.3,0.6,0.3,0.9v0.1
			c0,0.4-0.1,0.7-0.3,0.9c-0.2,0.2-0.4,0.4-0.8,0.4c-0.3,0-0.6-0.1-0.8-0.4C61.2,101.8,61.1,101.5,61.1,101.1L61.1,101.1z
			 M61.8,101.1c0,0.2,0,0.4,0.1,0.6c0.1,0.1,0.2,0.2,0.3,0.2c0.1,0,0.2-0.1,0.3-0.2c0.1-0.1,0.1-0.3,0.1-0.6v-0.1
			c0-0.2,0-0.4-0.1-0.6c-0.1-0.1-0.2-0.2-0.3-0.2s-0.2,0.1-0.3,0.2S61.8,100.9,61.8,101.1L61.8,101.1z"/>
		<path fill="#ADD9D5" d="M63.5,101.1c0-0.4,0.1-0.7,0.2-1c0.2-0.2,0.4-0.4,0.6-0.4c0.1,0,0.2,0,0.3,0.1c0.1,0,0.2,0.1,0.2,0.2v-1.4
			h0.7v3.7H65l0-0.3c-0.1,0.1-0.1,0.2-0.2,0.2c-0.1,0.1-0.2,0.1-0.3,0.1c-0.3,0-0.5-0.1-0.6-0.3C63.6,101.9,63.5,101.6,63.5,101.1
			L63.5,101.1z M64.2,101.2c0,0.2,0,0.4,0.1,0.5c0.1,0.1,0.2,0.2,0.3,0.2c0.1,0,0.1,0,0.2-0.1c0.1,0,0.1-0.1,0.1-0.1v-1.2
			c0-0.1-0.1-0.1-0.1-0.2c-0.1,0-0.1-0.1-0.2-0.1c-0.1,0-0.2,0.1-0.3,0.2C64.2,100.7,64.2,100.9,64.2,101.2L64.2,101.2z"/>
		<path fill="#ADD9D5" d="M67,102.4c-0.3,0-0.6-0.1-0.8-0.3c-0.2-0.2-0.3-0.5-0.3-0.9v-0.1c0-0.4,0.1-0.7,0.3-0.9
			c0.2-0.2,0.4-0.4,0.8-0.4c0.3,0,0.5,0.1,0.7,0.3c0.2,0.2,0.2,0.5,0.2,0.8v0.4h-1.3c0,0.2,0.1,0.3,0.1,0.5c0.1,0.1,0.2,0.2,0.4,0.2
			c0.1,0,0.2,0,0.3,0c0.1,0,0.2-0.1,0.3-0.1l0.2,0.4c-0.1,0.1-0.2,0.1-0.4,0.2C67.3,102.4,67.1,102.4,67,102.4z M66.9,100.3
			c-0.1,0-0.2,0-0.3,0.1c-0.1,0.1-0.1,0.2-0.1,0.4h0.6v-0.1c0-0.2,0-0.3-0.1-0.4C67.1,100.4,67,100.3,66.9,100.3z"/>
		<path fill="#ADD9D5" d="M71.1,101H70v1.4h-0.7V99h2v0.5H70v1h1.1V101z"/>
		<path fill="#ADD9D5" d="M72.6,102.4c-0.3,0-0.6-0.1-0.8-0.3c-0.2-0.2-0.3-0.5-0.3-0.9v-0.1c0-0.4,0.1-0.7,0.3-0.9
			c0.2-0.2,0.4-0.4,0.8-0.4c0.3,0,0.5,0.1,0.7,0.3c0.2,0.2,0.2,0.5,0.2,0.8v0.4h-1.3c0,0.2,0.1,0.3,0.1,0.5s0.2,0.2,0.4,0.2
			c0.1,0,0.2,0,0.3,0c0.1,0,0.2-0.1,0.3-0.1l0.2,0.4c-0.1,0.1-0.2,0.1-0.4,0.2C72.9,102.4,72.7,102.4,72.6,102.4z M72.5,100.3
			c-0.1,0-0.2,0-0.3,0.1c-0.1,0.1-0.1,0.2-0.1,0.4h0.6v-0.1c0-0.2,0-0.3-0.1-0.4C72.7,100.4,72.6,100.3,72.5,100.3z"/>
		<path fill="#ADD9D5" d="M74.9,101.7c0-0.1,0-0.1-0.1-0.2c-0.1-0.1-0.2-0.1-0.3-0.2c-0.3-0.1-0.5-0.2-0.6-0.3
			c-0.1-0.1-0.2-0.3-0.2-0.5c0-0.2,0.1-0.4,0.3-0.5c0.2-0.1,0.4-0.2,0.7-0.2c0.3,0,0.5,0.1,0.7,0.2c0.2,0.2,0.3,0.3,0.2,0.6l0,0
			h-0.7c0-0.1,0-0.2-0.1-0.3c0-0.1-0.1-0.1-0.2-0.1c-0.1,0-0.1,0-0.2,0.1c-0.1,0.1-0.1,0.1-0.1,0.2c0,0.1,0,0.1,0.1,0.2
			c0.1,0,0.2,0.1,0.3,0.2c0.3,0.1,0.5,0.2,0.6,0.3c0.1,0.1,0.2,0.3,0.2,0.5c0,0.2-0.1,0.4-0.3,0.5c-0.2,0.1-0.4,0.2-0.7,0.2
			c-0.3,0-0.5-0.1-0.7-0.3c-0.2-0.2-0.3-0.4-0.2-0.6l0,0h0.6c0,0.1,0,0.2,0.1,0.3c0.1,0.1,0.2,0.1,0.3,0.1c0.1,0,0.2,0,0.2-0.1
			C74.9,101.9,74.9,101.8,74.9,101.7z"/>
		<path fill="#ADD9D5" d="M76.7,99.2v0.6h0.5v0.5h-0.5v1.3c0,0.1,0,0.2,0,0.3c0,0.1,0.1,0.1,0.2,0.1c0,0,0.1,0,0.1,0
			c0,0,0.1,0,0.1,0l0.1,0.5c-0.1,0-0.1,0-0.2,0.1c-0.1,0-0.1,0-0.2,0c-0.2,0-0.4-0.1-0.5-0.2c-0.1-0.1-0.2-0.4-0.2-0.7v-1.2h-0.3
			v-0.5h0.3v-0.6H76.7z"/>
		<path fill="#ADD9D5" d="M78.2,99.2h-0.7v-0.5h0.7V99.2z M78.2,102.4h-0.7v-2.5h0.7V102.4z"/>
		<path fill="#ADD9D5" d="M79.5,101.4l0,0.2h0L79.5,101.4l0.4-1.6h0.7l-0.7,2.5h-0.7l-0.7-2.5h0.7L79.5,101.4z"/>
		<path fill="#ADD9D5" d="M82.1,102.4c0-0.1,0-0.1-0.1-0.2c0-0.1,0-0.1,0-0.2c-0.1,0.1-0.1,0.2-0.2,0.3c-0.1,0.1-0.2,0.1-0.3,0.1
			c-0.2,0-0.4-0.1-0.5-0.2c-0.1-0.1-0.2-0.3-0.2-0.6c0-0.2,0.1-0.4,0.3-0.6c0.2-0.1,0.4-0.2,0.7-0.2H82v-0.2c0-0.1,0-0.2-0.1-0.3
			c0-0.1-0.1-0.1-0.2-0.1c-0.1,0-0.1,0-0.2,0.1c0,0.1-0.1,0.1-0.1,0.2h-0.7l0,0c0-0.2,0.1-0.4,0.3-0.6c0.2-0.2,0.4-0.2,0.7-0.2
			c0.3,0,0.5,0.1,0.7,0.2c0.2,0.2,0.3,0.4,0.3,0.7v1c0,0.1,0,0.2,0,0.3c0,0.1,0,0.2,0.1,0.3H82.1z M81.6,101.9c0.1,0,0.2,0,0.2-0.1
			c0.1-0.1,0.1-0.1,0.1-0.2v-0.4h-0.3c-0.1,0-0.2,0-0.2,0.1c-0.1,0.1-0.1,0.2-0.1,0.3c0,0.1,0,0.2,0.1,0.2
			C81.5,101.9,81.6,101.9,81.6,101.9z"/>
		<path fill="#ADD9D5" d="M83.8,102.4h-0.7v-3.7h0.7V102.4z"/>
	</g>
</g>
</svg>
