<svg xmlns="http://www.w3.org/2000/svg" viewBox="0 0 128 128"><path fill="#CDD6DA" d="M120 96l-55.4 32L9.2 96V32L64.6 0 120 32"/><path fill="#098F81" d="M64.6 124.3L120 95.6V62.9c-17.9-3.6-36.6-5.6-55.8-5.6-18.9 0-37.4 1.9-55.1 5.4v32.8l55.5 28.8z"/><path fill="#455963" d="M64.5 5.8l50.4 29.1v58.2l-50.4 29.1-50.4-29.1V34.9L64.5 5.8m0-5.8L9.1 32v64l55.4 32 55.4-32V32L64.5 0z"/><g><path fill="#716753" d="M62 63.4L69.9 79l-7.7-.1"/><path fill="#A19A8A" d="M102.2 30.9l.4 20.1 4.9 2.6"/><path fill="#988E7F" d="M43.9 26l-14.4 4.9L41.3 40"/><path fill="#63594A" d="M34.7 73.7l.8-11.3-6.6 1.5"/><path fill="#B7AB9D" d="M53.7 27.8L43.9 26l2.9 11.1"/><path fill="#817B6C" d="M29.5 30.9l-4.6 19.3L41.3 40"/><path fill="#4F463A" d="M24.9 50.2l4 13.7 6.6-1.5L41.3 40"/><path fill="#3F3622" d="M66.9 73.1l-5-8.7 6.8-.5"/><path fill="#63594A" d="M73.9 77.4l6.7-15.2h-7.9"/><path fill="#FFF" d="M90.7 40.5"/><path fill="#807764" d="M75.3 47.5l5.3 14.7 8.6-12.5"/><path fill="#9D9685" d="M89.2 49.7l1.5 11.5 3.9-19.5"/><path fill="#4F463A" d="M72.7 62.2h7.9l-5.3-14.7"/><path fill="#8E8575" d="M100.8 52.5l-10.1 8.7 17.8 1"/><path fill="#382B22" d="M62.1 64.5l6.5-.5 4.1-1.8 2.6-14.7"/><path fill="#B3AB9C" d="M97.4 48.3l-6.7 12.9 10.1-8.7"/><path fill="#8E8575" d="M89.2 49.7l-8.6 12.5 10.1-1"/><path fill="#807764" d="M85.4 67.3l5.3-6.1-10.1 1"/><path fill="#3F3622" d="M80.6 77.2L78.4 67l-4.5 10.2"/><path fill="#FFF" d="M89.2 49.7z"/><path fill="#B8AD9D" d="M85.4 38.9l-5-4.9L68 26l7.3 21.5"/><path fill="#9D9685" d="M89.2 49.7l-3.8-10.8-10.1 8.6"/><path fill="#6A624D" d="M88.2 33l-2.4 6.6 5.7 1.2"/><path fill="#988E7F" d="M93.9 34.4l-4.5 5.8 3.9 1.1"/><path fill="#50483B" d="M44.1 76.2l.8-11.2 2.6-1 1.6 7 1.2 5.3"/><path fill="#382B22" d="M47.5 64.2l-7.5-2 4.1 14"/><path fill="#716753" d="M28.9 63.9l-1.8 13.8h10.1"/><path fill="#3F3622" d="M27.4 40.3L20 60.6l5.2-10.4"/><path fill="#63594A" d="M35.4 62.4l4.8.1 7.3 1.7L41.3 40"/><path fill="#988E7F" d="M47.5 64.2l14.6.3L41.3 40"/><path fill="#BFB4A7" d="M94.6 41.7l-3.9-1.2-5.3-1.6 3.8 10.8"/><path fill="#807764" d="M75.3 47.5L68 26l-4 25"/><path fill="#9D9685" d="M68 26L41.3 40 64 51"/><path fill="#63594A" d="M64 51l-1.9 13.5 13.2-17"/><path fill="#6A624D" d="M41.3 40l20.8 24.5L64 51"/><path fill="#B3AB9C" d="M94.6 41.7L92.8 51l-.1.5 4.7-3.2"/><path fill="#807764" d="M97.4 48.3l-4.7 3.2-2 9.7"/><path fill="#817B6C" d="M43.9 26l-2.6 14 5.5-2.9M53.7 27.8L68 26 46.8 37.1"/><path fill="#807764" d="M97.4 48.3l11.1 13.9-1-8.6"/><g fill="#FFF"><path d="M25.3 89.8c1.1 1.2 2.9 2.2 4.4 2.7-.2.2-.5.6-.7.8-1.6-.6-3.4-1.8-4.6-3.2v3.3h-.9v-3.2c-1.2 1.3-2.9 2.5-4.5 3.1-.1-.2-.4-.6-.6-.8 1.5-.5 3.2-1.6 4.3-2.7h-3v-4.5h3.7v-1h-4.8v-.9h4.8v-1.1h.9v1.1h4.9v.9h-4.9v1h3.9v4.5h-2.9zm-4.6-2.6h2.8V86h-2.8v1.2zm0 1.9h2.8v-1.2h-2.8v1.2zm3.8-3v1.2h3v-1.2h-3zm3 1.8h-3v1.2h3v-1.2zM33.7 90.3c-.6 1-1.6 2.1-2.5 2.8-.2-.2-.5-.4-.7-.6.9-.6 1.8-1.6 2.3-2.5l.9.3zm7.7-5.7H30.8v-.9h4.8v-1.4h.9v1.4h4.9v.9zm-4.9 4.8v3.2c0 .5-.1.8-.6.9-.4.1-1.1.1-2.2.1 0-.3-.2-.6-.3-.9h1.8c.2 0 .3 0 .3-.2v-3.1h-3.3v-3.6H40v3.6h-3.5zm-3.3-.8H39v-2h-5.9v2zm6 1.4c.8.8 1.9 1.9 2.4 2.7l-.9.5c-.5-.7-1.5-1.9-2.3-2.7l.8-.5zM43.3 83.1h1.4l3.8 6.5 1.1 2.1h.1c-.1-1-.2-2.2-.2-3.3V83h1.2v10.4h-1.3l-3.8-6.6-1.1-2.1h-.1c.1 1.1.2 2.2.2 3.2v5.5h-1.2V83.1zM51.9 89.7c0-2.6 1.7-4.1 3.6-4.1 1.9 0 3.6 1.5 3.6 4.1 0 2.6-1.7 4-3.6 4-1.9 0-3.6-1.5-3.6-4zm5.8 0c0-1.8-.9-3-2.2-3-1.3 0-2.2 1.2-2.2 3s.9 2.9 2.2 2.9c1.3 0 2.2-1.2 2.2-2.9zM60 89.7c0-2.5 1.6-4.1 3.3-4.1.9 0 1.5.3 2.2.9l-.1-1.3v-3h1.3v11.3h-1l-.1-.9c-.6.6-1.4 1.1-2.3 1.1-2 0-3.3-1.5-3.3-4zm5.5 1.9v-4c-.7-.6-1.2-.8-1.9-.8-1.2 0-2.2 1.2-2.2 2.9 0 1.9.8 3 2.1 3 .7-.1 1.3-.4 2-1.1zM68.1 89.7c0-2.5 1.7-4.1 3.5-4.1 2 0 3.1 1.4 3.1 3.6 0 .3 0 .6-.1.7h-5.2c.1 1.6 1.1 2.7 2.6 2.7.8 0 1.4-.2 1.9-.6l.5.9c-.7.4-1.5.8-2.6.8-2 0-3.7-1.5-3.7-4zm5.4-.7c0-1.6-.7-2.4-1.9-2.4-1.1 0-2.1.9-2.2 2.4h4.1zM86.8 90h-4.9v2.4c0 .6-.1.8-.6 1-.4.1-1.1.2-2.2.2-.1-.3-.3-.7-.4-.9h2c.2 0 .3-.1.3-.2V90h-4.9v-.8H81v-.9h.6c.6-.3 1.2-.7 1.7-1.1h-5.1v-.8h6.2l.6.4c-.8.8-1.9 1.6-3 2.2v.2h4.9v.8zm-9.6-2.9h-.9v-2.7h1.9c-.2-.5-.7-1.1-1-1.5l.8-.4c.4.5 1 1.2 1.2 1.7l-.4.2h2.5c-.2-.5-.6-1.2-.9-1.8l.8-.3c.4.6.8 1.4 1 1.9l-.5.2h2.1c.5-.6 1-1.4 1.3-2l.9.4c-.4.5-.8 1.1-1.2 1.5h1.9V87h-.9v-1.9h-8.6v2zM98.8 82.8v10.7h-.9V93h-8.4v.5h-.9V82.8h10.2zm-.9 9.4v-8.5h-8.4v8.5h8.4zm-.7-2.9c-.5.4-1 .8-1.5 1.1.6.3 1.3.6 2 .8-.2.1-.4.4-.5.6-1.1-.4-2.3-1.1-3.2-1.9v2h-.8V90c-.8.6-1.8 1.1-2.7 1.4-.1-.1-.4-.5-.5-.6 1.2-.4 2.4-1 3.3-1.7h-2.2V87h5.7v1.8l.4.5zm0-2.8H90v-.6h3.2v-.7h-2.4v-.6h2.4v-.7h.8v.7h2.6v.6H94v.7h3.2v.6zm-5.6 2.1h4.1v-1h-4.1v1zm2.6.6c.3.3.6.6 1 .8.4-.2.8-.6 1.2-.8h-2.2zM111.4 83.4c-.5 1.1-1.4 2.2-2.2 3 .7.7 1.6 1.2 2.7 1.6-.2.2-.5.5-.6.8-1-.4-1.9-.9-2.7-1.6v.6h-4.8v-.6c-.9.8-1.9 1.5-3 1.9-.1-.2-.3-.6-.5-.7.9-.3 1.8-.8 2.5-1.4-.4-.4-1-.8-1.5-1.2-.2.1-.4.3-.6.4-.1-.2-.4-.5-.6-.6 1.4-.9 2.4-2.2 2.9-3.2l.9.2c-.1.2-.2.4-.4.6h2l.6.2c-.4 1.4-1.1 2.6-2 3.6h4.3c-1-1.1-1.8-2.5-2.3-4.2l.8-.2c.4 1.3.9 2.4 1.7 3.4.6-.6 1.1-1.3 1.5-2h-2.5v-.8h3.2l.6.2zm-7.6 7.3c-.6 1-1.6 2-2.5 2.6-.2-.2-.5-.5-.7-.6.9-.5 1.8-1.4 2.4-2.2l.8.2zm2.7-.8v2.7c0 .5-.1.8-.5.9-.4.1-1 .1-2 .1 0-.3-.2-.6-.3-.9h1.6c.2 0 .3-.1.3-.2v-2.7h-4.2V89h9.4v.8h-4.3zm-4.7-4.7c.5.4 1.1.8 1.5 1.1.2-.2.5-.5.7-.8-.4-.3-1-.7-1.6-1-.2.3-.4.5-.6.7zm1.3-1.5c-.1.1-.2.2-.2.3.5.3 1.1.7 1.5.9.2-.4.5-.8.6-1.3h-1.9zm5.6 6.7c.9.7 2 1.7 2.5 2.4l-.7.6c-.5-.7-1.6-1.7-2.5-2.4l.7-.6z"/></g><g fill="#ADD9D5"><path d="M47.9 99.5h-.8v2.9h-.7v-2.9h-.8V99h2.3v.5zM47.7 101.1c0-.4.1-.7.3-.9.2-.2.4-.4.8-.4s.6.1.8.4c.2.2.3.6.3.9v.1c0 .4-.1.7-.3.9-.2.2-.4.4-.8.4-.3 0-.6-.1-.8-.4-.2-.3-.3-.6-.3-1zm.7 0c0 .2 0 .4.1.6.1.1.2.2.3.2.1 0 .2-.1.3-.2.1-.1.1-.3.1-.6v-.1c0-.2 0-.4-.1-.6-.1-.1-.2-.2-.3-.2s-.2.1-.3.2-.1.5-.1.7zM51 101.3h-.1v1.1h-.7v-3.7h.7v2.1h.1l.5-1h.8l-.7 1.1.8 1.4h-.8l-.6-1z"/><path d="M53.4 101.4l.4-1.5h.7l-.9 2.9c-.1.2-.2.3-.3.5-.1.1-.3.2-.5.2h-.2-.2l.1-.5h.1c.1 0 .2 0 .2-.1.1-.1.1-.1.1-.2l.1-.2-.8-2.6h.8l.4 1.5zM54.6 101.1c0-.4.1-.7.3-.9.2-.2.4-.4.8-.4s.6.1.8.4c.2.2.3.6.3.9v.1c0 .4-.1.7-.3.9-.2.2-.4.4-.8.4-.3 0-.6-.1-.8-.4-.2-.3-.3-.6-.3-1zm.7 0c0 .2 0 .4.1.6.1.1.2.2.3.2.1 0 .2-.1.3-.2.1-.1.1-.3.1-.6v-.1c0-.2 0-.4-.1-.6-.1-.1-.2-.2-.3-.2s-.2.1-.3.2-.1.5-.1.7zM60.7 102.4H60l-1.1-2.2v2.2h-.7V99h.7l1.1 2.2V99h.7v3.4zM61.1 101.1c0-.4.1-.7.3-.9.2-.2.4-.4.8-.4s.6.1.8.4c.2.2.3.6.3.9v.1c0 .4-.1.7-.3.9-.2.2-.4.4-.8.4-.3 0-.6-.1-.8-.4-.2-.3-.3-.6-.3-1zm.7 0c0 .2 0 .4.1.6.1.1.2.2.3.2.1 0 .2-.1.3-.2.1-.1.1-.3.1-.6v-.1c0-.2 0-.4-.1-.6-.1-.1-.2-.2-.3-.2s-.2.1-.3.2-.1.5-.1.7zM63.5 101.1c0-.4.1-.7.2-1 .2-.2.4-.4.6-.4.1 0 .2 0 .3.1.1 0 .2.1.2.2v-1.4h.7v3.7H65v-.3c-.1.1-.1.2-.2.2-.1.1-.2.1-.3.1-.3 0-.5-.1-.6-.3-.3-.1-.4-.4-.4-.9zm.7.1c0 .2 0 .4.1.5.1.1.2.2.3.2.1 0 .1 0 .2-.1.1 0 .1-.1.1-.1v-1.2c0-.1-.1-.1-.1-.2-.1 0-.1-.1-.2-.1s-.2.1-.3.2c-.1.3-.1.5-.1.8zM67 102.4c-.3 0-.6-.1-.8-.3-.2-.2-.3-.5-.3-.9v-.1c0-.4.1-.7.3-.9.2-.2.4-.4.8-.4.3 0 .5.1.7.3.2.2.2.5.2.8v.4h-1.3c0 .2.1.3.1.5.1.1.2.2.4.2h.3c.1 0 .2-.1.3-.1l.2.4c-.1.1-.2.1-.4.2-.2-.1-.4-.1-.5-.1zm-.1-2.1c-.1 0-.2 0-.3.1-.1.1-.1.2-.1.4h.6v-.1c0-.2 0-.3-.1-.4.1.1 0 0-.1 0zM71.1 101H70v1.4h-.7V99h2v.5H70v1h1.1v.5zM72.6 102.4c-.3 0-.6-.1-.8-.3-.2-.2-.3-.5-.3-.9v-.1c0-.4.1-.7.3-.9.2-.2.4-.4.8-.4.3 0 .5.1.7.3.2.2.2.5.2.8v.4h-1.3c0 .2.1.3.1.5s.2.2.4.2h.3c.1 0 .2-.1.3-.1l.2.4c-.1.1-.2.1-.4.2-.2-.1-.4-.1-.5-.1zm-.1-2.1c-.1 0-.2 0-.3.1-.1.1-.1.2-.1.4h.6v-.1c0-.2 0-.3-.1-.4.1.1 0 0-.1 0zM74.9 101.7c0-.1 0-.1-.1-.2s-.2-.1-.3-.2c-.3-.1-.5-.2-.6-.3-.1-.1-.2-.3-.2-.5s.1-.4.3-.5c.2-.1.4-.2.7-.2.3 0 .5.1.7.2.2.2.3.3.2.6h-.7c0-.1 0-.2-.1-.3 0-.1-.1-.1-.2-.1s-.1 0-.2.1-.1.1-.1.2 0 .1.1.2c.1 0 .2.1.3.2.3.1.5.2.6.3.1.1.2.3.2.5s-.1.4-.3.5c-.2.1-.4.2-.7.2-.3 0-.5-.1-.7-.3-.2-.2-.3-.4-.2-.6h.6c0 .1 0 .2.1.3.1.1.2.1.3.1.1 0 .2 0 .2-.1.1.1.1 0 .1-.1zM76.7 99.2v.6h.5v.5h-.5v1.6c0 .1.1.1.2.1h.2l.1.5c-.1 0-.1 0-.2.1h-.2c-.2 0-.4-.1-.5-.2-.1-.1-.2-.4-.2-.7v-1.2h-.3v-.5h.3v-.6h.6zM78.2 99.2h-.7v-.5h.7v.5zm0 3.2h-.7v-2.5h.7v2.5zM79.5 101.4v.2-.2l.4-1.6h.7l-.7 2.5h-.7l-.7-2.5h.7l.3 1.6zM82.1 102.4c0-.1 0-.1-.1-.2v-.2c-.1.1-.1.2-.2.3-.1.1-.2.1-.3.1-.2 0-.4-.1-.5-.2-.1-.1-.2-.3-.2-.6 0-.2.1-.4.3-.6.2-.1.4-.2.7-.2h.2v-.2c0-.1 0-.2-.1-.3 0-.1-.1-.1-.2-.1s-.1 0-.2.1c0 .1-.1.1-.1.2h-.7c0-.2.1-.4.3-.6.2-.2.4-.2.7-.2.3 0 .5.1.7.2.2.2.3.4.3.7v1.3c0 .1 0 .2.1.3h-.7zm-.5-.5c.1 0 .2 0 .2-.1.1-.1.1-.1.1-.2v-.4h-.3c-.1 0-.2 0-.2.1-.1.1-.1.2-.1.3 0 .1 0 .2.1.2.1.1.2.1.2.1zM83.8 102.4h-.7v-3.7h.7v3.7z"/></g></g></svg>