<svg width="187" height="51" viewBox="0 0 187 51" xmlns="http://www.w3.org/2000/svg"><g fill="#B6B6B6" fill-rule="evenodd"><path d="M28.4 27.4c0-.5-.3-1-.8-1.3l-12.5-7.2c-.2-.1-.4-.2-.7-.2h-.1c-.2 0-.5.1-.7.2L1.1 26.1c-.5.3-.8.8-.8 1.3v19.3c0 .3.1.5.4.7.2.1.5.1.7 0l7.4-4.2c.5-.3.8-.8.8-1.3v-9c0-.5.3-1 .8-1.3l3.2-1.8c.2-.1.5-.2.8-.2.3 0 .5.1.7.2l3.2 1.8c.5.3.8.8.8 1.3v9c0 .5.3 1 .8 1.3l7.4 4.2c.2.1.5.1.8 0 .2-.1.4-.4.4-.7l-.1-19.3zM95 .9c-.2-.1-.5-.1-.7 0-.2.1-.4.4-.4.6v19.1c0 .2-.1.4-.3.5-.2.1-.4.1-.5 0L90 19.3c-.5-.3-1-.3-1.5 0L76 26.5c-.5.3-.8.8-.8 1.3v14.4c0 .5.3 1 .8 1.3l12.5 7.2c.5.3 1 .3 1.5 0l12.5-7.2c.5-.3.8-.8.8-1.3V6.3c0-.5-.3-1-.8-1.3L95 .9zm-1.2 36.6c0 .1-.1.3-.2.3l-4.3 2.5c-.1.1-.3.1-.4 0l-4.3-2.5c-.1-.1-.2-.2-.2-.3v-4.9c0-.1.1-.3.2-.3l4.3-2.5c.1-.1.3-.1.4 0l4.3 2.5c.1.1.2.2.2.3v4.9zM139.6 32.4c.5-.3.7-.8.7-1.3v-3.5c0-.5-.3-1-.8-1.3l-12.4-7.2c-.5-.3-1-.3-1.5 0l-12.5 7.2c-.5.3-.8.8-.8 1.3V42c0 .5.3 1 .8 1.3l12.4 7.1c.5.3 1 .3 1.5 0l7.5-4.2c.2-.1.4-.4.4-.7 0-.3-.1-.5-.4-.7L122 37.6c-.2-.1-.4-.4-.4-.7v-4.5c0-.3.1-.5.4-.7l3.9-2.3c.2-.1.5-.1.8 0l3.9 2.3c.2.1.4.4.4.7V36c0 .3.1.5.4.7.2.1.5.1.8 0l7.4-4.3zM51.1 19c.5-.3 1-.3 1.5 0L65 26.2c.5.3.8.8.8 1.3v14.4c0 .5-.3 1-.8 1.3l-12.5 7.2c-.5.3-1 .3-1.5 0l-12.5-7.2c-.5-.3-.8-.8-.8-1.3V27.5c0-.5.3-1 .8-1.3L51.1 19zM163.8 50.7c-.4 0-.9-.1-1.2-.3l-3.9-2.3c-.6-.3-.3-.4-.1-.5.8-.3.9-.3 1.8-.8h.3l3 1.8c.1.1.3.1.4 0l11.8-6.8c.1-.1.2-.2.2-.3V27.8c0-.1-.1-.3-.2-.3L164 20.7c-.1-.1-.3-.1-.4 0l-11.8 6.8c-.1.1-.2.2-.2.3v13.6c0 .1.1.3.2.3l3.2 1.9c1.7.9 2.8-.2 2.8-1.2V29c0-.2.2-.3.3-.3h1.5c.2 0 .3.1.3.3v13.4c0 2.3-1.3 3.7-3.5 3.7-.7 0-1.2 0-2.7-.7l-3.1-1.8c-.8-.4-1.2-1.3-1.2-2.1V27.8c0-.9.5-1.7 1.2-2.1l11.8-6.8c.7-.4 1.7-.4 2.5 0l11.8 6.8c.8.4 1.2 1.3 1.2 2.1v13.6c0 .9-.5 1.7-1.2 2.1l-11.8 6.8c-.2.2-.7.4-1.1.4z"/><path d="M167.4 41.3c-5.1 0-6.2-2.4-6.2-4.3 0-.2.2-.3.3-.3h1.5c.2 0 .3.1.3.3.2 1.5.9 2.3 4 2.3 2.5 0 3.5-.6 3.5-1.9 0-.8-.3-1.3-4.1-1.7-3.2-.3-5.2-1-5.2-3.6 0-2.4 2-3.8 5.4-3.8 3.8 0 5.6 1.3 5.9 4.1 0 .1 0 .2-.1.3-.1.1-.2.1-.2.1H171c-.2 0-.3-.1-.3-.3-.4-1.6-1.3-2.1-3.7-2.1-2.7 0-3 .9-3 1.6 0 .9.4 1.1 4 1.6s5.3 1.2 5.3 3.7-2.1 4-5.9 4zM183.7 18.9v.3h-1v2.6h-.4v-2.6h-1v-.3h2.4zM184 18.9h.6l.8 2.5.8-2.5h.6v2.9h-.4v-2.4l-.8 2.5h-.4l-.8-2.5v2.4h-.4v-2.9zM126.3 31.7c.1-.1.2-.1.3 0l2.4 1.4c.1.1.1.1.1.3v2.8c0 .1-.1.2-.1.3l-2.4 1.4c-.1.1-.2.1-.3 0l-2.4-1.4c-.1-.1-.1-.1-.1-.3v-2.8c0-.1.1-.2.1-.3l2.4-1.4z"/></g></svg>