<?xml version="1.0" encoding="UTF-8" standalone="no"?>
<svg width="187px" height="51px" viewBox="0 0 187 51" version="1.1" xmlns="http://www.w3.org/2000/svg" xmlns:xlink="http://www.w3.org/1999/xlink" xmlns:sketch="http://www.bohemiancoding.com/sketch/ns">
    <defs></defs>
    <g id="nodejs-logo" stroke="none" stroke-width="1" fill="none" fill-rule="evenodd" sketch:type="MSPage">
        <g id="Nodejs" sketch:type="MSLayerGroup" fill="#B6B6B6">
            <path d="M28.4,27.4 C28.4,26.9 28.1,26.4 27.6,26.1 L15.1,18.9 C14.9,18.8 14.7,18.7 14.4,18.7 L14.3,18.7 C14.1,18.7 13.8,18.8 13.6,18.9 L1.1,26.1 C0.6,26.4 0.3,26.9 0.3,27.4 L0.3,46.7 C0.3,47 0.4,47.2 0.7,47.4 C0.9,47.5 1.2,47.5 1.4,47.4 L8.8,43.2 C9.3,42.9 9.6,42.4 9.6,41.9 L9.6,32.9 C9.6,32.4 9.9,31.9 10.4,31.6 L13.6,29.8 C13.8,29.7 14.1,29.6 14.4,29.6 C14.7,29.6 14.9,29.7 15.1,29.8 L18.3,31.6 C18.8,31.9 19.1,32.4 19.1,32.9 L19.1,41.9 C19.1,42.4 19.4,42.9 19.9,43.2 L27.3,47.4 C27.5,47.5 27.8,47.5 28.1,47.4 C28.3,47.3 28.5,47 28.5,46.7 L28.4,27.4 L28.4,27.4 Z" id="Shape" sketch:type="MSShapeGroup"></path>
            <path d="M95,0.9 C94.8,0.8 94.5,0.8 94.3,0.9 C94.1,1 93.9,1.3 93.9,1.5 L93.9,20.6 C93.9,20.8 93.8,21 93.6,21.1 C93.4,21.2 93.2,21.2 93.1,21.1 L90,19.3 C89.5,19 89,19 88.5,19.3 L76,26.5 C75.5,26.8 75.2,27.3 75.2,27.8 L75.2,42.2 C75.2,42.7 75.5,43.2 76,43.5 L88.5,50.7 C89,51 89.5,51 90,50.7 L102.5,43.5 C103,43.2 103.3,42.7 103.3,42.2 L103.3,6.3 C103.3,5.8 103,5.3 102.5,5 L95,0.9 L95,0.9 Z M93.8,37.5 C93.8,37.6 93.7,37.8 93.6,37.8 L89.3,40.3 C89.2,40.4 89,40.4 88.9,40.3 L84.6,37.8 C84.5,37.7 84.4,37.6 84.4,37.5 L84.4,32.6 C84.4,32.5 84.5,32.3 84.6,32.3 L88.9,29.8 C89,29.7 89.2,29.7 89.3,29.8 L93.6,32.3 C93.7,32.4 93.8,32.5 93.8,32.6 L93.8,37.5 L93.8,37.5 Z" id="Shape" sketch:type="MSShapeGroup"></path>
            <path d="M139.6,32.4 C140.1,32.1 140.3,31.6 140.3,31.1 L140.3,27.6 C140.3,27.1 140,26.6 139.5,26.3 L127.1,19.1 C126.6,18.8 126.1,18.8 125.6,19.1 L113.1,26.3 C112.6,26.6 112.3,27.1 112.3,27.6 L112.3,42 C112.3,42.5 112.6,43 113.1,43.3 L125.5,50.4 C126,50.7 126.5,50.7 127,50.4 L134.5,46.2 C134.7,46.1 134.9,45.8 134.9,45.5 C134.9,45.2 134.8,45 134.5,44.8 L122,37.6 C121.8,37.5 121.6,37.2 121.6,36.9 L121.6,32.4 C121.6,32.1 121.7,31.9 122,31.7 L125.9,29.4 C126.1,29.3 126.4,29.3 126.7,29.4 L130.6,31.7 C130.8,31.8 131,32.1 131,32.4 L131,36 C131,36.3 131.1,36.5 131.4,36.7 C131.6,36.8 131.9,36.8 132.2,36.7 L139.6,32.4 L139.6,32.4 Z" id="Shape" sketch:type="MSShapeGroup"></path>
            <path d="M51.1,19 C51.6,18.7 52.1,18.7 52.6,19 L65,26.2 C65.5,26.5 65.8,27 65.8,27.5 L65.8,41.9 C65.8,42.4 65.5,42.9 65,43.2 L52.5,50.4 C52,50.7 51.5,50.7 51,50.4 L38.5,43.2 C38,42.9 37.7,42.4 37.7,41.9 L37.7,27.5 C37.7,27 38,26.5 38.5,26.2 L51.1,19 L51.1,19 Z" id="Shape" sketch:type="MSShapeGroup"></path>
            <path d="M163.8,50.7 C163.4,50.7 162.9,50.6 162.6,50.4 L158.7,48.1 C158.1,47.8 158.4,47.7 158.6,47.6 C159.4,47.3 159.5,47.3 160.4,46.8 L160.7,46.8 L163.7,48.6 C163.8,48.7 164,48.7 164.1,48.6 L175.9,41.8 C176,41.7 176.1,41.6 176.1,41.5 L176.1,27.8 C176.1,27.7 176,27.5 175.9,27.5 L164,20.7 C163.9,20.6 163.7,20.6 163.6,20.7 L151.8,27.5 C151.7,27.6 151.6,27.7 151.6,27.8 L151.6,41.4 C151.6,41.5 151.7,41.7 151.8,41.7 L155,43.6 C156.7,44.5 157.8,43.4 157.8,42.4 L157.8,29 C157.8,28.8 158,28.7 158.1,28.7 L159.6,28.7 C159.8,28.7 159.9,28.8 159.9,29 L159.9,42.4 C159.9,44.7 158.6,46.1 156.4,46.1 C155.7,46.1 155.2,46.1 153.7,45.4 L150.6,43.6 C149.8,43.2 149.4,42.3 149.4,41.5 L149.4,27.8 C149.4,26.9 149.9,26.1 150.6,25.7 L162.4,18.9 C163.1,18.5 164.1,18.5 164.9,18.9 L176.7,25.7 C177.5,26.1 177.9,27 177.9,27.8 L177.9,41.4 C177.9,42.3 177.4,43.1 176.7,43.5 L164.9,50.3 C164.7,50.5 164.2,50.7 163.8,50.7 L163.8,50.7 Z" id="Shape" sketch:type="MSShapeGroup"></path>
            <path d="M167.4,41.3 C162.3,41.3 161.2,38.9 161.2,37 C161.2,36.8 161.4,36.7 161.5,36.7 L163,36.7 C163.2,36.7 163.3,36.8 163.3,37 C163.5,38.5 164.2,39.3 167.3,39.3 C169.8,39.3 170.8,38.7 170.8,37.4 C170.8,36.6 170.5,36.1 166.7,35.7 C163.5,35.4 161.5,34.7 161.5,32.1 C161.5,29.7 163.5,28.3 166.9,28.3 C170.7,28.3 172.5,29.6 172.8,32.4 C172.8,32.5 172.8,32.6 172.7,32.7 C172.6,32.8 172.5,32.8 172.5,32.8 L171,32.8 C170.8,32.8 170.7,32.7 170.7,32.5 C170.3,30.9 169.4,30.4 167,30.4 C164.3,30.4 164,31.3 164,32 C164,32.9 164.4,33.1 168,33.6 C171.6,34.1 173.3,34.8 173.3,37.3 C173.3,39.8 171.2,41.3 167.4,41.3 L167.4,41.3 Z" id="Shape" sketch:type="MSShapeGroup"></path>
            <g id="Group" transform="translate(181.000000, 18.000000)" sketch:type="MSShapeGroup">
                <path d="M2.7,0.9 L2.7,1.2 L1.7,1.2 L1.7,3.8 L1.3,3.8 L1.3,1.2 L0.3,1.2 L0.3,0.9 L2.7,0.9 L2.7,0.9 Z" id="Shape"></path>
                <path d="M3,0.9 L3.6,0.9 L4.4,3.4 L5.2,0.9 L5.8,0.9 L5.8,3.8 L5.4,3.8 L5.4,2.1 L5.4,1.8 L5.4,1.4 L4.6,3.9 L4.2,3.9 L3.4,1.4 L3.4,1.5 L3.4,1.8 L3.4,2.1 L3.4,3.8 L3,3.8 L3,0.9 L3,0.9 Z" id="Shape"></path>
            </g>
            <path d="M126.3,31.7 C126.4,31.6 126.5,31.6 126.6,31.7 L129,33.1 C129.1,33.2 129.1,33.2 129.1,33.4 L129.1,36.2 C129.1,36.3 129,36.4 129,36.5 L126.6,37.9 C126.5,38 126.4,38 126.3,37.9 L123.9,36.5 C123.8,36.4 123.8,36.4 123.8,36.2 L123.8,33.4 C123.8,33.3 123.9,33.2 123.9,33.1 L126.3,31.7 L126.3,31.7 Z" id="Shape" sketch:type="MSShapeGroup"></path>
        </g>
    </g>
</svg>
