<svg xmlns="http://www.w3.org/2000/svg" width="207.9" height="210.1" fill="#FFFEF7" viewBox="0 0 207.9 210.1"><path d="M158.4 25V0h-5v25H54.5V0h-5v25H.1v5H156l-52 30 49.4 28.3V111l-15.4 8.9h20.4V88.4l49.4-28.5L156 30h51.9v-5h-49.5zm39.4 34.9l-41.9 24.2v-.2l-41.6-24L156 35.8l41.8 24.1z"/><path d="M52 30L.2 59.9H0l.1.1H0h.2L47 87 .1 114.1v5.8l49.4-28.5V120h5V91.4l49.5 28.5 38.9-22.5v-5.8L104 114.1 56.9 87l47-27L52 30zm42.7 29.9L52.3 84.5 52 59.9H9.7L52 35.4v24.5h42.7zM168.8 97.2l39.1 22.5v-5.8l-39.1-22.5"/><g><path d="M207.9 165.7v-5h-41.7v-7.5h41.7v-5h-41.7v-7.4h41.7v-5h-46.7v29.9"/><circle cx="80.4" cy="150.2" r="20.6" fill="#CC4712"/><path d="M52 165v-29.9h-5.2v27L.1 135.2v29.9M142.3 135.8h-33.4v30h33.4c7.5 0 13.5-6.7 13.5-15s-6-15-13.5-15zm4.1 23.7L114 140.8h28.5c4.6.1 8.4 4.5 8.4 10-.1 3.7-1.9 7-4.5 8.7z"/></g><g><path d="M184.9 210.1h23v-5h-18v-24.9h-5M28.8 210.1H52v-5H33.8v-7.6H52v-5H33.8v-7.3H52v-5H28.8M28.8 185.2v7.3M108 180.2H85v5h9v24.9h5v-24.9h9M113.9 180.2h5v29.9h-5zM153.7 180.2h-5.5l-9.4 21.7-9.4-21.7H124l12.9 29.9h3.8M.1 210.1h5v-12.5h18v-5H5.2l21.5-12.4H.1M179.8 210.1l-12.9-29.9H163l-12.9 29.9h5.4l15-8.7 3.8 8.7h5.5zm-20.5-8.7l5.6-13 5.6 13h-11.2zM57 185.2v7.5M80 192.7H62v-7.5h18v-5H57v17.5h17.9l-21.5 12.4H80"/></g></svg>