<svg xmlns="http://www.w3.org/2000/svg" width="129" height="54"><path d="M5 16.2h.5c1.1.1 2.2.6 3 1.5 3.1 3.4-4.3 7.8-7.2 5.7-1.4-1-1.6-3.1-.9-4.6.8-1.7 2.8-2.6 4.6-2.6M7 30.3c2.7.9 3.9 5 1 6.5-2.2 1.1-5.3-.5-5.1-3.1.1-.8.4-1.5.9-2 .5-.6 1.1-1.1 1.8-1.3.5-.1 1-.2 1.4-.1M58.6 24c-.8.3-1.5.8-2 1.3-2.3 2-3 3.8-2.8 6.9 0 .3 1.9-.4 2.5-.7 2.3-.9 7.2-3 5.7-6.4-.7-1.7-2.1-1.7-3.4-1.1m4.7-5.7c.9.4 1.7 1.1 2.6 1.8 2.6 2.4 3.6 5.7 2.6 9.1-1.4 4.6-6.7 6-10.8 7.1-1.2.2-2.4.3-2.8.4.7 3.6 6.3 3.4 8.8 2.5 1.2-.4 2.3-.9 3.5-1.4.5-.2 2.5-1.7 3-1.2.9 1 .8 3.4.2 4.6-.3.6-1.2 1.2-1.7 1.5-4.2 2.1-10.2 2.9-14.3-.1-1.2-.9-2.5-2.1-3.3-3.3-.7-1-1.2-2.1-1.6-3.3-1.1-3.5-1.4-7.8.3-11.2 1.2-2.3 3.3-4.6 5.6-5.9 1.3-.7 3.5-1.3 5-1.3 1.2.1 2.1.3 2.9.7M101.7 33.4v.3c-.3 2.7-.4 5.4-.8 8.1-.2 1.4-.3 2.7-.6 4.1-.2 1-.3 2.1-.9 3-1.7 2.8-4.2 1.4-5.9-.9 0 0-5.5-8.1-8-12.7-3.3-6.1-5.3-9.8-6.6-12.5 0 .4 0 .4.1 1.2.3 4.2.6 9.8.8 14 .1 2.3.2 4.6.4 6.9.1 2 .4 4.2-.5 6.1-.8 1.7-2.3 1.3-3.5.3-.7-.6-1.6-1.5-2-2.8-.4-1.2-.4-2.1-.6-3.3-1.3-9-1.5-18.3-1.4-27.4 0-2.9 0-14.6 2.4-14.1.9.2 2.3.5 2.9 1.1.9 1 1.4 2.3 1.9 3.5 1.6 4.1 3.3 8.1 5.3 12.6 1.5 3.3 3.2 6.5 5 9.8 1.1 2 2.2 3.9 3.4 5.9.3.5.7 1 1 1.5l.3.3c.3-2.3.2-4.6.2-6.9.2-5.4.3-10.8 1-16.1.5-3.8.9-7.6 2.1-11.2.5-1.3.9-2.9 2.2-3.7.8-.5 1.9-.6 2.8-.6.8 0 1.6.2 2.3.6 1.3.6 1 2.1.8 3.2-.1.8-.3 2.2-.5 3.1-.3 1.7-.4 2.6-.7 4.2-.3 2-.7 4-.9 5.9-.4 2.7-.7 5.5-1.1 8.2-.3 2.9-.6 5.6-.9 8.3M116.5 27.6c.8-.1 2.9-.3 2.9-.3-.2-2.2-.6-3.5-1-5.7-.2-1.2-.6-3.4-1.2-4.5-.4-.7-1.1 1.3-1.2 1.5-.6 1.5-1 3.1-1.4 4.7-.1.5-.6 2.1-1 4.8-.1-.1 1.2-.3 2.9-.5m1.8-23.7c.2.2.4.6.6 1.1 2 4.7 6.5 20.9 6.5 21 0 0 2.3-.2 2.9-.2 1.7-.1 2.9-.1 2.7 2-.2 1.8-.4 2.9-1.5 3.1-1.6.2-2.8.3-3.2.4 0 .1 2.7 12.7 2.9 14 .1.9.3 1.8.2 2.7-.1.8-.4 1.4-.9 2.1-.6.7-1 1.4-1.9.9-.6-.3-1.4-.6-1.9-1.1-.5-.5-.7-1.2-1-1.8-.4-.9-2.7-12.3-3-14-.1-.7-.5-2-.5-2-1.3 0-2.7.2-4 .3-1 .1-3 .2-3.5.4-.5.3-.7 2.6-.8 3.1-.9 4.8-1 9.8-1.2 14.7 0 .6.1 1.6-.7 1.7-.8.2-2.4-1.1-3-1.6-.6-.5-1.5-1.7-1.7-2.9-.9-4.3.2-8.4 1.1-12.6 1.5-7.2 3.5-14.4 5.7-21.4.7-2.3 1.5-4.7 2.4-7 .3-.8.5-1.5.9-2.3.3-.6.8-1.2 1.5-1.1.3 0 .5.1.8.3.1-.1.4 0 .6.2"/><path d="M41.8 11.3c-2-2.5-4.6-4.4-7.3-6.1C28.7 1.6 24.1.1 15.7.5c-1.5.1-3.6.5-4.7.9-.6.2-.9.7-.9 1.1-.1.5-.2 1-.2 1.5 0 1.6-.1 3.8 1.7 4.4.7.3 1.8-.5 2.1.6.1.2.1.5.2.7.5 1.9.9 3.8 1.3 5.8.4 1.9.6 3.9.8 5.9.2 2.1.2 4.3.3 6.4v7.3c0 1.3-.1 2.7-.1 4-.2 1.7-.2 3.3-.4 4.9 0 .1-.1.8-.1.8-2.7 1.2-6.9-1.9-7.2 3 0 .4.4 4.2 1.3 5.2.7.9 2.2 1.1 3.9 1.2 1.1 0 2.1.1 3.2.1 1.8 0 3.6-.2 5.4-.6 1.7-.4 3.4-1 5-1.7 1.5-.6 2.9-1.4 4.3-2.2 1.4-.8 2.7-1.8 4-2.8 3.4-2.6 6.7-5.8 8.7-9.7 1.2-2.3 1.8-5.3 2.2-7.8.8-6.3-.6-13.2-4.7-18.2m-11 30.3c-1.2.7-2.5 1.3-3.8 1.8-.7.3-4.2 1.8-4-.3.3-3 .7-6.9.7-9.9.1-4.8-.1-9.5-.6-14.3-.1-1.3-.3-2.7-.5-4-.3-1.9-.7-4-1.1-5.6-.3-1.8 2.5-1.2 3.5-1 2.1.5 4.4 1.5 6.3 2.7 3.8 2.4 7 6 7.9 10.5 1.3 6.5-.2 13.8-5.5 18.1-.9.8-1.9 1.4-2.9 2"/></svg>