<svg width="286" height="51" viewBox="0 0 286 51" xmlns="http://www.w3.org/2000/svg"><g fill="#0075C1" fill-rule="evenodd"><path d="M122.038 9.537c-7.98 0-14.45 6.47-14.45 14.45 0 7.98 6.47 14.45 14.45 14.45h18.455v-28.9h-18.455zM126.615 34c-5.53 0-10.015-4.482-10.015-10.013 0-5.53 4.485-10.015 10.015-10.015h5.15v20.03h-5.15zM24.24.095v9.442h-9.728c-7.98 0-14.45 6.47-14.45 14.45 0 7.98 6.47 14.45 14.45 14.45h18.456V.094H24.24zM19.09 34C13.56 34 9.075 29.52 9.075 23.988c0-5.53 4.484-10.015 10.015-10.015h5.15v20.03h-5.15zM173.954 14.015h-8.584v23.892h-5.183v2.835h8.727V16.85h8.583c.918 0 1.71.088 2.41.25-.942-2.084-2.734-3.085-5.953-3.085M193.092 26.148c0-8.03-2.46-11.525-5.895-12.914 1.455 2.078 2.352 5.252 2.352 10.08v14.593h-5.185v2.835h8.728V26.148M219.05 37.908c-2.66 0-5.146-.7-7.287-1.913 2.648 2.927 6.513 4.748 10.832 4.748h3.994c.663-.77 1.164-1.704 1.482-2.835h-9.02"/><path d="M237.507 12.416V32.47c0 11.732-6.115 15.596-14.45 15.596h-11.335V50.9H226.6c8.335 0 14.45-3.863 14.45-15.594v-22.89h-3.543M213.615 23.745c0 3.443 1.738 6.368 4.384 8.086-.977-1.498-1.55-3.287-1.55-5.25 0-5.53 4.483-9.73 10.015-9.73h2.028v-2.834h-4.863c-5.532 0-10.015 4.198-10.015 9.73M268.633 9.537c-9.087 0-16.453 6.47-16.453 14.45 0 7.98 7.366 14.45 16.453 14.45 9.086 0 16.45-6.47 16.45-14.45 0-7.98-7.364-14.45-16.45-14.45zm0 24.035c-4.11 0-7.44-4.292-7.44-9.585 0-5.294 3.33-9.586 7.44-9.586 4.108 0 7.44 4.293 7.44 9.587 0 5.293-3.332 9.585-7.44 9.585zM84.737 10.11V24.7c0 6.366-1.337 9.3-6.868 9.3h-2.352V10.108H66.79V34h-2.35c-5.53 0-6.868-2.932-6.868-9.298V10.11h-8.727V24.7c0 11.564 5.097 13.734 10.874 13.734h22.87c5.777 0 10.874-2.17 10.874-13.733V10.11h-8.727"/></g></svg>