<svg xmlns="http://www.w3.org/2000/svg" width="144" height="39" viewBox="0 0 144 39"><path fill="#00A0DC" d="M-.004 9.5v19.003l16.245 9.504 16.246-9.504V9.5L16.24-.01-.003 9.5zm55.776 12.262h5.2v7.41c-1.688.91-4.158 1.438-6.83 1.44-6.234 0-10.94-4.89-10.94-11.374 0-5.9 4.217-11.412 10.31-11.412 2.267 0 5.516.53 8.103 3.06l3.123-3.373c-1.998-2.1-5.917-4.346-10.928-4.346-10.064 0-15.267 8.33-15.267 16.073 0 6.772 4.286 15.595 15.68 15.595 6.932 0 11.165-2.795 11.165-2.795V17.533h-9.616v4.23zm35.796-8.836c-.06-2.643-.93-8.605-9.52-8.605h-11.1v29.815h4.423V21.773h4.867l8.85 12.36h5.536S85.118 21.6 84.658 20.98c4.025-.654 7-4.228 6.91-8.052zM75.372 17.53V8.323h5.572c2.78 0 5.95.8 5.95 4.602 0 3.09-1.835 4.604-5.95 4.605h-5.572zm22.442 16.605h19.806v-4.252h-15.39c0-.473.002-8.35 0-8.824h11.666v-4.243H102.23V8.562h15.39v-4.24H97.814v29.813zm45.19-25.573v-4.24H123.19v29.813h19.813v-4.252h-15.39c0-.473.002-8.35 0-8.824h11.667v-4.243h-11.667V8.562h15.39z"/></svg>