<svg xmlns="http://www.w3.org/2000/svg" viewBox="0 0 580 400"><g fill="#4C566C"><path d="M0 357.9h9.3V375L25 357.9h11.5L20 376.3c1.4 2 4.1 5.7 7.9 11.1 3.9 5.4 6.7 9.5 8.6 12.1H25.7l-12.2-16.4-4.2 4.6v11.8H0v-41.6zM72 399.6l-3.9-9H50.6l-3.9 9h-9.9l18-41.6h9l18 41.6H72zm-12.6-29.3l-5.2 12.1h10.4l-5.2-12.1zM86.7 357.9H96v41.6h-9.3v-41.6zM103.9 399.6v-6.4l21.8-27.2h-21.1v-8h33.8v6.4l-21.7 27.1h22.1v8.1h-34.9zM176.9 357.9v8.3h-20.7v8.6h18.7v7.9h-18.7v8.6h21.4v8.2h-30.7v-41.6h30zM214.9 357.9h9.3v41.6h-9.3l-19.8-26.1v26.1h-9.3v-41.6h8.7l20.4 26.8v-26.8zM279.6 361.6c2.9 2.4 4.3 6.2 4.3 11.2 0 5-1.5 8.7-4.4 11.1-3 2.3-7.5 3.5-13.6 3.5h-7.4v12.2h-7V358h14.3c6.3-.1 10.9 1.1 13.8 3.6zm-5 17.2c1.4-1.5 2.1-3.7 2.1-6.6 0-2.9-.9-4.9-2.7-6.1-1.8-1.2-4.6-1.8-8.4-1.8h-7.2V381h8.2c3.9 0 6.6-.8 8-2.2zM292.2 399.6V358h7v35h19v6.7h-26zM331.8 390.1l-4.2 9.5h-7.5l18.3-41.6h7.5l18.4 41.6h-7.5l-4.2-9.5h-20.8zm18-6.5l-7.6-17.2-7.6 17.2h15.2zM382.6 364.4v35.2h-7v-35.2H363V358h32.3v6.4h-12.7zM409.9 364.5v11.4h18.5v6.5h-18.5v17.2h-7V358h27.8l-.1 6.6h-20.7zM473.7 393.8c-4.2 4.1-9.4 6.2-15.6 6.2-6.2 0-11.4-2.1-15.6-6.2-4.2-4.1-6.3-9.2-6.3-15.4 0-6.1 2.1-11.3 6.3-15.4 4.2-4.1 9.4-6.2 15.6-6.2 6.2 0 11.4 2.1 15.6 6.2 4.2 4.1 6.3 9.2 6.3 15.4 0 6.2-2.1 11.3-6.3 15.4zm-5.1-26c-2.8-2.9-6.3-4.4-10.5-4.4-4.1 0-7.6 1.5-10.5 4.4-2.8 2.9-4.3 6.5-4.3 10.7 0 4.2 1.4 7.8 4.3 10.7 2.8 2.9 6.3 4.4 10.5 4.4 4.1 0 7.6-1.5 10.5-4.4 2.8-2.9 4.3-6.5 4.3-10.7-.1-4.2-1.5-7.8-4.3-10.7zM522.2 371.5c0 6.9-3 11.2-9 13l10.9 15.1h-8.9l-10-14H496v14h-7V358h15.5c6.4 0 10.9 1.1 13.6 3.2 2.7 2.1 4.1 5.5 4.1 10.3zm-9.4 5.9c1.4-1.2 2.1-3.2 2.1-5.9s-.7-4.6-2.2-5.6c-1.5-1-4.1-1.5-7.9-1.5h-8.9v14.9h8.8c4-.1 6.7-.7 8.1-1.9zM539.3 399.6h-7V358h11l12.6 26.2 12.6-26.2h10.9v41.6h-7V367l-14.5 28.9H554L539.3 367v32.6z"/></g><path fill="#4C566C" d="M158.5 210.3h262.9v52.6H158.5z"/><path fill="#88E18E" d="M395.1 0h-52.5v26.3h34.6L257.5 146.1l-99-99v37.2l99 99 18.6-18.6 119-119.1v33.3h26.3V0"/></svg>