<svg width="207" height="30" viewBox="0 0 207 30" xmlns="http://www.w3.org/2000/svg"><title>logo</title><g fill="none" fill-rule="evenodd"><g fill="#4C566C"><path d="M39.51 17.976h2.665v4.887l4.507-4.888h3.296L45.23 23.24c.41.567 1.167 1.627 2.272 3.177 1.103 1.55 1.928 2.705 2.475 3.466H46.87l-3.5-4.7-1.196 1.33v3.37H39.51V17.977zM60.136 29.88l-1.11-2.57h-5.002l-1.11 2.57H50.08l5.156-11.904h2.58L62.97 29.88h-2.834zm-3.602-8.362l-1.503 3.457h2.99l-1.486-3.457zM64.354 17.976h2.663V29.88h-2.663V17.977zM69.27 29.88v-1.82l6.25-7.785h-6.045v-2.3h9.68v1.84l-6.232 7.75h6.335v2.316H69.27zM90.186 17.976v2.367h-5.942v2.45h5.344v2.268h-5.344v2.47h6.13v2.35H81.58V17.974h8.606zM101.095 17.976h2.663V29.88h-2.663l-5.685-7.46v7.46h-2.664V17.977h2.494l5.855 7.664v-7.665zM119.62 19.014c.83.693 1.246 1.76 1.246 3.202s-.424 2.498-1.272 3.167c-.848.67-2.15 1.006-3.9 1.006h-2.118v3.49h-2.015V17.975h4.1c1.81 0 3.13.347 3.96 1.04zm-1.426 4.913c.405-.426.606-1.05.606-1.873s-.257-1.406-.768-1.746c-.512-.34-1.315-.51-2.408-.51h-2.048v4.77h2.34c1.114 0 1.875-.215 2.278-.64zM123.24 29.88V17.977h2.015v9.998h5.446v1.906h-7.46zM134.593 27.173l-1.195 2.708h-2.152l5.26-11.904h2.15l5.26 11.905h-2.152l-1.196-2.707h-5.975zm5.157-1.856l-2.17-4.906-2.167 4.907h4.337zM149.14 19.816V29.88h-2.014V19.817h-3.62v-1.84h9.254v1.84h-3.62zM156.96 19.85v3.27h5.293v1.855h-5.293v4.906h-2.016V17.977h7.957l-.016 1.874h-5.924zM175.245 28.238C174.04 29.413 172.548 30 170.772 30c-1.776 0-3.267-.587-4.473-1.762-1.208-1.176-1.81-2.64-1.81-4.395 0-1.755.602-3.22 1.81-4.393 1.205-1.176 2.696-1.763 4.472-1.763 1.776 0 3.268.587 4.473 1.762 1.207 1.175 1.81 2.64 1.81 4.393 0 1.755-.603 3.22-1.81 4.395zm-1.477-7.453c-.814-.84-1.813-1.26-2.997-1.26-1.183 0-2.18.42-2.996 1.26-.813.84-1.22 1.86-1.22 3.058 0 1.197.406 2.217 1.22 3.057.814.84 1.812 1.26 2.997 1.26 1.184 0 2.184-.42 2.998-1.26.814-.84 1.22-1.86 1.22-3.057 0-1.198-.406-2.216-1.22-3.058zM189.126 21.842c0 1.965-.86 3.202-2.58 3.713l3.125 4.326h-2.56l-2.85-4.002h-2.646v4.003H179.6V17.977h4.437c1.822 0 3.125.305 3.91.92.787.612 1.18 1.595 1.18 2.946zm-2.68 1.687c.41-.354.615-.918.615-1.697 0-.778-.21-1.31-.632-1.6-.42-.29-1.172-.435-2.254-.435h-2.56v4.26h2.51c1.138-.002 1.912-.178 2.322-.53zM194.044 29.88h-2.015V17.977h3.14l3.603 7.476 3.603-7.477h3.124V29.88h-2.015v-9.3l-4.166 8.26h-1.128l-4.15-8.26.002 9.3z"/></g><path fill="#4C566C" d="M.5 24h29.954v5.976H.5z"/><path d="M27.56 0h-5.992v2.988h3.952L11.873 16.602l1.172 1.17L.6 5.357v4.226l11.277 11.248 2.118-2.113-.004-.005L27.56 5.18v3.784h2.995V0H27.56z" fill="#88E18E"/></g></svg>