<svg width="113" height="25" viewBox="0 0 113 25" xmlns="http://www.w3.org/2000/svg"><g fill="none" fill-rule="evenodd"><path d="M47.424 5.27v14.326h-2.487V8.366h-.04l-4.446 11.23h-1.647l-4.555-11.23h-.03v11.23H31.92V5.27h3.566l4.116 10.62h.06l4.346-10.62h3.416zm2.08 1.09c0-.4.146-.735.435-1.005.29-.27.634-.405 1.033-.405.426 0 .78.14 1.06.415.28.276.42.608.42.994 0 .392-.144.722-.43.988-.287.266-.637.4-1.05.4-.413 0-.76-.135-1.044-.405-.284-.27-.425-.598-.425-.984zm.25 2.966h2.417v10.27h-2.416V9.326zm9.75 8.51c.36 0 .756-.082 1.19-.248.432-.167.832-.387 1.198-.66v2.248c-.386.22-.824.386-1.313.5-.49.113-1.03.17-1.615.17-1.512 0-2.74-.478-3.686-1.434-.947-.956-1.42-2.176-1.42-3.66 0-1.653.483-3.013 1.45-4.083.965-1.07 2.333-1.604 4.105-1.604.453 0 .91.06 1.373.175.463.118.83.252 1.104.406v2.317c-.373-.273-.754-.484-1.144-.634-.39-.15-.787-.226-1.193-.226-.953 0-1.722.31-2.308.93-.586.618-.88 1.454-.88 2.507 0 1.04.282 1.85.845 2.428.563.58 1.327.87 2.293.87zm9.27-8.68c.194 0 .368.014.52.04.154.027.284.06.39.1v2.447c-.126-.093-.31-.18-.554-.264-.243-.084-.538-.126-.884-.126-.593 0-1.094.25-1.504.75-.41.5-.614 1.268-.614 2.307v5.186H63.71V9.326h2.418v1.618h.04c.22-.56.553-.997 1-1.313.445-.316.98-.474 1.607-.474zm1.04 5.455c0-1.698.48-3.043 1.44-4.035.96-.993 2.29-1.49 3.996-1.49 1.605 0 2.86.48 3.76 1.435.903.956 1.355 2.246 1.355 3.87 0 1.666-.48 2.99-1.44 3.977-.958.986-2.263 1.478-3.915 1.478-1.592 0-2.855-.467-3.79-1.403-.937-.936-1.405-2.213-1.405-3.83zm2.52-.08c0 1.073.242 1.892.728 2.458.486.566 1.182.85 2.088.85.88 0 1.548-.284 2.008-.85.46-.566.69-1.405.69-2.517 0-1.105-.24-1.94-.715-2.502-.476-.563-1.144-.844-2.003-.844-.886 0-1.573.295-2.063.884-.49.59-.734 1.43-.734 2.523zm11.627-2.507c0 .347.11.618.33.815.22.196.706.444 1.46.744.965.386 1.643.82 2.032 1.303.39.483.584 1.068.584 1.754 0 .964-.37 1.74-1.113 2.326-.743.586-1.747.88-3.012.88-.426 0-.897-.052-1.413-.156-.516-.103-.954-.234-1.314-.394v-2.378c.44.307.913.55 1.42.73.505.18.965.27 1.378.27.547 0 .95-.077 1.21-.23.26-.154.39-.41.39-.77 0-.333-.136-.614-.405-.844-.27-.23-.782-.494-1.534-.794-.892-.373-1.524-.793-1.897-1.26-.373-.465-.56-1.058-.56-1.777 0-.926.368-1.687 1.104-2.283.736-.596 1.69-.894 2.863-.894.36 0 .762.04 1.208.12.446.08.82.183 1.12.31v2.297c-.32-.213-.694-.396-1.12-.55-.426-.152-.85-.23-1.268-.23-.46 0-.818.09-1.074.27-.257.18-.385.427-.385.74zm5.445 2.588c0-1.698.48-3.043 1.44-4.035.958-.993 2.29-1.49 3.995-1.49 1.605 0 2.86.48 3.76 1.435.903.956 1.355 2.246 1.355 3.87 0 1.666-.48 2.99-1.44 3.977-.958.986-2.263 1.478-3.915 1.478-1.592 0-2.856-.467-3.79-1.403-.937-.936-1.405-2.213-1.405-3.83zm2.518-.08c0 1.073.243 1.892.73 2.458.485.566 1.18.85 2.087.85.88 0 1.548-.284 2.008-.85.46-.566.69-1.405.69-2.517 0-1.105-.24-1.94-.715-2.502-.476-.563-1.144-.844-2.003-.844-.886 0-1.574.295-2.063.884-.49.59-.734 1.43-.734 2.523zm16.052-3.226h-3.6v8.292h-2.448v-8.292h-1.718V9.326h1.717v-1.43c0-1.078.35-1.962 1.054-2.65.704-.69 1.604-1.035 2.703-1.035.293 0 .553.016.78.046.226.03.426.075.6.135v2.09c-.08-.048-.22-.104-.42-.17-.2-.068-.43-.1-.69-.1-.506 0-.896.157-1.17.474-.272.316-.408.784-.408 1.403v1.24h3.6v-2.31l2.428-.738v3.046h2.447v1.978h-2.447v4.805c0 .632.115 1.078.344 1.338.23.26.59.39 1.084.39.14 0 .31-.034.506-.1.196-.067.368-.147.514-.24v1.998c-.153.086-.408.166-.764.24-.356.073-.708.11-1.054.11-1.02 0-1.783-.272-2.292-.815-.51-.542-.765-1.36-.765-2.45v-5.276z" fill="#6D6E6C"/><path d="M.882.495H12.23v11.347H.88V.495z" fill="#E15D29"/><path d="M13.41.495h11.347v11.347H13.41V.495z" fill="#84BF41"/><path d="M.882 13.023H12.23V24.37H.88V13.023z" fill="#00A3DB"/><path d="M13.41 13.023h11.347V24.37H13.41V13.023z" fill="#F6BC25"/></g></svg>