<svg xmlns="http://www.w3.org/2000/svg" width="256" height="75.69" viewBox="0 0 256 75.69"><path fill="#E5531D" d="M68.25 38c-.62-10.99-6.12-16.48-13.55-12.58 2.51-8.89-7.28-17.77-15.05-17.28 10.41 5.43-1.76 12.34-7.03 6.66-3.8-4.08-3.79-11.9 13.05-14.8-17.91.35-27.61 9.13-26.55 19.1 1.24 11.68-11.64 6.33-3.22-3.65-6.62 2.7-22.17 19.34-5.86 36.13C6.52 49.6 2.26 46.89 0 40.47c3.51 33.81 35.56 26.37 28.88 35.22 0 0 40.12-12.51 33.34-33-3.48-10.55 1.01-12.34 6.03-4.69M34.12 65.18c-7.47 0-13.53-6.06-13.53-13.53 0-9.54 4.13-20.28 7.72-20.67 2.43-.26 5.02-1.66 6.22-4.24 2.88-6.25 13.13 8.83 13.13 24.91 0 7.47-6.06 13.53-13.54 13.53"/><path fill="#2C2E2D" d="M120.89 23.36l-11.88 6.68 7.53 11.86 13-5.78-8.65-12.76zm-3.98 8.29l3.78-1.35-.72 5.94-3.06-4.59zM89.91 25.73l12.53.86-3.21 41.05-24.35-1.07M103.78 34.27l2.04 31.85 18.46-7.22-15.69-24.63M130.58 35.4l36.78-9.87 1.59 17.19-16.24-1.11.32 10.27 15.28-1.67 2.39 13.93-45.7 2.71 3.82-15.31 9.72 2.09 2.38-9.79-11.62 4.46M172.14 26.77l2.38 27.76 12.83-2.39-1.49-29.84"/><path fill="#2C2E2D" d="M192.13 24.38l-.6 29.25-11.64 12.54 22.09-.3 6.86-10.45 3.59-32.23M214.81 24.38l-.59 18.21 25.96-4.78-2.39 7.17-2.98-4.78-14.03 5.08 6.86 10.44-12.53 10.15L236 67.36l8.36-11.04-2.99-5.37 11.94-3.88L256 26.18"/></svg>