<svg xmlns="http://www.w3.org/2000/svg" width="340" height="80" viewBox="0 0 340 80"><defs><style>path{fill:#040000;stroke:none;}</style></defs><path d="M1.3 15.9c.5-.1.8-.1.9-.1.9 0 2.4.1 4.6.2h2.3c.6 0 1.9-.1 3.8-.2l6.9-.4c1.8-.2 3.9-.2 6.3-.2 4.3 0 7.6.6 10.2 1.8 2.5 1.2 4.5 3.1 5.8 5.7 1.4 2.6 2.1 5.1 2.1 7.7 0 4.2-1.5 7.9-4.5 11-3 3.1-7 4.6-12 4.6-1.4 0-2.6-.1-3.5-.4-.9-.3-2-.8-3.3-1.6-.5-.4-.8-.7-.9-1.1.1-.2.3-.3.4-.4.4 0 .8.1 1.2.2.9.3 2.1.5 3.5.5 2.1 0 4.2-.5 6.1-1.6 1.9-1.1 3.4-2.6 4.3-4.5 1-1.9 1.5-4 1.5-6.2 0-2.1-.5-4.2-1.5-6.1-1-2-2.4-3.6-4.1-4.8-.9-.7-2.4-1.2-4.4-1.7-2-.5-3.5-.7-4.6-.7-3.4 0-5.3.2-6 .7v.6l.1 4.6v.8c-.1.7-.1 1.9-.1 3.4 0 5.5.1 9 .2 10.3v2.3l.5 18.6c0 .3 0 .8-.1 1.5s-.1 1.4-.1 1.9c0 1.3.1 2.3.3 3 .7.2 2.5.6 5.7 1.3 1.5.4 2.3.6 2.4.6.2.1.4.3.6.5-.1.4-.3.7-.4.8-.2.1-.5.2-1 .2-.3 0-1.1-.1-2.3-.2-2.4-.4-4.2-.5-5.5-.5l-7.2.3-4.3-.1c-.3 0-1.1 0-2.4.1v-1.1l5.3-1c.9-.2 1.4-.5 1.6-.7.3-.4.4-1.1.4-2.2v-1.6-2.4c0-3.2-.1-10-.4-20.4 0-5-.1-9.9-.1-14.9v-.7c0-1.9-.3-3.2-.9-3.7-1-.9-3.5-1.6-7.5-2.2-.1-.3-.2-.6-.2-.8 0-.2.1-.4.3-.7M49.4 45.4v-1.3c1.9-.6 2.9-.9 3.1-1 1-.5 2.1-1.2 3.3-2.1 1.1-1 2.1-2 2.9-3.2.4-.1.6-.1.8-.1h.5c.1 1.4.2 2.4.2 3.1 0 .1 0 .8-.1 2V57.7L60 70.9c0 1.1.1 1.8.5 2.2.4.4 1.5.9 3.4 1.4 1.2.3 2 .6 2.6.8.1.2.1.4.1.5 0 .2-.1.4-.2.7-1.1 0-2.6-.1-4.4-.2-2.4-.2-4-.3-4.8-.3-.4 0-2.7.1-7 .2-.9 0-1.7.1-2.5.2-.1 0-.4 0-.7-.1-.1-.2-.2-.4-.2-.5 0-.4.3-.7.8-1 .1-.1 1.6-.4 4.4-1 .9-.2 1.5-.5 1.8-.9.5-.6.7-1.6.7-2.9.1-2.2.1-8.4.1-18.4 0-2-.1-3.3-.3-3.7-.1-.3-.5-.7-1.2-1.2-.3-.4-1.7-.8-3.7-1.3m3.7-22.6c0-1 .4-1.8 1.1-2.5.7-.7 1.6-1 2.7-1s2 .4 2.8 1.2c.8.8 1.2 1.6 1.2 2.5 0 .9-.6 3.6-1.4 4.4-.8.8-1.6-.6-2.7-.6s-2-.4-2.7-1.1c-.7-.8-1-1.8-1-2.9M66.3 36.2c-.1-.4-.1-.7-.1-1v-.6l1.5-.3 1.6-.1c2.5 0 4.1-.1 4.7-.1 2-.1 4-.2 6.1-.4 1.3-.1 2.1-.1 2.4-.2l1-.1c.2.4.3.7.4.9 0 .1 0 .4-.1.6l-.8.3c-2.1.3-3.4.7-3.9 1-.2.2-.3.4-.3.6 0 .5.4 1.1 1.2 2 3.6 4.2 6.1 7 7.3 8.2 2.6-3.8 4.1-6.2 4.6-7.3.5-1.1.7-1.9.7-2.5 0-.7-.3-1.2-.9-1.6-.5-.4-1.8-.7-3.9-.9-.3-.3-.4-.6-.4-.9l.1-.4 1.1-.1h1.5c1.3 0 2.5 0 3.8-.1.6 0 1.7-.1 3.3-.2 1.6-.1 2.8-.2 3.6-.3l2-.1c.4.2.6.4.6.7 0 .1 0 .3-.1.6-.5.1-1 .3-1.7.4-1.6.3-3.1 1-4.5 2-1.1.6-2.1 1.7-3.1 3.3l-5.7 8.7 6.7 7.6c3.1 3.8 5 6 5.7 6.6.7.7 1.4 1.2 2.2 1.6.8.4 1.9.7 3.4 1 0 .3.1.7.1.9 0 .2 0 .5-.1.8-.5 0-3.2.1-8 .2-.3 0-1.7.1-4.2.3-.8.1-1.5.1-2.3.2-.7 0-1.5.1-2.5 0l.1-1.3c.4-.1.9-.2 1.4-.4 1.5-.4 2.5-.8 3.1-1.3.4-.3.5-.7.5-1.1 0-.6-2.1-3.2-6.3-7.7l-2.7-2.9c-1.2 1.3-2.4 3.1-3.8 5.4-.8 1.4-1.4 2.4-1.9 3-.9 1.2-1.4 2.2-1.3 3 0 .3.2.5.6.8s1.4.5 3.1.8c1.1.2 2 .3 2.4.4.1.4.2.7.2.9v.9c-2.2 0-4.4.1-6.5.2-2.7.1-4.6.3-5.8.4-1.2.1-1.9.2-2.2.2h-1.7c-.1-.4-.2-.7-.2-.9l.1-.6c.4-.2.9-.4 1.5-.5 1.9-.3 3.6-1.1 5.1-2.4 1.4-1.3 4.6-5.7 9.4-13l-13-13.8c-.2-.2-.4-.3-.7-.5-.5-.2-1.1-.4-1.9-.5-1.2-.2-2-.3-2.5-.4M138.7 48.7l-17.5.1h-3.3c-1.3 0-2.7.1-4.1.2-.3.9-.4 1.5-.4 1.8V53.7c0 1.8.6 3.9 1.7 6.5s2.7 4.5 4.8 5.9c2.1 1.4 4.7 2.1 7.8 2.2 1.7-.1 3-.3 4-.6s2.4-1.1 4.2-2.2l3.1-2.6.3 1.7v.7c-1.3 1.7-3 3.1-5 4.4-2 1.3-4 2.2-6.1 2.7-1 .3-2.6.4-4.9.4-2.1 0-4.1-.4-6.1-1.3-3-1.3-5.3-3.3-7-6.2-1.7-2.8-2.6-6.3-2.6-10.3 0-1.3.2-2.9.7-4.9.5-2 1.3-4.1 2.6-6.4.8-1.5 1.9-2.8 3.1-3.8 1.7-1.4 3.3-2.4 4.6-2.9 1.9-.8 4.1-1.2 6.6-1.2 2.7 0 4.9.5 6.6 1.5 2.3 1.3 4.1 3 5.2 5.1 1.1 2.1 1.7 4 1.7 5.7v.6m-24.4-1.5h2.1c1.5 0 5.9-.2 13.3-.7 1.2-.1 1.9-.2 2.1-.3.5-.6.8-1 .8-1.5 0-.9-.3-1.9-.9-3.1-.6-1.1-1.5-2-2.7-2.7-1.2-.6-2.6-.9-4.2-.9-3.4 0-6.1 1.3-8.1 3.8-1.6 1.9-2.4 3.7-2.4 5.4M141.8 17.7v-1c.8-.3 1.7-.5 2.7-.8 1.5-.5 3.6-1.2 6.5-2.1h2.1v2.4c0 23.9-.1 38.1-.2 42.7-.1 2.7-.1 4.1-.1 4.3 0 3.3.1 5.1.4 5.5.3.5 1.4.9 3.2 1.1 1.8.2 2.8.4 3.2.6.2.1.3.3.3.6s-.1.5-.2.7c-.1.1-.4.2-.7.2-.2 0-1.7 0-4.6-.1l-5.7-.2-7.3.3c-.5 0-.8-.1-1-.3-.2-.1-.3-.4-.3-.6 0-.3.1-.5.3-.6.2-.1 1.2-.4 3.1-.7 1.9-.3 3-.6 3.3-.8.3-.2.5-.7.5-1.5.1-1 .2-4 .2-8.9v-10l.1-10.4V27.7l.1-5.1c0-1-.2-1.8-.5-2.2-.3-.5-1-.9-2-1.3-1.7-.6-2.8-1.1-3.4-1.4M219.8 25.9l.4 6.1c.2 1.9.2 3.1.2 3.8l-1.1.2c-1.8-4.1-4-7.1-6.7-9.2-2.7-2-5.9-3.1-9.8-3.1-4.7 0-8.4.6-11 1.7-3.8 1.6-7.1 4.5-9.8 8.5-2.7 4.1-4.1 8.9-4.1 14.6 0 3.3.5 6.3 1.5 8.9 1 2.6 2.4 5.1 4.2 7.3 1.8 2.3 4 4.2 6.4 5.9 1.6 1.1 3.5 1.9 5.8 2.5 1.3.3 3.1.4 5.6.4 1.6 0 3.4-.2 5.4-.7 2-.5 3.4-1.1 4.4-1.8 1-.8 1.7-1.6 2-2.6.4-1 .5-2.8.5-5.6 0-4.6-.3-7.3-.9-8.1-.6-.8-2.6-1.3-5.8-1.5l-1.6-.1h-1.1c-.2 0-.4-.1-.6-.1l-.6-1c0-.1.1-.3.3-.5 1.4-.2 4.4-.3 9.1-.3 1 0 2.7 0 5.1.1l4.1.2h3.7c.7 0 1.6 0 2.6.1.2 0 .3.1.4.1.1.1.1.2.1.3 0 .3-.1.7-.2 1.1-1.1.2-2 .4-2.6.4h-2.6c-.9 0-1.6.3-2.1.9-.3.3-.4 1.3-.4 3v5.3c0 3.6-.1 5.9-.4 6.9-.2.6-.5 1.1-1 1.6s-1.6 1-3.2 1.7c-2.3.9-4.5 1.6-6.4 1.9-3.5.6-7 .9-10.3.9-5.3 0-9.7-.7-13.1-2-3.4-1.4-6.3-3.2-8.8-5.7-2.5-2.4-4.2-4.9-5.2-7.3-1.6-3.6-2.4-7.3-2.4-11.1 0-4.7 1.2-9.3 3.7-13.8s6.5-8.1 12-11c3.9-2 9.2-3 15.8-3 4.6 0 8.4.4 11.3 1.2 3.2.9 5.5 1.8 7.2 2.9M230.1 65.1l-.1-.6c0-.2.2-.5.5-.9l2.6-.3 3.7-.3c.3-.1.5-.3.7-.6.2-.4.4-1.5.6-3.3.9-9.8 1.3-15.5 1.3-17s-.2-2.5-.5-3c-.4-.4-1.4-.8-3-1.2-1-.2-1.7-.5-2.3-.8l.3-1.3c3.2-1 5.3-1.9 6.4-2.7 1.6-1.2 2.9-2.8 4.1-4.8l1.5.2c0 1.5-.1 4.7-.6 9.7l-.1.7v.8c1.3-1.9 2.8-3.6 4.6-5.2l1.1-.9c.4-.4.9-.8 1.3-1 2.1-1 3.7-1.5 4.7-1.4 1.3.1 2.3.6 3 1.6.7.9 1 2 .9 3.3-.1 1-.4 1.7-1.1 2.2-.8.7-1.8.9-2.8.8-.5 0-1.4-.4-2.7-1-1.3-.6-2.2-.9-2.6-1-.8-.1-1.4 0-1.7.2-.9.6-2 1.8-3.3 3.7-1 1.4-1.6 2.7-1.7 4l-.4 7.2-.7 8.6c0 1 .1 1.6.2 1.9.1.2.4.5.8.8 3.1.5 4.9.9 5.5 1.1.4.1.7.1.9.2 1.2.1 2.1.4 2.6.8.2.2.4.4.3.7 0 .2-.2.4-.4.7-8-1-15.7-1.4-23.6-1.9M264 28.5v-1.3c1.9-.6 2.9-.9 3.1-1 1-.5 2.1-1.2 3.3-2.1 1.2-1 2.1-2 2.9-3.2.3-.1.6-.1.8-.1h.5c.1 1.4.2 2.4.2 3.1 0 .1 0 .8-.1 2V40.8l-.1 13.2c0 1.1.1 1.8.5 2.2s1.5.9 3.4 1.4c1.2.3 2 .6 2.6.8.1.2.1.4.1.5 0 .2-.1.4-.2.7-1.1 0-2.6-.1-4.4-.2-2.4-.2-4-.3-4.8-.3-.4 0-2.7.1-7 .2-.9 0-1.7.1-2.5.2-.1 0-.4 0-.7-.1-.1-.2-.2-.4-.2-.5 0-.4.3-.7.8-1 .1-.1 1.6-.4 4.4-1 .9-.2 1.5-.5 1.8-.9.5-.6.7-1.6.7-2.9.1-2.2.1-8.4.1-18.4 0-2-.1-3.3-.3-3.7-.1-.3-.5-.7-1.2-1.2-.3-.4-1.7-.9-3.7-1.3m3.7-22.7c0-1 .4-1.8 1.1-2.5.7-.7 1.6-1 2.7-1s2 .4 2.8 1.2c.8.8 1.2 1.6 1.2 2.5 0 .9 0 4.7-.8 5.5-.8.8-2.2-1.7-3.3-1.7s-2-.4-2.7-1.1c-.7-.8-1-1.7-1-2.9M313.2 42.1V26.6c0-2.6-.3-4.2-.8-5-.6-.7-2.2-1.4-5-2.2-.2-.1-.5-.1-.9-.3v-.5c0-.3 0-.6.1-.9 3.8-.4 7.1-1.1 9.9-2h2.2c.1 1.9.2 4.1.2 6.4l-.2 16.3.3 18.4-.1 9.8c0 2 .1 3.1.4 3.4.6.6 1.8.9 3.7.9.4 0 .9 0 1.6.1v1.4c-.9.2-1.8.4-2.7.5l-6.1 1.2c-.9.2-1.6.3-2.2.3v-4.1c-.5.1-1.2.4-2.2.8-4.4 1.9-8.5 2.8-12.1 2.8-2.2 0-4.5-.7-6.8-2.2-2.3-1.5-4.1-3.5-5.3-6.1-1.2-2.6-1.9-5.2-1.9-8 0-2.4.4-4.7 1.2-7 .8-2.2 1.9-4.1 3.2-5.5.8-1 2-1.9 3.6-2.9s2.8-1.5 3.9-1.8c2.5-.6 4.2-1 5-1 3.8 0 6.9.6 9.4 1.7.6.6 1.2.8 1.6 1m0 26.1c.1-1.9.2-5.8.2-11.7 0-5-.2-8.1-.7-9.5s-1.6-2.6-3.5-3.7c-1.9-1.2-3.9-1.8-6.2-1.8-3.2 0-6 1.3-8.2 3.8-2.2 2.5-3.4 6.2-3.4 11.1 0 4.3 1.2 7.8 3.6 10.3 2.4 2.6 5.5 3.9 9.1 3.9 2.1 0 4-.3 5.7-.8 1.7-.5 2.9-1.1 3.4-1.6M339 70.8c0 2.2-2.2 5.6-4.4 5.6S331 73 331 70.8s1.8-4 4-4c2.2.1 4 1.8 4 4"/></svg>