<svg id="レイヤー_1" xmlns="http://www.w3.org/2000/svg" viewBox="0 0 640 280"><style>.st0{fill:#119795;} .st1{fill:#FFFFFF;} .st2{fill:#231815;} .st3{fill:url(#SVGID_1_);}</style><path class="st0" d="M579.8 121.8c.6-2.3.8-4.8.8-7.3 0-19.8-18.2-35.8-40.6-35.8-22.4 0-40.6 16.1-40.6 35.8 0 9.3 4 18.1 11.3 24.8-1.9 3.4-4.6 7-7.9 7.7-1.1.3-1.8 1.3-1.6 2.4.2 1 1.1 1.7 2.1 1.7h.3c3.6-.5 12.3-1.8 18.2-4.7 5.6 2.5 11.9 3.8 18.3 3.8 1.7 0 3.4-.1 5.1-.3 1.1 2.4 2.7 4.6 4.7 6.5-1.3 2.1-2.6 3.3-3.8 3.6-1.1.3-1.8 1.3-1.6 2.4.2 1 1.1 1.7 2.1 1.7h.3c2.1-.3 7.1-1 10.8-2.7 3.4 1.4 7.1 2.2 10.9 2.2 13.9 0 25.2-10 25.2-22.3-.3-8.3-5.8-15.8-14-19.5z"/><path class="st0" d="M546.4 164.5c-1 0-1.9-.7-2.1-1.7-.2-1.1.5-2.2 1.6-2.4 1.2-.3 2.6-1.6 3.8-3.6-4.2-4.1-6.5-9.4-6.5-15 0-12.3 11.3-22.3 25.1-22.3 13.9 0 25.2 10 25.2 22.3s-11.3 22.3-25.2 22.3c-3.8 0-7.5-.8-10.9-2.2-3.7 1.7-8.7 2.4-10.8 2.7 0-.1-.1-.1-.2-.1z"/><path class="st1" d="M546.4 162.4c2.3-.3 7.7-1.1 11-2.9 3.3 1.5 7 2.4 11 2.4 12.7 0 23-9 23-20.1 0-11.1-10.3-20.2-23-20.2s-23 9-23 20.2c0 5.7 2.7 10.9 7.1 14.5-1.4 2.5-3.4 5.4-6.1 6.1z"/><path class="st0" d="M503.2 151.3c-1 0-1.9-.7-2.1-1.7-.2-1.1.5-2.2 1.6-2.4 3.3-.8 6-4.4 7.9-7.7-7.3-6.7-11.3-15.4-11.3-24.8 0-19.8 18.2-35.8 40.6-35.8 22.4 0 40.6 16.1 40.6 35.8 0 19.8-18.2 35.8-40.6 35.8-6.4 0-12.7-1.3-18.3-3.8-5.9 2.9-14.6 4.2-18.2 4.7 0-.1-.1-.1-.2-.1z"/><path class="st1" d="M503.2 149.1c3.8-.5 12.9-1.9 18.4-4.9 5.5 2.6 11.7 4.1 18.4 4.1 21.3 0 38.5-15.1 38.5-33.7S561.3 80.9 540 80.9s-38.5 15.1-38.5 33.7c0 9.5 4.5 18.2 11.8 24.3-2.2 4.4-5.6 9.2-10.1 10.2z"/><path class="st2" d="M186.5 201.2c-17.2 0-31.7-12-35.5-28-4.9 2.5-10.4 3.8-16.3 3.8-8 0-15.4-2.6-21.4-7-4.1 4.3-9.8 7-16.2 7H78.9c-17.9 0-32.4-14.5-32.4-32.4v-36.3c0-12.3 10-22.4 22.4-22.4 10.9 0 20 7.8 22 18.2H97c6.4 0 12.1 2.7 16.2 7 6-4.4 13.4-7 21.4-7 10.1 0 19.3 4.1 25.9 10.8 6.6-6.7 15.8-10.8 25.9-10.8 2.7 0 5.3.3 7.9.9 2-.6 4.1-.9 6.2-.9 6.4 0 12.1 2.7 16.2 7 6-4.4 13.4-7 21.4-7 5.5 0 10.7 1.2 15.3 3.4.4-11.9 10.3-21.5 22.3-21.5 10.9 0 20 7.8 22 18.2h6.3c.5 0 1 0 1.6.1 2-10.4 11.1-18.2 22-18.2s20 7.8 22 18.2h6.3c6.4 0 12.1 2.7 16.2 7 6-4.4 13.4-7 21.4-7 9.5 0 18.2 3.7 24.7 9.6 5.9-5.9 14-9.6 23.1-9.6h18.2c12.3 0 22.3 10 22.3 22.3s-10 22.4-22.3 22.4h-5.9v5.9c0 12.3-10 22.3-22.4 22.3-6.4 0-12.1-2.7-16.2-6.9-6 4.4-13.5 6.9-21.5 6.9s-15.4-2.6-21.4-7c-4.1 4.3-9.8 7-16.2 7h-18.2c-6.9 0-13.3-2.2-18.6-5.8-4 3.6-9.3 5.8-15.1 5.8h-18c-9 0-17.1-3.7-23-9.6-6.5 6-15.2 9.6-24.7 9.6-5.9 0-11.4-1.4-16.3-3.8-3.8 15.9-18.3 27.8-35.5 27.8z"/><path class="st1" d="M186.5 195.7c-17 0-30.9-13.8-30.9-30.9 0-.6.1-1.2.2-1.7-5.5 5.2-13 8.4-21.1 8.4-8.8 0-16.8-3.7-22.5-9.7-2.7 5.7-8.5 9.7-15.2 9.7H78.9c-14.8 0-26.8-12-26.8-26.8v-36.3c0-9.2 7.5-16.8 16.8-16.8 9.2 0 16.8 7.5 16.8 16.8v1.4H97c6.7 0 12.5 4 15.2 9.7 5.6-6 13.6-9.7 22.5-9.7 10.8 0 20.4 5.6 25.9 14.1 5.5-8.5 15.1-14.1 25.9-14.1 2.8 0 5.5.4 8.2 1.1 1.9-.7 3.9-1.1 6-1.1 6.7 0 12.5 4 15.2 9.7 5.6-6 13.6-9.7 22.5-9.7 8.1 0 15.4 3.1 20.9 8.2v-9.6c0-9.2 7.5-16.8 16.8-16.8 9.2 0 16.8 7.5 16.8 16.8v1.4h11.5c2.4 0 4.7.5 6.8 1.4v-2.8c0-9.2 7.5-16.8 16.8-16.8 9.2 0 16.8 7.5 16.8 16.8v1.4h11.5c6.7 0 12.5 4 15.2 9.7 5.6-6 13.6-9.7 22.5-9.7 10.2 0 19.3 5 24.9 12.7 4.7-7.6 13.2-12.7 22.8-12.7h18.2c9.2 0 16.8 7.5 16.8 16.8 0 9.2-7.5 16.8-16.8 16.8H448v11.5c0 9.2-7.5 16.8-16.8 16.8-6.7 0-12.5-4-15.2-9.7-5.7 6-13.7 9.7-22.5 9.7S376.7 168 371 162c-2.7 5.7-8.5 9.7-15.2 9.7h-18.2c-7.5 0-14.4-3.1-19.2-8.1-2.9 4.9-8.3 8.1-14.4 8.1h-18c-9.6 0-18-5.1-22.8-12.7-5.6 7.7-14.8 12.7-25 12.7-8.1 0-15.4-3.1-20.9-8.2v1.5c.1 16.8-13.8 30.7-30.8 30.7z"/><linearGradient id="SVGID_1_" gradientUnits="userSpaceOnUse" x1="264.134" y1="188.982" x2="264.134" y2="98.213"><stop offset="0" stop-color="#4BB0A0"/><stop offset="1" stop-color="#81C3BB"/></linearGradient><path class="st3" d="M97 136.5c5.6 0 10.1-4.5 10.1-10.1s-4.5-10.1-10.1-10.1H78.9v-8.1c0-5.6-4.5-10.1-10.1-10.1s-10.1 4.5-10.1 10.1v36.3c0 11.1 9 20.2 20.2 20.2H97c5.6 0 10.1-4.5 10.1-10.1s-4.5-10.1-10.1-10.1H78.9v-8.1H97zm207.1 0c5.6 0 10.1-4.5 10.1-10.1s-4.5-10.1-10.1-10.1H286v-8.1c0-5.6-4.5-10.1-10.1-10.1s-10.1 4.5-10.1 10.1v36.3c0 11.1 9 20.2 20.2 20.2h18.2c5.6 0 10.1-4.5 10.1-10.1s-4.5-10.1-10.1-10.1H286v-8.1h18.1zm51.8 0c5.6 0 10.1-4.5 10.1-10.1s-4.5-10.1-10.1-10.1h-18.2v-8.1c0-5.6-4.5-10.1-10.1-10.1s-10.1 4.5-10.1 10.1v36.3c0 11.1 9 20.2 20.2 20.2h18.2c5.6 0 10.1-4.5 10.1-10.1s-4.5-10.1-10.1-10.1h-18.2v-8.1h18.2zm-221.2-20.1c-13.4 0-24.2 10.8-24.2 24.2 0 13.4 10.8 24.2 24.2 24.2 13.4 0 24.2-10.8 24.2-24.2 0-13.4-10.8-24.2-24.2-24.2zm0 28.2c-2.2 0-4-1.8-4-4s1.8-4 4-4 4 1.8 4 4-1.8 4-4 4zm65.9-28.2c-2 0-3.9.6-5.4 1.6-2.7-1-5.6-1.6-8.7-1.6-13.4 0-24.2 10.8-24.2 24.2 0 13.4 10.8 24.2 24.2 24.2 1.4 0 2.7-.1 4-.3v.3c0 2.2-1.8 4-4 4s-4-1.8-4-4h-20.2c0 13.4 10.8 24.2 24.2 24.2 13.4 0 24.2-10.8 24.2-24.2v-38.3c0-5.6-4.5-10.1-10.1-10.1zm-14.1 28.2c-2.2 0-4-1.8-4-4s1.8-4 4-4 4 1.8 4 4-1.8 4-4 4zm51.7-28.2c-13.4 0-24.2 10.8-24.2 24.2 0 13.4 10.8 24.2 24.2 24.2 12 0 21.9-8.7 23.9-20.2h-20.4c-.7 1.2-2 2-3.5 2-2.2 0-4-1.8-4-4h28.2c.1-.7.1-1.3.1-2 0-13.4-10.9-24.2-24.3-24.2zm-4 18.1c0-2.2 1.8-4 4-4s4 1.8 4 4h-8zm159.4-18.1c-13.4 0-24.2 10.8-24.2 24.2 0 13.4 10.8 24.2 24.2 24.2 12 0 21.9-8.7 23.9-20.2h-20.4c-.7 1.2-2 2-3.5 2-2.2 0-4-1.8-4-4h28.2c.1-.7.1-1.3.1-2-.1-13.4-11-24.2-24.3-24.2zm-4.1 18.1c0-2.2 1.8-4 4-4s4 1.8 4 4h-8zm70-18.1h-18.2c-11.1 0-20.2 9-20.2 20.2v18.2c0 5.6 4.5 10.1 10.1 10.1s10.1-4.5 10.1-10.1v-18.2h18.2c5.6 0 10.1-4.5 10.1-10.1-.1-5.6-4.6-10.1-10.1-10.1z"/></svg>