<?xml version="1.0" encoding="utf-8"?>
<!-- Generator: Adobe Illustrator 19.0.1, SVG Export Plug-In . SVG Version: 6.00 Build 0)  -->
<svg version="1.1" id="レイヤー_1" xmlns="http://www.w3.org/2000/svg" xmlns:xlink="http://www.w3.org/1999/xlink" x="0px"
	 y="0px" viewBox="0 0 640 280" style="enable-background:new 0 0 640 280;" xml:space="preserve">
<style type="text/css">
	.st0{fill:#119795;}
	.st1{fill:#FFFFFF;}
	.st2{fill:#231815;}
	.st3{fill:url(#SVGID_1_);}
</style>
<g>
	<g>
		<g>
			<path class="st0" d="M579.8,121.8c0.6-2.3,0.8-4.8,0.8-7.3c0-19.8-18.2-35.8-40.6-35.8c-22.4,0-40.6,16.1-40.6,35.8
				c0,9.3,4,18.1,11.3,24.8c-1.9,3.4-4.6,7-7.9,7.7c-1.1,0.3-1.8,1.3-1.6,2.4c0.2,1,1.1,1.7,2.1,1.7c0.1,0,0.2,0,0.3,0
				c3.6-0.5,12.3-1.8,18.2-4.7c5.6,2.5,11.9,3.8,18.3,3.8c1.7,0,3.4-0.1,5.1-0.3c1.1,2.4,2.7,4.6,4.7,6.5c-1.3,2.1-2.6,3.3-3.8,3.6
				c-1.1,0.3-1.8,1.3-1.6,2.4c0.2,1,1.1,1.7,2.1,1.7c0.1,0,0.2,0,0.3,0c2.1-0.3,7.1-1,10.8-2.7c3.4,1.4,7.1,2.2,10.9,2.2
				c13.9,0,25.2-10,25.2-22.3C593.5,133,588,125.5,579.8,121.8z"/>
		</g>
	</g>
	<g>
		<path class="st0" d="M546.4,164.5c-1,0-1.9-0.7-2.1-1.7c-0.2-1.1,0.5-2.2,1.6-2.4c1.2-0.3,2.6-1.6,3.8-3.6
			c-4.2-4.1-6.5-9.4-6.5-15c0-12.3,11.3-22.3,25.1-22.3c13.9,0,25.2,10,25.2,22.3c0,12.3-11.3,22.3-25.2,22.3
			c-3.8,0-7.5-0.8-10.9-2.2c-3.7,1.7-8.7,2.4-10.8,2.7C546.6,164.5,546.5,164.5,546.4,164.5L546.4,164.5z"/>
	</g>
	<g>
		<g>
			<g>
				<path class="st1" d="M546.4,162.4c2.3-0.3,7.7-1.1,11-2.9c3.3,1.5,7,2.4,11,2.4c12.7,0,23-9,23-20.1c0-11.1-10.3-20.2-23-20.2
					c-12.7,0-23,9-23,20.2c0,5.7,2.7,10.9,7.1,14.5C551.1,158.8,549.1,161.7,546.4,162.4z"/>
			</g>
		</g>
	</g>
	<g>
		<path class="st0" d="M503.2,151.3c-1,0-1.9-0.7-2.1-1.7c-0.2-1.1,0.5-2.2,1.6-2.4c3.3-0.8,6-4.4,7.9-7.7
			c-7.3-6.7-11.3-15.4-11.3-24.8c0-19.8,18.2-35.8,40.6-35.8c22.4,0,40.6,16.1,40.6,35.8c0,19.8-18.2,35.8-40.6,35.8
			c-6.4,0-12.7-1.3-18.3-3.8c-5.9,2.9-14.6,4.2-18.2,4.7C503.4,151.3,503.3,151.3,503.2,151.3L503.2,151.3z"/>
	</g>
	<g>
		<g>
			<g>
				<path class="st1" d="M503.2,149.1c3.8-0.5,12.9-1.9,18.4-4.9c5.5,2.6,11.7,4.1,18.4,4.1c21.3,0,38.5-15.1,38.5-33.7
					c0-18.6-17.2-33.7-38.5-33.7c-21.3,0-38.5,15.1-38.5,33.7c0,9.5,4.5,18.2,11.8,24.3C511.1,143.3,507.7,148.1,503.2,149.1z"/>
			</g>
		</g>
	</g>
	<g>
		<path class="st2" d="M186.5,201.2c-17.2,0-31.7-12-35.5-28c-4.9,2.5-10.4,3.8-16.3,3.8c-8,0-15.4-2.6-21.4-7
			c-4.1,4.3-9.8,7-16.2,7H78.9c-17.9,0-32.4-14.5-32.4-32.4v-36.3c0-12.3,10-22.4,22.4-22.4c10.9,0,20,7.8,22,18.2H97
			c6.4,0,12.1,2.7,16.2,7c6-4.4,13.4-7,21.4-7c10.1,0,19.3,4.1,25.9,10.8c6.6-6.7,15.8-10.8,25.9-10.8c2.7,0,5.3,0.3,7.9,0.9
			c2-0.6,4.1-0.9,6.2-0.9c6.4,0,12.1,2.7,16.2,7c6-4.4,13.4-7,21.4-7c5.5,0,10.7,1.2,15.3,3.4c0.4-11.9,10.3-21.5,22.3-21.5
			c10.9,0,20,7.8,22,18.2h6.3c0.5,0,1,0,1.6,0.1c2-10.4,11.1-18.2,22-18.2c10.9,0,20,7.8,22,18.2h6.3c6.4,0,12.1,2.7,16.2,7
			c6-4.4,13.4-7,21.4-7c9.5,0,18.2,3.7,24.7,9.6c5.9-5.9,14-9.6,23.1-9.6h18.2c12.3,0,22.3,10,22.3,22.3c0,12.3-10,22.4-22.3,22.4
			h-5.9v5.9c0,12.3-10,22.3-22.4,22.3c-6.4,0-12.1-2.7-16.2-6.9c-6,4.4-13.5,6.9-21.5,6.9c-8,0-15.4-2.6-21.4-7
			c-4.1,4.3-9.8,7-16.2,7h-18.2c-6.9,0-13.3-2.2-18.6-5.8c-4,3.6-9.3,5.8-15.1,5.8H286c-9,0-17.1-3.7-23-9.6
			c-6.5,6-15.2,9.6-24.7,9.6c-5.9,0-11.4-1.4-16.3-3.8C218.2,189.3,203.7,201.2,186.5,201.2L186.5,201.2z"/>
	</g>
	<g>
		<path class="st1" d="M186.5,195.7c-17,0-30.9-13.8-30.9-30.9c0-0.6,0.1-1.2,0.2-1.7c-5.5,5.2-13,8.4-21.1,8.4
			c-8.8,0-16.8-3.7-22.5-9.7c-2.7,5.7-8.5,9.7-15.2,9.7H78.9c-14.8,0-26.8-12-26.8-26.8v-36.3c0-9.2,7.5-16.8,16.8-16.8
			c9.2,0,16.8,7.5,16.8,16.8v1.4H97c6.7,0,12.5,4,15.2,9.7c5.6-6,13.6-9.7,22.5-9.7c10.8,0,20.4,5.6,25.9,14.1
			c5.5-8.5,15.1-14.1,25.9-14.1c2.8,0,5.5,0.4,8.2,1.1c1.9-0.7,3.9-1.1,6-1.1c6.7,0,12.5,4,15.2,9.7c5.6-6,13.6-9.7,22.5-9.7
			c8.1,0,15.4,3.1,20.9,8.2v-9.6c0-9.2,7.5-16.8,16.8-16.8c9.2,0,16.8,7.5,16.8,16.8v1.4h11.5c2.4,0,4.7,0.5,6.8,1.4v-2.8
			c0-9.2,7.5-16.8,16.8-16.8c9.2,0,16.8,7.5,16.8,16.8v1.4h11.5c6.7,0,12.5,4,15.2,9.7c5.6-6,13.6-9.7,22.5-9.7
			c10.2,0,19.3,5,24.9,12.7c4.7-7.6,13.2-12.7,22.8-12.7h18.2c9.2,0,16.8,7.5,16.8,16.8c0,9.2-7.5,16.8-16.8,16.8H448v11.5
			c0,9.2-7.5,16.8-16.8,16.8c-6.7,0-12.5-4-15.2-9.7c-5.7,6-13.7,9.7-22.5,9.7c-8.8,0-16.8-3.7-22.5-9.7c-2.7,5.7-8.5,9.7-15.2,9.7
			h-18.2c-7.5,0-14.4-3.1-19.2-8.1c-2.9,4.9-8.3,8.1-14.4,8.1H286c-9.6,0-18-5.1-22.8-12.7c-5.6,7.7-14.8,12.7-25,12.7
			c-8.1,0-15.4-3.1-20.9-8.2v1.5C217.4,181.8,203.5,195.7,186.5,195.7L186.5,195.7z"/>
	</g>
	<g>
		<g>
			<g>
				<linearGradient id="SVGID_1_" gradientUnits="userSpaceOnUse" x1="264.1342" y1="188.9815" x2="264.1342" y2="98.2129">
					<stop  offset="0" style="stop-color:#4BB0A0"/>
					<stop  offset="1" style="stop-color:#81C3BB"/>
				</linearGradient>
				<path class="st3" d="M97,136.5c5.6,0,10.1-4.5,10.1-10.1c0-5.6-4.5-10.1-10.1-10.1H78.9v-8.1c0-5.6-4.5-10.1-10.1-10.1
					c-5.6,0-10.1,4.5-10.1,10.1v36.3c0,11.1,9,20.2,20.2,20.2H97c5.6,0,10.1-4.5,10.1-10.1c0-5.6-4.5-10.1-10.1-10.1H78.9v-8.1H97z
					 M304.1,136.5c5.6,0,10.1-4.5,10.1-10.1c0-5.6-4.5-10.1-10.1-10.1H286v-8.1c0-5.6-4.5-10.1-10.1-10.1c-5.6,0-10.1,4.5-10.1,10.1
					v36.3c0,11.1,9,20.2,20.2,20.2h18.2c5.6,0,10.1-4.5,10.1-10.1c0-5.6-4.5-10.1-10.1-10.1H286v-8.1H304.1z M355.9,136.5
					c5.6,0,10.1-4.5,10.1-10.1c0-5.6-4.5-10.1-10.1-10.1h-18.2v-8.1c0-5.6-4.5-10.1-10.1-10.1c-5.6,0-10.1,4.5-10.1,10.1v36.3
					c0,11.1,9,20.2,20.2,20.2h18.2c5.6,0,10.1-4.5,10.1-10.1c0-5.6-4.5-10.1-10.1-10.1h-18.2v-8.1H355.9z M134.7,116.4
					c-13.4,0-24.2,10.8-24.2,24.2c0,13.4,10.8,24.2,24.2,24.2c13.4,0,24.2-10.8,24.2-24.2C158.9,127.2,148.1,116.4,134.7,116.4z
					 M134.7,144.6c-2.2,0-4-1.8-4-4c0-2.2,1.8-4,4-4c2.2,0,4,1.8,4,4C138.7,142.8,136.9,144.6,134.7,144.6z M200.6,116.4
					c-2,0-3.9,0.6-5.4,1.6c-2.7-1-5.6-1.6-8.7-1.6c-13.4,0-24.2,10.8-24.2,24.2c0,13.4,10.8,24.2,24.2,24.2c1.4,0,2.7-0.1,4-0.3v0.3
					c0,2.2-1.8,4-4,4c-2.2,0-4-1.8-4-4h-20.2c0,13.4,10.8,24.2,24.2,24.2c13.4,0,24.2-10.8,24.2-24.2v-38.3
					C210.7,120.9,206.2,116.4,200.6,116.4z M186.5,144.6c-2.2,0-4-1.8-4-4c0-2.2,1.8-4,4-4c2.2,0,4,1.8,4,4
					C190.5,142.8,188.7,144.6,186.5,144.6z M238.2,116.4c-13.4,0-24.2,10.8-24.2,24.2c0,13.4,10.8,24.2,24.2,24.2
					c12,0,21.9-8.7,23.9-20.2h-20.4c-0.7,1.2-2,2-3.5,2c-2.2,0-4-1.8-4-4h28.2c0.1-0.7,0.1-1.3,0.1-2
					C262.5,127.2,251.6,116.4,238.2,116.4z M234.2,134.5c0-2.2,1.8-4,4-4c2.2,0,4,1.8,4,4H234.2z M393.6,116.4
					c-13.4,0-24.2,10.8-24.2,24.2c0,13.4,10.8,24.2,24.2,24.2c12,0,21.9-8.7,23.9-20.2h-20.4c-0.7,1.2-2,2-3.5,2c-2.2,0-4-1.8-4-4
					h28.2c0.1-0.7,0.1-1.3,0.1-2C417.8,127.2,406.9,116.4,393.6,116.4z M389.5,134.5c0-2.2,1.8-4,4-4c2.2,0,4,1.8,4,4H389.5z
					 M459.5,116.4h-18.2c-11.1,0-20.2,9-20.2,20.2v18.2c0,5.6,4.5,10.1,10.1,10.1c5.6,0,10.1-4.5,10.1-10.1v-18.2h18.2
					c5.6,0,10.1-4.5,10.1-10.1C469.5,120.9,465,116.4,459.5,116.4z"/>
			</g>
		</g>
	</g>
</g>
<g>
</g>
<g>
</g>
<g>
</g>
<g>
</g>
<g>
</g>
<g>
</g>
<g>
</g>
<g>
</g>
<g>
</g>
<g>
</g>
<g>
</g>
<g>
</g>
<g>
</g>
<g>
</g>
<g>
</g>
</svg>
