<?xml version="1.0" standalone="no"?>
<!DOCTYPE svg PUBLIC "-//W3C//DTD SVG 20010904//EN"
 "http://www.w3.org/TR/2001/REC-SVG-20010904/DTD/svg10.dtd">
<svg version="1.0" xmlns="http://www.w3.org/2000/svg"
 width="512.000000pt" height="512.000000pt" viewBox="0 0 512.000000 512.000000"
 preserveAspectRatio="xMidYMid meet">
<metadata>
Created by potrace 1.11, written by Peter Selinger 2001-2013
</metadata>
<g transform="translate(0.000000,512.000000) scale(0.100000,-0.100000)"
fill="#000000" stroke="none">
<path d="M2505 5091 c-27 -16 -122 -70 -210 -121 -88 -51 -175 -101 -193 -111
-18 -11 -93 -54 -165 -96 -73 -42 -188 -108 -257 -148 -69 -39 -213 -122 -320
-184 -427 -247 -582 -337 -628 -363 -26 -14 -123 -71 -217 -125 l-170 -98 0
-1285 0 -1284 365 -211 c571 -330 1288 -744 1323 -764 18 -10 91 -52 162 -93
72 -42 146 -85 165 -96 19 -11 72 -41 117 -67 l82 -47 328 190 c180 104 344
199 363 211 19 11 42 24 50 28 8 4 47 26 85 48 39 23 192 112 340 197 149 86
369 213 490 283 121 70 238 138 260 150 22 13 99 57 170 98 l130 75 1 1281 1
1281 -36 21 c-20 12 -52 31 -71 41 -19 11 -107 62 -195 113 -423 246 -1915
1105 -1917 1105 -2 0 -25 -13 -53 -29z"/>
</g>
</svg>
