<svg xmlns="http://www.w3.org/2000/svg" x="0" y="0" width="210" height="90" viewBox="0 0 210 90">
	<g><g><polygon style="fill:#040000;" points="23.8,49.2 23.8,46.7 17,46.7 17,49.2 0,49.2 0,55 40.7,55 40.7,49.2"/><path style="fill:#040000;" d="M38.5,58.1H23.8H17H7.6l-5.4,5.4v12.8H17v6.8h-6.8L17,90v0h6.9V76.3h9.4l5.3-5.2V58.1z M31.7,70.9H9.1v-7.4h22.7V70.9z"/><polygon style="fill:#040000;" points="6.1,89.9 6.1,79 0,83.8"/><polygon style="fill:#040000;" points="34.5,89.9 34.5,79 40.7,83.8"/></g><path style="fill:#040000;" d="M40.7,2.6v5.8H23.8v1.9h14.7v16.1l-5.3,5.2h-9.4v11.7H17V31.6H2.2v-16l5.4-5.4H17V8.4H0V2.6h17V0h6.9v2.5H40.7z M9.1,18.6H17v-3H9.1V18.6z M17,26.3v-3H9.1v3H17z M23.8,15.6v3h7.9v-3H23.8z M31.7,26.2v-3h-7.9v3H31.7z M4.5,33.9h9.9L5,43.2l-5-5L4.5,33.9z M40.7,37.3l-5,5l-9.4-9.4h9.9L40.7,37.3z"/></g><g><path style="fill:#040000;" d="M185.9,30.8l-3.8,3.7v24.6h23.5l3.8-3.7V30.8H185.9z M193.3,34.3v1.5h-5.4v2h5.4v1.5h-5.7v2h16.3v-2h-6v-1.5h5.7v-2h-5.7v-1.5h7.6v14.5h-3.2l-1.4,1.5l-1.4-1.4h-3v-1h5l2.1-2.1v-3.4h-15.6v5.5h2.7l-4.5,4.4V34.3H193.3zM191.8,46v-1.5h7.5V46H191.8z M192.3,51.8v3.5h-3.6L192.3,51.8z M196.3,50.5l4.8,4.8h-4.8V50.5z M202.9,52.7l2.5-2.5v2.5H202.9z"/><g><rect x="182.8" y="74.9" style="fill:#040000;" width="25.8" height="3"/><polygon style="fill:#040000;" points="205.8,70.2 209.1,66.9 209.1,63.1 196.9,63.1 196.9,66.1 206,66.1 202,70.2 199.7,67.9 197.5,70.2 200.5,73.2 210,73.2 210,70.2"/><polygon style="fill:#040000;" points="181.3,82.4 193.4,82.4 193.4,86.2 189.7,86.3 193.4,90 198,90 198,82.4 210,82.4 210,79.4 181.3,79.4"/><polygon style="fill:#040000;" points="186.7,90 186.7,83 182.8,86.1"/><polygon style="fill:#040000;" points="196.1,70.2 196.1,66.2 196.1,63.2 188.8,63.2 189.9,62 186.1,62 182.7,65.4 184.6,67.3 185.8,66.1 193.1,66.1 193.1,69.9 190.7,67.5 187.3,67.5 190,70.2 187.5,70.2 185.5,68.1 182.2,68.1 184.3,70.2 181.3,70.2 181.3,73.2 193.1,73.2"/><polygon style="fill:#040000;" points="204.7,90 208.6,86.1 204.7,83"/></g><path style="fill:#040000;" d="M205.7,10.3h4.3V3.7h-5.9l3.6-3.6h-3.9l-3.7,3.6h-1.5l-3.7-3.6H191l3.6,3.6h-3.2l-3.7-3.6h-3.9l3.6,3.6h-5.9v6.6h2.3v3.1h15.6v2.4h-17.5v4.4h12.3v1.9l-1.2,1.2h-2.9l-4.1,4.1h11.3l2.5-2.5v-4.7h9.8v-4.4h-3.8v-0.6V10.3zM186.6,10.1V8h18.1v2.1H186.6z"/></g><g><g><path style="fill:#040000;" d="M65.1,10.7l-10-10.1v42.7L44.8,32.8V10.6L55,0h10.3l10.3,10.5v32.7l-10.4-10V10.7z"/><path style="fill:#040000;" d="M88.5,43.3L78.4,33.2V20.5l10.1-10.1h10.2l10.1,10.1v12.7L98.8,43.3H88.5z M88.8,33.1l9.8,9.6v-22l-9.8-9.7V33.1z"/><path style="fill:#040000;" d="M143.7,10.4v22.6l-10.3,10.3H123l-10.2-10.2V20.4l10.5-10.2h9.8l0-10.2L143.7,10.4L143.7,10.4zM133.1,42.9V20.6l-9.7-9.7v21.9L133.1,42.9z"/><path style="fill:#040000;" d="M157.2,10.8v22.1l10.2,10.4H157l-10.3-10.4V20.6L157,10.3h10.1l10.2,10.1v12.7h-10.4V20.6L157.2,10.8z"/></g><g><polygon style="fill:#2DA986;" points="56.3,79.4 56.3,69.6 45.9,79.4 56.3,89.9 66.3,89.9 76.8,79.4"/><polygon style="fill:#2DA986;" points="66.4,49.3 56.2,49.3 56.1,49.4 45.8,59.6 56.3,59.6 66.2,49.8 66.2,59.5 66.2,66.5 66.2,72.8 76.6,62.5 76.6,59.4"/></g><path style="fill:#2DA986;" d="M114.4,79.7l-10.1,10.1H93.9L83.7,79.7V59.3l10.2-10.1h10.4l10.1,10.1V79.7z M104.1,59.4l-10-9.7v30l10,9.6V59.4z"/><path style="fill:#2DA986;" d="M176.2,79.4l-10.5,10.4V79.4h-10.3l-10.3-10.4v-9.2l10.6-10.4v19.7l10,9.9V49.3l10.5,10.5V79.4z"/><polygon style="fill:#2DA986;" points="124.1,59.7 124.1,79.3 124.1,89.9 134.8,79.3 134.8,59.7 134.8,49.3"/></g>
</svg>
