<svg xmlns="http://www.w3.org/2000/svg" viewBox="0 0 207.9 120"><style>.st0{fill:#FFFEF7;}</style><path d="M158.4 25V0h-5v25H54.5V0h-5v25H.1v5H156l-52 30 49.4 28.3V111l-15.4 8.9h20.4V88.4l49.4-28.5L156 30h51.9v-5h-49.5zm39.4 34.9l-41.9 24.2v-.2l-41.6-24L156 35.8l41.8 24.1z" class="st0"/><path d="M52 30L.2 59.9H0l.1.1H0h.2L47 87 .1 114.1v5.8l49.4-28.5V120h5V91.4l49.5 28.5 38.9-22.5v-5.8L104 114.1 56.9 87l47-27L52 30zm42.7 29.9L52.3 84.5 52 59.9H9.7L52 35.4v24.5h42.7zM168.8 97.2l39.1 22.5v-5.8l-39.1-22.5" class="st0"/></svg>
