<svg xmlns="http://www.w3.org/2000/svg" width="129" height="54"><path d="M5,16.2c0.2,0,0.4,0,0.5,0c1.1,0.1,2.2,0.6,3,1.5c3.1,3.4-4.3,7.8-7.2,5.7c-1.4-1-1.6-3.1-0.9-4.6C1.2,17.1,3.2,16.2,5,16.2"/><path d="M7,30.3c2.7,0.9,3.9,5,1,6.5c-2.2,1.1-5.3-0.5-5.1-3.1c0.1-0.8,0.4-1.5,0.9-2c0.5-0.6,1.1-1.1,1.8-1.3C6.1,30.3,6.6,30.2,7,30.3"/><path d="M58.6,24c-0.8,0.3-1.5,0.8-2,1.3c-2.3,2-3,3.8-2.8,6.9c0,0.3,1.9-0.4,2.5-0.7c2.3-0.9,7.2-3,5.7-6.4C61.3,23.4,59.9,23.4,58.6,24 M63.3,18.3c0.9,0.4,1.7,1.1,2.6,1.8c2.6,2.4,3.6,5.7,2.6,9.1c-1.4,4.6-6.7,6-10.8,7.1c-1.2,0.2-2.4,0.3-2.8,0.4c0.7,3.6,6.3,3.4,8.8,2.5c1.2-0.4,2.3-0.9,3.5-1.4c0.5-0.2,2.5-1.7,3-1.2c0.9,1,0.8,3.4,0.2,4.6c-0.3,0.6-1.2,1.2-1.7,1.5c-4.2,2.1-10.2,2.9-14.3-0.1c-1.2-0.9-2.5-2.1-3.3-3.3c-0.7-1-1.2-2.1-1.6-3.3c-1.1-3.5-1.4-7.8,0.3-11.2c1.2-2.3,3.3-4.6,5.6-5.9c1.3-0.7,3.5-1.3,5-1.3C61.6,17.7,62.5,17.9,63.3,18.3"/><path d="M101.7,33.4c0,0.1,0,0.2,0,0.3c-0.3,2.7-0.4,5.4-0.8,8.1c-0.2,1.4-0.3,2.7-0.6,4.1c-0.2,1-0.3,2.1-0.9,3c-1.7,2.8-4.2,1.4-5.9-0.9c0,0-5.5-8.1-8-12.7c-3.3-6.1-5.3-9.8-6.6-12.5c0,0.4,0,0.4,0.1,1.2c0.3,4.2,0.6,9.8,0.8,14c0.1,2.3,0.2,4.6,0.4,6.9c0.1,2,0.4,4.2-0.5,6.1c-0.8,1.7-2.3,1.3-3.5,0.3c-0.7-0.6-1.6-1.5-2-2.8c-0.4-1.2-0.4-2.1-0.6-3.3c-1.3-9-1.5-18.3-1.4-27.4c0-2.9,0-14.6,2.4-14.1c0.9,0.2,2.3,0.5,2.9,1.1c0.9,1,1.4,2.3,1.9,3.5c1.6,4.1,3.3,8.1,5.3,12.6c1.5,3.3,3.2,6.5,5,9.8c1.1,2,2.2,3.9,3.4,5.9c0.3,0.5,0.7,1,1,1.5c0.2,0.2,0.3,0.3,0.3,0.3c0.3-2.3,0.2-4.6,0.2-6.9c0.2-5.4,0.3-10.8,1-16.1c0.5-3.8,0.9-7.6,2.1-11.2c0.5-1.3,0.9-2.9,2.2-3.7c0.8-0.5,1.9-0.6,2.8-0.6c0.8,0,1.6,0.2,2.3,0.6c1.3,0.6,1,2.1,0.8,3.2c-0.1,0.8-0.3,2.2-0.5,3.1c-0.3,1.7-0.4,2.6-0.7,4.2c-0.3,2-0.7,4-0.9,5.9c-0.4,2.7-0.7,5.5-1.1,8.2C102.3,28,102,30.7,101.7,33.4"/><path d="M116.5,27.6c0.8-0.1,2.9-0.3,2.9-0.3c-0.2-2.2-0.6-3.5-1-5.7c-0.2-1.2-0.6-3.4-1.2-4.5c-0.4-0.7-1.1,1.3-1.2,1.5c-0.6,1.5-1,3.1-1.4,4.7c-0.1,0.5-0.6,2.1-1,4.8C113.5,28,114.8,27.8,116.5,27.6 M118.3,3.9c0.2,0.2,0.4,0.6,0.6,1.1c2,4.7,6.5,20.9,6.5,21c0,0,2.3-0.2,2.9-0.2c1.7-0.1,2.9-0.1,2.7,2c-0.2,1.8-0.4,2.9-1.5,3.1c-1.6,0.2-2.8,0.3-3.2,0.4c0,0.1,2.7,12.7,2.9,14c0.1,0.9,0.3,1.8,0.2,2.7c-0.1,0.8-0.4,1.4-0.9,2.1c-0.6,0.7-1,1.4-1.9,0.9c-0.6-0.3-1.4-0.6-1.9-1.1c-0.5-0.5-0.7-1.2-1-1.8c-0.4-0.9-2.7-12.3-3-14c-0.1-0.7-0.5-2-0.5-2c-1.3,0-2.7,0.2-4,0.3c-1,0.1-3,0.2-3.5,0.4c-0.5,0.3-0.7,2.6-0.8,3.1c-0.9,4.8-1,9.8-1.2,14.7c0,0.6,0.1,1.6-0.7,1.7c-0.8,0.2-2.4-1.1-3-1.6c-0.6-0.5-1.5-1.7-1.7-2.9c-0.9-4.3,0.2-8.4,1.1-12.6c1.5-7.2,3.5-14.4,5.7-21.4c0.7-2.3,1.5-4.7,2.4-7c0.3-0.8,0.5-1.5,0.9-2.3c0.3-0.6,0.8-1.2,1.5-1.1c0.3,0,0.5,0.1,0.8,0.3C117.8,3.6,118.1,3.7,118.3,3.9"/><path d="M41.8,11.3c-2-2.5-4.6-4.4-7.3-6.1c-5.8-3.6-10.4-5.1-18.8-4.7C14.2,0.6,12.1,1,11,1.4c-0.6,0.2-0.9,0.7-0.9,1.1C10,3,9.9,3.5,9.9,4c0,1.6-0.1,3.8,1.7,4.4c0.7,0.3,1.8-0.5,2.1,0.6c0.1,0.2,0.1,0.5,0.2,0.7c0.5,1.9,0.9,3.8,1.3,5.8c0.4,1.9,0.6,3.9,0.8,5.9c0.2,2.1,0.2,4.3,0.3,6.4c0,2.4,0,4.9,0,7.3c0,1.3-0.1,2.7-0.1,4C16,40.8,16,42.4,15.8,44c0,0.1-0.1,0.8-0.1,0.8c-2.7,1.2-6.9-1.9-7.2,3c0,0.4,0.4,4.2,1.3,5.2c0.7,0.9,2.2,1.1,3.9,1.2c1.1,0,2.1,0.1,3.2,0.1c1.8,0,3.6-0.2,5.4-0.6c1.7-0.4,3.4-1,5-1.7c1.5-0.6,2.9-1.4,4.3-2.2c1.4-0.8,2.7-1.8,4-2.8c3.4-2.6,6.7-5.8,8.7-9.7c1.2-2.3,1.8-5.3,2.2-7.8C47.3,23.2,45.9,16.3,41.8,11.3 M30.8,41.6c-1.2,0.7-2.5,1.3-3.8,1.8c-0.7,0.3-4.2,1.8-4-0.3c0.3-3,0.7-6.9,0.7-9.9c0.1-4.8-0.1-9.5-0.6-14.3c-0.1-1.3-0.3-2.7-0.5-4c-0.3-1.9-0.7-4-1.1-5.6C21.2,7.5,24,8.1,25,8.3c2.1,0.5,4.4,1.5,6.3,2.7c3.8,2.4,7,6,7.9,10.5c1.3,6.5-0.2,13.8-5.5,18.1C32.8,40.4,31.8,41,30.8,41.6"/></svg>