<?xml version="1.0" encoding="UTF-8" standalone="no"?>
<svg width="286px" height="51px" viewBox="0 0 286 51" version="1.1" xmlns="http://www.w3.org/2000/svg" xmlns:xlink="http://www.w3.org/1999/xlink" xmlns:sketch="http://www.bohemiancoding.com/sketch/ns">
    <defs></defs>
    <g id="Page-1" stroke="none" stroke-width="1" fill="none" fill-rule="evenodd" sketch:type="MSPage">
        <g id="Imported-Layers" sketch:type="MSLayerGroup" fill="#0075C1">
            <path d="M122.038,9.537 C114.057,9.537 107.588,16.007 107.588,23.987 C107.588,31.967 114.057,38.436 122.038,38.436 L140.493,38.436 L140.493,9.537 L122.038,9.537 L122.038,9.537 Z M126.615,34.001 C121.085,34.001 116.6,29.518 116.6,23.987 C116.6,18.456 121.085,13.972 126.615,13.972 L131.766,13.972 L131.766,34.001 L126.615,34.001 L126.615,34.001 Z" id="Fill-1" sketch:type="MSShapeGroup"></path>
            <path d="M24.24,0.095 L24.24,9.537 L14.512,9.537 C6.532,9.537 0.062,16.007 0.062,23.987 C0.062,31.967 6.532,38.436 14.512,38.436 L32.968,38.436 L32.968,0.095 L24.24,0.095 L24.24,0.095 Z M19.09,34.001 C13.559,34.001 9.075,29.518 9.075,23.987 C9.075,18.456 13.559,13.972 19.09,13.972 L24.24,13.972 L24.24,34.001 L19.09,34.001 L19.09,34.001 Z" id="Fill-2" sketch:type="MSShapeGroup"></path>
            <path d="M173.954,14.015 L165.37,14.015 L165.37,37.907 L160.187,37.907 L160.187,40.742 L168.914,40.742 L168.914,16.849 L177.497,16.849 C178.415,16.849 179.207,16.938 179.906,17.101 C178.965,15.016 177.173,14.015 173.954,14.015" id="Fill-3" sketch:type="MSShapeGroup"></path>
            <path d="M193.092,26.148 C193.092,18.119 190.633,14.623 187.197,13.234 C188.652,15.312 189.549,18.486 189.549,23.313 L189.549,37.907 L184.365,37.907 L184.365,40.742 L193.093,40.742 L193.092,26.148" id="Fill-4" sketch:type="MSShapeGroup"></path>
            <path d="M219.051,37.908 C216.39,37.908 213.904,37.208 211.763,35.995 C214.411,38.922 218.276,40.743 222.595,40.743 L226.589,40.743 C227.253,39.973 227.754,39.039 228.072,37.908 L219.051,37.908" id="Fill-5" sketch:type="MSShapeGroup"></path>
            <path d="M237.507,12.416 L237.507,32.471 C237.507,44.202 231.392,48.066 223.057,48.066 L211.722,48.066 L211.722,50.9 L226.6,50.9 C234.935,50.9 241.051,47.037 241.051,35.306 L241.051,12.416 L237.507,12.416" id="Fill-6" sketch:type="MSShapeGroup"></path>
            <path d="M213.615,23.745 C213.615,27.188 215.353,30.113 217.999,31.831 C217.023,30.332 216.45,28.543 216.45,26.58 C216.45,21.049 220.933,16.851 226.465,16.851 L228.493,16.851 L228.493,14.016 L223.63,14.016 C218.098,14.016 213.615,18.214 213.615,23.745" id="Fill-7" sketch:type="MSShapeGroup"></path>
            <path d="M268.633,9.537 C259.546,9.537 252.18,16.007 252.18,23.987 C252.18,31.966 259.546,38.436 268.633,38.436 C277.719,38.436 285.084,31.966 285.084,23.987 C285.084,16.007 277.719,9.537 268.633,9.537 L268.633,9.537 Z M268.633,33.572 C264.523,33.572 261.193,29.28 261.193,23.987 C261.193,18.693 264.523,14.401 268.633,14.401 C272.741,14.401 276.072,18.693 276.072,23.987 C276.072,29.28 272.741,33.572 268.633,33.572 L268.633,33.572 Z" id="Fill-8" sketch:type="MSShapeGroup"></path>
            <path d="M84.737,10.109 L84.737,24.702 C84.737,31.068 83.4,34.001 77.869,34.001 L75.518,34.001 L75.518,10.109 L66.791,10.109 L66.791,34.001 L64.44,34.001 C58.909,34.001 57.572,31.068 57.572,24.702 L57.572,10.109 L48.845,10.109 L48.845,24.702 L48.846,24.703 C48.846,36.266 53.942,38.436 59.719,38.436 L82.59,38.436 C88.367,38.436 93.464,36.266 93.464,24.703 L93.464,10.109 L84.737,10.109" id="Fill-9" sketch:type="MSShapeGroup"></path>
        </g>
    </g>
</svg>
