<?xml version="1.0" encoding="utf-8"?>
<!-- Generator: Adobe Illustrator 15.1.0, SVG Export Plug-In . SVG Version: 6.00 Build 0)  -->
<!DOCTYPE svg PUBLIC "-//W3C//DTD SVG 1.1//EN" "http://www.w3.org/Graphics/SVG/1.1/DTD/svg11.dtd">
<svg version="1.1" id="レイヤー_1" xmlns="http://www.w3.org/2000/svg" xmlns:xlink="http://www.w3.org/1999/xlink" x="0px"
	 y="0px" width="144px" height="39px" viewBox="0 0 144 39" enable-background="new 0 0 144 39" xml:space="preserve">
<g>
	<g>
		<path fill="#00A0DC" d="M-0.004,9.501v19.002l16.245,9.504l16.245-9.504V9.501l-16.245-9.51L-0.004,9.501z M55.772,21.762h5.199
			v7.41c-1.687,0.91-4.157,1.438-6.829,1.441c-6.234,0-10.939-4.891-10.939-11.375c0-5.899,4.216-11.412,10.308-11.412
			c2.268,0,5.517,0.53,8.104,3.059l3.123-3.372c-1.998-2.101-5.917-4.346-10.928-4.346c-10.064,0-15.267,8.329-15.267,16.073
			c0,6.772,4.286,15.595,15.68,15.595c6.932,0,11.165-2.795,11.165-2.795V17.533h-9.616V21.762z M91.568,12.926
			c-0.06-2.643-0.929-8.605-9.521-8.605h-11.1v29.814h4.424V21.773h4.866c0.15,0.211,8.849,12.361,8.849,12.361h5.537
			c0,0-9.505-12.535-9.965-13.156C88.683,20.324,91.657,16.75,91.568,12.926z M75.372,17.53c0-0.475,0.001-8.732,0-9.207h5.572
			c2.779,0,5.95,0.799,5.95,4.602c0,3.091-1.835,4.604-5.95,4.605H75.372z M97.814,34.135h19.806v-4.252h-15.389
			c0-0.473,0.001-8.35,0-8.824h11.665v-4.242h-11.665V8.562h15.389V4.321H97.814V34.135z M143.004,8.562V4.321H123.19v29.814h19.813
			v-4.252h-15.39c0-0.473,0.002-8.35,0-8.824h11.667v-4.242h-11.667V8.562H143.004z"/>
	</g>
</g>
</svg>
