<?xml version="1.0" encoding="utf-8"?>
<!-- Generator: Adobe Illustrator 19.0.1, SVG Export Plug-In . SVG Version: 6.00 Build 0)  -->
<svg version="1.1" id="Layer_1" xmlns="http://www.w3.org/2000/svg" xmlns:xlink="http://www.w3.org/1999/xlink" x="0px" y="0px"
	 viewBox="0 0 580 400" enable-background="new 0 0 580 400" xml:space="preserve">
<g>
	<g>
		<g>
			<path fill="#4C566C" d="M0,357.9h9.3V375L25,357.9h11.5L20,376.3c1.4,2,4.1,5.7,7.9,11.1c3.9,5.4,6.7,9.5,8.6,12.1H25.7
				l-12.2-16.4l-4.2,4.6v11.8H0V357.9z"/>
			<path fill="#4C566C" d="M72,399.6l-3.9-9H50.6l-3.9,9h-9.9l18-41.6h9l18,41.6H72z M59.4,370.3l-5.2,12.1h10.4L59.4,370.3z"/>
			<path fill="#4C566C" d="M86.7,357.9H96v41.6h-9.3V357.9z"/>
			<path fill="#4C566C" d="M103.9,399.6v-6.4l21.8-27.2h-21.1v-8h33.8v6.4l-21.7,27.1h22.1v8.1H103.9z"/>
			<path fill="#4C566C" d="M176.9,357.9v8.3h-20.7v8.6h18.7v7.9h-18.7v8.6h21.4v8.2h-30.7v-41.6H176.9z"/>
			<path fill="#4C566C" d="M214.9,357.9h9.3v41.6h-9.3l-19.8-26.1v26.1h-9.3v-41.6h8.7l20.4,26.8V357.9z"/>
			<path fill="#4C566C" d="M279.6,361.6c2.9,2.4,4.3,6.2,4.3,11.2c0,5-1.5,8.7-4.4,11.1c-3,2.3-7.5,3.5-13.6,3.5h-7.4v12.2h-7v-41.6
				h14.3C272.1,357.9,276.7,359.1,279.6,361.6z M274.6,378.8c1.4-1.5,2.1-3.7,2.1-6.6c0-2.9-0.9-4.9-2.7-6.1
				c-1.8-1.2-4.6-1.8-8.4-1.8h-7.2V381h8.2C270.5,381,273.2,380.2,274.6,378.8z"/>
			<path fill="#4C566C" d="M292.2,399.6v-41.6h7v35h19v6.7H292.2z"/>
			<path fill="#4C566C" d="M331.8,390.1l-4.2,9.5h-7.5l18.3-41.6h7.5l18.4,41.6h-7.5l-4.2-9.5H331.8z M349.8,383.6l-7.6-17.2
				l-7.6,17.2H349.8z"/>
			<path fill="#4C566C" d="M382.6,364.4v35.2h-7v-35.2h-12.6v-6.4h32.3v6.4H382.6z"/>
			<path fill="#4C566C" d="M409.9,364.5v11.4h18.5v6.5h-18.5v17.2h-7v-41.6h27.8l-0.1,6.6H409.9z"/>
			<path fill="#4C566C" d="M473.7,393.8c-4.2,4.1-9.4,6.2-15.6,6.2c-6.2,0-11.4-2.1-15.6-6.2c-4.2-4.1-6.3-9.2-6.3-15.4
				c0-6.1,2.1-11.3,6.3-15.4c4.2-4.1,9.4-6.2,15.6-6.2c6.2,0,11.4,2.1,15.6,6.2c4.2,4.1,6.3,9.2,6.3,15.4
				C480,384.6,477.9,389.7,473.7,393.8z M468.6,367.8c-2.8-2.9-6.3-4.4-10.5-4.4c-4.1,0-7.6,1.5-10.5,4.4c-2.8,2.9-4.3,6.5-4.3,10.7
				c0,4.2,1.4,7.8,4.3,10.7c2.8,2.9,6.3,4.4,10.5,4.4c4.1,0,7.6-1.5,10.5-4.4c2.8-2.9,4.3-6.5,4.3-10.7
				C472.8,374.3,471.4,370.7,468.6,367.8z"/>
			<path fill="#4C566C" d="M522.2,371.5c0,6.9-3,11.2-9,13l10.9,15.1h-8.9l-10-14h-9.2v14h-7v-41.6h15.5c6.4,0,10.9,1.1,13.6,3.2
				C520.8,363.3,522.2,366.7,522.2,371.5z M512.8,377.4c1.4-1.2,2.1-3.2,2.1-5.9c0-2.7-0.7-4.6-2.2-5.6c-1.5-1-4.1-1.5-7.9-1.5h-8.9
				v14.9h8.8C508.7,379.2,511.4,378.6,512.8,377.4z"/>
			<path fill="#4C566C" d="M539.3,399.6h-7v-41.6h11l12.6,26.2l12.6-26.2h10.9v41.6h-7V367l-14.5,28.9h-3.9L539.3,367V399.6z"/>
		</g>
	</g>
	<g>
		<rect x="158.5" y="210.3" fill="#4C566C" width="262.9" height="52.6"/>
		<polygon fill="#88E18E" points="395.1,0 342.6,0 342.6,26.3 377.2,26.3 257.5,146.1 158.5,47.1 158.5,84.3 257.5,183.3 
			276.1,164.7 276.1,164.7 395.1,45.6 395.1,78.9 421.4,78.9 421.4,26.3 421.4,0 		"/>
	</g>
</g>
</svg>
