<?xml version="1.0" encoding="UTF-8" standalone="no"?>
<svg width="207px" height="30px" viewBox="0 0 207 30" version="1.1" xmlns="http://www.w3.org/2000/svg" xmlns:xlink="http://www.w3.org/1999/xlink" xmlns:sketch="http://www.bohemiancoding.com/sketch/ns">
    <!-- Generator: Sketch 3.0.4 (8053) - http://www.bohemiancoding.com/sketch -->
    <title>logo</title>
    <desc>Created with Sketch.</desc>
    <defs></defs>
    <g id="Page-1" stroke="none" stroke-width="1" fill="none" fill-rule="evenodd" sketch:type="MSPage">
        <g id="Artboard-1" sketch:type="MSArtboardGroup" transform="translate(-540.000000, -190.000000)">
            <g id="logo" sketch:type="MSLayerGroup" transform="translate(540.500000, 190.000000)">
                <g id="top_logo" sketch:type="MSShapeGroup">
                    <g id="Group">
                        <g transform="translate(39.095355, 17.500000)" id="Shape" fill="#4C566C">
                            <path d="M-0.084205379,0.4755 L2.57929095,0.4755 L2.57929095,5.363 L7.08678484,0.4755 L10.3823227,0.4755 L5.6352445,5.738 C6.04424205,6.3055 6.80209046,7.365 7.90628362,8.915 C9.00997555,10.465 9.83498778,11.62 10.3818215,12.381 L7.27424205,12.381 L3.77420538,7.681 L2.57878973,9.009 L2.57878973,12.381 L-0.0847066015,12.381 L-0.084205379,0.4755 L-0.084205379,0.4755 Z"></path>
                            <path d="M20.5411002,12.381 L19.4308924,9.8095 L14.4286919,9.8095 L13.3189853,12.381 L10.4845721,12.381 L15.6406479,0.4755 L18.2194377,0.4755 L23.3755134,12.381 L20.5411002,12.381 L20.5411002,12.381 Z M16.9388142,4.018 L15.4356479,7.4755 L18.4239364,7.4755 L16.9388142,4.018 L16.9388142,4.018 Z"></path>
                            <path d="M24.7583863,0.4755 L27.4213814,0.4755 L27.4213814,12.381 L24.7583863,12.381 L24.7583863,0.4755 L24.7583863,0.4755 Z"></path>
                            <path d="M29.6748778,12.381 L29.6748778,10.5585 L35.9241198,2.775 L29.8798778,2.775 L29.8798778,0.4755 L39.5599878,0.4755 L39.5599878,2.3155 L33.3277873,10.0645 L39.6622372,10.0645 L39.6622372,12.381 L29.6748778,12.381 L29.6748778,12.381 Z"></path>
                            <path d="M50.5903912,0.4755 L50.5903912,2.8425 L44.6488998,2.8425 L44.6488998,5.294 L49.992934,5.294 L49.992934,7.5605 L44.6488998,7.5605 L44.6488998,10.0295 L50.7783496,10.0295 L50.7783496,12.3795 L41.9854034,12.3795 L41.9854034,0.4745 L50.5903912,0.4745 L50.5903912,0.4755 Z"></path>
                            <path d="M61.4994988,0.4755 L64.1629951,0.4755 L64.1629951,12.381 L61.4994988,12.381 L55.8146333,4.921 L55.8146333,12.381 L53.1511369,12.381 L53.1511369,0.4755 L55.6442176,0.4755 L61.5,8.14 L61.4994988,0.4755 L61.4994988,0.4755 Z"></path>
                            <path d="M80.0241809,1.5145 C80.8552078,2.207 81.27022,3.2745 81.27022,4.7165 C81.27022,6.158 80.8461858,7.2145 79.9986186,7.8835 C79.1510513,8.5545 77.8498778,8.8895 76.0976039,8.8895 L73.9804401,8.8895 L73.9804401,12.38 L71.9660269,12.38 L71.9660269,0.475 L76.0635208,0.475 C77.8734352,0.4755 79.1941565,0.8225 80.0241809,1.5145 L80.0241809,1.5145 Z M78.5987042,6.4275 C79.0031907,6.0015 79.2046822,5.377 79.2046822,4.5545 C79.2046822,3.7315 78.9480562,3.1485 78.4368093,2.8085 C77.9245599,2.4675 77.1216015,2.298 76.0289364,2.298 L73.9804401,2.298 L73.9804401,7.0675 L76.3201467,7.0675 C77.4348655,7.0675 78.19522,6.8535 78.5987042,6.4275 L78.5987042,6.4275 Z"></path>
                            <path d="M83.644511,12.381 L83.644511,0.4755 L85.6594254,0.4755 L85.6594254,10.4735 L91.1052078,10.4735 L91.1052078,12.38 L83.644511,12.381 L83.644511,12.381 Z"></path>
                            <path d="M94.9977017,9.673 L93.8027873,12.381 L91.6510391,12.381 L96.9098655,0.4755 L99.0606112,0.4755 L104.319438,12.381 L102.168191,12.381 L100.972775,9.673 L94.9977017,9.673 L94.9977017,9.673 Z M100.154279,7.8165 L97.9859902,2.911 L95.8177017,7.8165 L100.154279,7.8165 L100.154279,7.8165 Z"></path>
                            <path d="M109.545685,2.3155 L109.545685,12.381 L107.530269,12.381 L107.530269,2.3155 L103.910941,2.3155 L103.910941,0.4755 L113.165012,0.4755 L113.165012,2.3155 L109.545685,2.3155 L109.545685,2.3155 Z"></path>
                            <path d="M117.364254,2.3495 L117.364254,5.619 L122.657665,5.619 L122.657665,7.4755 L117.364254,7.4755 L117.364254,12.381 L115.348839,12.381 L115.348839,0.4755 L123.305244,0.4755 L123.288203,2.3495 L117.364254,2.3495 L117.364254,2.3495 Z"></path>
                            <path d="M135.649853,10.7375 C134.444413,11.914 132.952274,12.5 131.176944,12.5 C129.401112,12.5 127.909474,11.913 126.703533,10.7375 C125.49709,9.5615 124.893619,8.098 124.893619,6.343 C124.893619,4.5885 125.49709,3.124 126.703533,1.9495 C127.909474,0.7735 129.401112,0.187 131.176944,0.187 C132.952274,0.187 134.444413,0.7745 135.649853,1.9495 C136.856296,3.125 137.459768,4.5885 137.459768,6.343 C137.459768,8.0975 136.856296,9.5615 135.649853,10.7375 L135.649853,10.7375 Z M134.172751,3.285 C133.358765,2.445 132.359829,2.0245 131.175941,2.0245 C129.992054,2.0245 128.993619,2.445 128.179132,3.285 C127.365147,4.1265 126.957653,5.145 126.957653,6.3425 C126.957653,7.54 127.364645,8.56 128.179132,9.3995 C128.992616,10.24 129.991051,10.66 131.175941,10.66 C132.358826,10.66 133.358264,10.239 134.172751,9.3995 C134.986736,8.559 135.393729,7.54 135.393729,6.3425 C135.393729,5.145 134.986736,4.1265 134.172751,3.285 L134.172751,3.285 Z"></path>
                            <path d="M149.530709,4.342 C149.530709,6.307 148.671112,7.544 146.951919,8.055 L150.076039,12.381 L147.515795,12.381 L144.66434,8.378 L142.018386,8.378 L142.018386,12.381 L140.003472,12.381 L140.003472,0.4755 L144.441797,0.4755 C146.263741,0.4755 147.566418,0.781 148.352836,1.395 C149.138252,2.008 149.530709,2.991 149.530709,4.342 L149.530709,4.342 Z M146.850171,6.0285 C147.259169,5.676 147.465171,5.1115 147.465171,4.333 C147.465171,3.5545 147.254156,3.022 146.832628,2.7325 C146.411601,2.443 145.66077,2.298 144.579132,2.298 L142.018386,2.298 L142.018386,6.557 L144.528509,6.557 C145.666284,6.5555 146.440672,6.38 146.850171,6.0285 L146.850171,6.0285 Z"></path>
                            <path d="M154.448203,12.381 L152.433289,12.381 L152.433289,0.4755 L155.574951,0.4755 L159.177738,7.952 L162.780526,0.4755 L165.904645,0.4755 L165.904645,12.381 L163.889731,12.381 L163.889731,3.081 L159.72357,11.3415 L158.59632,11.3415 L154.447702,3.081 L154.448203,12.381 L154.448203,12.381 Z"></path>
                        </g>
                        <g>
                            <rect id="Rectangle-path" fill="#4C566C" x="0" y="24" width="29.9540587" height="5.9765"></rect>
                            <path d="M27.0589976,0 L21.0678851,0 L21.0678851,2.988 L25.0200244,2.988 L11.3732396,16.6015 L12.5450978,17.771 L0.100745721,5.3575 L0.100745721,9.5835 L11.3767482,20.832 L13.4949144,18.719 L13.4914059,18.715 L27.0589976,5.18 L27.0589976,8.964 L30.0548044,8.964 L30.0548044,2.988 L30.0548044,0 L27.0589976,0 Z" id="Shape" fill="#88E18E"></path>
                        </g>
                    </g>
                </g>
            </g>
        </g>
    </g>
</svg>