<?xml version="1.0" encoding="UTF-8" standalone="no"?>
<svg width="113px" height="25px" viewBox="0 0 113 25" version="1.1" xmlns="http://www.w3.org/2000/svg" xmlns:xlink="http://www.w3.org/1999/xlink" xmlns:sketch="http://www.bohemiancoding.com/sketch/ns">
    <defs></defs>
    <g id="Page-1" stroke="none" stroke-width="1" fill="none" fill-rule="evenodd" sketch:type="MSPage">
        <g id="Imported-Layers" sketch:type="MSLayerGroup">
            <path d="M47.424,5.27 L47.424,19.596 L44.937,19.596 L44.937,8.367 L44.897,8.367 L40.451,19.596 L38.803,19.596 L34.248,8.367 L34.218,8.367 L34.218,19.596 L31.92,19.596 L31.92,5.27 L35.486,5.27 L39.602,15.889 L39.662,15.889 L44.008,5.27 L47.424,5.27 L47.424,5.27 Z M49.505,6.359 C49.505,5.959 49.65,5.625 49.939,5.355 C50.229,5.085 50.574,4.95 50.973,4.95 C51.399,4.95 51.752,5.089 52.032,5.365 C52.312,5.641 52.452,5.973 52.452,6.359 C52.452,6.752 52.309,7.082 52.022,7.348 C51.736,7.614 51.386,7.747 50.973,7.747 C50.56,7.747 50.212,7.613 49.929,7.343 C49.646,7.073 49.505,6.745 49.505,6.359 L49.505,6.359 Z M49.754,9.326 L52.171,9.326 L52.171,19.596 L49.754,19.596 L49.754,9.326 Z M59.505,17.837 C59.864,17.837 60.26,17.754 60.693,17.588 C61.126,17.421 61.526,17.201 61.892,16.928 L61.892,19.176 C61.506,19.396 61.068,19.562 60.579,19.675 C60.089,19.789 59.551,19.845 58.965,19.845 C57.453,19.845 56.224,19.368 55.279,18.412 C54.333,17.456 53.86,16.236 53.86,14.751 C53.86,13.099 54.343,11.739 55.309,10.669 C56.275,9.601 57.643,9.066 59.415,9.066 C59.868,9.066 60.325,9.125 60.788,9.241 C61.251,9.358 61.619,9.492 61.892,9.646 L61.892,11.963 C61.519,11.69 61.138,11.479 60.748,11.329 C60.359,11.179 59.961,11.104 59.555,11.104 C58.602,11.104 57.833,11.414 57.247,12.033 C56.661,12.652 56.368,13.488 56.368,14.541 C56.368,15.58 56.649,16.389 57.212,16.968 C57.775,17.548 58.539,17.837 59.505,17.837 L59.505,17.837 Z M68.775,9.156 C68.968,9.156 69.142,9.17 69.295,9.196 C69.448,9.223 69.578,9.256 69.685,9.296 L69.685,11.743 C69.558,11.65 69.373,11.562 69.13,11.479 C68.887,11.396 68.592,11.354 68.246,11.354 C67.653,11.354 67.152,11.604 66.742,12.103 C66.333,12.603 66.128,13.372 66.128,14.411 L66.128,19.596 L63.71,19.596 L63.71,9.326 L66.128,9.326 L66.128,10.944 L66.168,10.944 C66.388,10.385 66.721,9.947 67.167,9.631 C67.613,9.314 68.149,9.156 68.775,9.156 L68.775,9.156 Z M69.815,14.611 C69.815,12.912 70.295,11.567 71.254,10.575 C72.213,9.582 73.545,9.086 75.25,9.086 C76.855,9.086 78.109,9.564 79.011,10.52 C79.913,11.476 80.365,12.766 80.365,14.391 C80.365,16.056 79.885,17.381 78.926,18.367 C77.967,19.353 76.662,19.845 75.01,19.845 C73.418,19.845 72.155,19.378 71.219,18.442 C70.283,17.506 69.815,16.229 69.815,14.611 L69.815,14.611 Z M72.333,14.531 C72.333,15.603 72.576,16.422 73.062,16.988 C73.548,17.554 74.244,17.837 75.15,17.837 C76.029,17.837 76.698,17.554 77.158,16.988 C77.617,16.422 77.847,15.583 77.847,14.471 C77.847,13.365 77.609,12.531 77.133,11.968 C76.657,11.405 75.989,11.124 75.13,11.124 C74.244,11.124 73.557,11.419 73.067,12.008 C72.577,12.598 72.333,13.439 72.333,14.531 L72.333,14.531 Z M83.961,12.023 C83.961,12.37 84.071,12.641 84.291,12.838 C84.51,13.034 84.996,13.282 85.749,13.582 C86.715,13.968 87.393,14.402 87.782,14.885 C88.172,15.368 88.366,15.953 88.366,16.639 C88.366,17.604 87.995,18.38 87.253,18.966 C86.51,19.552 85.506,19.845 84.241,19.845 C83.814,19.845 83.343,19.794 82.827,19.69 C82.311,19.587 81.873,19.456 81.513,19.296 L81.513,16.918 C81.953,17.225 82.426,17.468 82.932,17.647 C83.438,17.827 83.898,17.917 84.311,17.917 C84.857,17.917 85.26,17.841 85.52,17.688 C85.779,17.534 85.909,17.278 85.909,16.918 C85.909,16.585 85.774,16.304 85.505,16.074 C85.235,15.844 84.723,15.58 83.971,15.28 C83.078,14.907 82.446,14.487 82.073,14.021 C81.7,13.555 81.513,12.962 81.513,12.243 C81.513,11.317 81.881,10.556 82.617,9.96 C83.353,9.364 84.307,9.066 85.48,9.066 C85.839,9.066 86.242,9.106 86.688,9.186 C87.134,9.266 87.507,9.369 87.807,9.496 L87.807,11.793 C87.488,11.58 87.114,11.397 86.688,11.244 C86.262,11.091 85.839,11.014 85.42,11.014 C84.96,11.014 84.602,11.104 84.346,11.284 C84.089,11.464 83.961,11.71 83.961,12.023 L83.961,12.023 Z M89.405,14.611 C89.405,12.912 89.885,11.567 90.844,10.575 C91.803,9.582 93.135,9.086 94.84,9.086 C96.445,9.086 97.699,9.564 98.601,10.52 C99.503,11.476 99.955,12.766 99.955,14.391 C99.955,16.056 99.475,17.381 98.516,18.367 C97.557,19.353 96.252,19.845 94.6,19.845 C93.008,19.845 91.744,19.378 90.809,18.442 C89.873,17.506 89.405,16.229 89.405,14.611 L89.405,14.611 Z M91.923,14.531 C91.923,15.603 92.166,16.422 92.652,16.988 C93.138,17.554 93.834,17.837 94.74,17.837 C95.619,17.837 96.288,17.554 96.748,16.988 C97.207,16.422 97.437,15.583 97.437,14.471 C97.437,13.365 97.199,12.531 96.723,11.968 C96.247,11.405 95.579,11.124 94.72,11.124 C93.834,11.124 93.146,11.419 92.657,12.008 C92.167,12.598 91.923,13.439 91.923,14.531 L91.923,14.531 Z M107.975,11.304 L104.375,11.304 L104.375,19.596 L101.927,19.596 L101.927,11.304 L100.209,11.304 L100.209,9.326 L101.927,9.326 L101.927,7.897 C101.927,6.818 102.278,5.934 102.981,5.245 C103.684,4.556 104.584,4.211 105.683,4.211 C105.976,4.211 106.236,4.226 106.462,4.256 C106.689,4.286 106.889,4.331 107.062,4.391 L107.062,6.479 C106.982,6.432 106.842,6.376 106.642,6.309 C106.442,6.242 106.213,6.209 105.953,6.209 C105.447,6.209 105.057,6.367 104.784,6.684 C104.511,7 104.375,7.468 104.375,8.087 L104.375,9.326 L107.975,9.326 L107.975,7.018 L110.403,6.279 L110.403,9.326 L112.85,9.326 L112.85,11.304 L110.403,11.304 L110.403,16.109 C110.403,16.742 110.518,17.188 110.747,17.448 C110.977,17.707 111.338,17.837 111.831,17.837 C111.971,17.837 112.139,17.804 112.336,17.737 C112.532,17.671 112.704,17.591 112.85,17.498 L112.85,19.496 C112.697,19.582 112.442,19.662 112.086,19.735 C111.73,19.809 111.378,19.845 111.032,19.845 C110.013,19.845 109.249,19.574 108.74,19.031 C108.23,18.488 107.975,17.671 107.975,16.579 L107.975,11.304 L107.975,11.304 Z" id="Fill-1" fill="#6D6E6C" sketch:type="MSShapeGroup"></path>
            <path d="M0.882,0.495 L12.229,0.495 L12.229,11.842 L0.882,11.842 L0.882,0.495 Z" id="Fill-2" fill="#E15D29" sketch:type="MSShapeGroup"></path>
            <path d="M13.41,0.495 L24.757,0.495 L24.757,11.842 L13.41,11.842 L13.41,0.495 Z" id="Fill-3" fill="#84BF41" sketch:type="MSShapeGroup"></path>
            <path d="M0.882,13.023 L12.229,13.023 L12.229,24.37 L0.882,24.37 L0.882,13.023 Z" id="Fill-4" fill="#00A3DB" sketch:type="MSShapeGroup"></path>
            <path d="M13.41,13.023 L24.757,13.023 L24.757,24.37 L13.41,24.37 L13.41,13.023 Z" id="Fill-5" fill="#F6BC25" sketch:type="MSShapeGroup"></path>
        </g>
    </g>
</svg>
