<svg xmlns="http://www.w3.org/2000/svg" width="256" height="75.69" viewBox="0 0 256 75.69">
	<path fill="#E5531D" d="M68.25,38c-0.62-10.99-6.12-16.48-13.55-12.58c2.51-8.89-7.28-17.77-15.05-17.28c10.41,5.43-1.76,12.34-7.03,6.66C28.82,10.72,28.83,2.9,45.67,0C27.76,0.35,18.06,9.13,19.12,19.1c1.24,11.68-11.64,6.33-3.22-3.65c-6.62,2.7-22.17,19.34-5.86,36.13C6.52,49.6,2.26,46.89,0,40.47c3.51,33.81,35.56,26.37,28.88,35.22c0,0,40.12-12.51,33.34-33C58.74,32.14,63.23,30.35,68.25,38 M34.12,65.18c-7.47,0-13.53-6.06-13.53-13.53c0-9.54,4.13-20.28,7.72-20.67c2.43-0.26,5.02-1.66,6.22-4.24c2.88-6.25,13.13,8.83,13.13,24.91C47.66,59.12,41.6,65.18,34.12,65.18"/>
	<path fill="#2C2E2D" d="M120.89,23.36l-11.88,6.68l7.53,11.86l13-5.78L120.89,23.36z M116.91,31.65l3.78-1.35l-0.72,5.94L116.91,31.65z"/>
	<polygon fill="#2C2E2D" points="89.91,25.73 102.44,26.59 99.23,67.64 74.88,66.57"/>
	<polygon fill="#2C2E2D" points="103.78,34.27 105.82,66.12 124.28,58.9 108.59,34.27"/>
	<polygon fill="#2C2E2D" points="130.58,35.4 167.36,25.53 168.95,42.72 152.71,41.61 153.03,51.88 168.31,50.21 170.7,64.14 125,66.85 128.82,51.54 138.54,53.63 140.92,43.84 129.3,48.3"/>
	<polygon fill="#2C2E2D" points="172.14,26.77 174.52,54.53 187.35,52.14 185.86,22.3"/>
	<polygon fill="#2C2E2D" points="192.13,24.38 191.53,53.63 179.89,66.17 201.98,65.87 208.84,55.42 212.43,23.19"/>
	<polygon fill="#2C2E2D" points="214.81,24.38 214.22,42.59 240.18,37.81 237.79,44.98 234.81,40.2 220.78,45.28 227.64,55.72 215.11,65.87 236,67.36 244.36,56.32 241.37,50.95 253.31,47.07 256,26.18"/>
</svg>
