<?xml version="1.0" encoding="utf-8"?>
<svg xmlns="http://www.w3.org/2000/svg" width="340" height="80" viewBox="0 0 340 80">
<defs><style>path{fill:#040000;stroke:none;}</style></defs>
<path d="M1.3,15.9c0.5-0.1,0.8-0.1,0.9-0.1c0.9,0,2.4,0.1,4.6,0.2c1.1,0,1.9,0,2.3,0c0.6,0,1.9-0.1,3.8-0.2l6.9-0.4c1.8-0.2,3.9-0.2,6.3-0.2c4.3,0,7.6,0.6,10.2,1.8c2.5,1.2,4.5,3.1,5.8,5.7c1.4,2.6,2.1,5.1,2.1,7.7c0,4.2-1.5,7.9-4.5,11c-3,3.1-7,4.6-12,4.6c-1.4,0-2.6-0.1-3.5-0.4c-0.9-0.3-2-0.8-3.3-1.6c-0.5-0.4-0.8-0.7-0.9-1.1c0.1-0.2,0.3-0.3,0.4-0.4c0.4,0,0.8,0.1,1.2,0.2c0.9,0.3,2.1,0.5,3.5,0.5c2.1,0,4.2-0.5,6.1-1.6c1.9-1.1,3.4-2.6,4.3-4.5c1-1.9,1.5-4,1.5-6.2c0-2.1-0.5-4.2-1.5-6.1c-1-2-2.4-3.6-4.1-4.8c-0.9-0.7-2.4-1.2-4.4-1.7c-2-0.5-3.5-0.7-4.6-0.7c-3.4,0-5.3,0.2-6,0.7l0,0.6l0.1,4.6l0,0.8c-0.1,0.7-0.1,1.9-0.1,3.4c0,5.5,0.1,9,0.2,10.3v2.3l0.5,18.6c0,0.3,0,0.8-0.1,1.5c-0.1,0.7-0.1,1.4-0.1,1.9c0,1.3,0.1,2.3,0.3,3c0.7,0.2,2.5,0.6,5.7,1.3c1.5,0.4,2.3,0.6,2.4,0.6c0.2,0.1,0.4,0.3,0.6,0.5c-0.1,0.4-0.3,0.7-0.4,0.8c-0.2,0.1-0.5,0.2-1,0.2c-0.3,0-1.1-0.1-2.3-0.2C19.8,68.1,18,68,16.7,68l-7.2,0.3l-4.3-0.1c-0.3,0-1.1,0-2.4,0.1l0-1.1l5.3-1c0.9-0.2,1.4-0.5,1.6-0.7c0.3-0.4,0.4-1.1,0.4-2.2c0-0.2,0-0.8,0-1.6c0-0.6,0-1.4,0-2.4c0-3.2-0.1-10-0.4-20.4C9.7,33.9,9.6,29,9.6,24v-0.7c0-1.9-0.3-3.2-0.9-3.7c-1-0.9-3.5-1.6-7.5-2.2C1.1,17.1,1,16.8,1,16.6C1,16.4,1.1,16.2,1.3,15.9"/>
<path d="M49.4,45.4l0-1.3c1.9-0.6,2.9-0.9,3.1-1c1-0.5,2.1-1.2,3.3-2.1c1.1-1,2.1-2,2.9-3.2c0.4-0.1,0.6-0.1,0.8-0.1l0.5,0c0.1,1.4,0.2,2.4,0.2,3.1c0,0.1,0,0.8-0.1,2v2.3l0,12.6L60,70.9c0,1.1,0.1,1.8,0.5,2.2c0.4,0.4,1.5,0.9,3.4,1.4c1.2,0.3,2,0.6,2.6,0.8c0.1,0.2,0.1,0.4,0.1,0.5c0,0.2-0.1,0.4-0.2,0.7c-1.1,0-2.6-0.1-4.4-0.2c-2.4-0.2-4-0.3-4.8-0.3c-0.4,0-2.7,0.1-7,0.2c-0.9,0-1.7,0.1-2.5,0.2c-0.1,0-0.4,0-0.7-0.1c-0.1-0.2-0.2-0.4-0.2-0.5c0-0.4,0.3-0.7,0.8-1c0.1-0.1,1.6-0.4,4.4-1c0.9-0.2,1.5-0.5,1.8-0.9c0.5-0.6,0.7-1.6,0.7-2.9c0.1-2.2,0.1-8.4,0.1-18.4c0-2-0.1-3.3-0.3-3.7c-0.1-0.3-0.5-0.7-1.2-1.2C52.8,46.3,51.4,45.9,49.4,45.4 M53.1,22.8c0-1,0.4-1.8,1.1-2.5c0.7-0.7,1.6-1,2.7-1c1.1,0,2,0.4,2.8,1.2c0.8,0.8,1.2,1.6,1.2,2.5c0,0.9-0.6,3.6-1.4,4.4c-0.8,0.8-1.6-0.6-2.7-0.6c-1.1,0-2-0.4-2.7-1.1C53.4,24.9,53.1,23.9,53.1,22.8"/>
<path d="M66.3,36.2c-0.1-0.4-0.1-0.7-0.1-1l0-0.6c0.5-0.1,1-0.2,1.5-0.3l1.6-0.1c2.5,0,4.1-0.1,4.7-0.1c2-0.1,4-0.2,6.1-0.4c1.3-0.1,2.1-0.1,2.4-0.2l1-0.1c0.2,0.4,0.3,0.7,0.4,0.9c0,0.1,0,0.4-0.1,0.6L83,35.2c-2.1,0.3-3.4,0.7-3.9,1c-0.2,0.2-0.3,0.4-0.3,0.6c0,0.5,0.4,1.1,1.2,2c3.6,4.2,6.1,7,7.3,8.2c2.6-3.8,4.1-6.2,4.6-7.3c0.5-1.1,0.7-1.9,0.7-2.5c0-0.7-0.3-1.2-0.9-1.6c-0.5-0.4-1.8-0.7-3.9-0.9c-0.3-0.3-0.4-0.6-0.4-0.9l0.1-0.4l1.1-0.1c0.3,0,0.8,0,1.5,0c1.3,0,2.5,0,3.8-0.1c0.6,0,1.7-0.1,3.3-0.2c1.6-0.1,2.8-0.2,3.6-0.3l2-0.1c0.4,0.2,0.6,0.4,0.6,0.7c0,0.1,0,0.3-0.1,0.6c-0.5,0.1-1,0.3-1.7,0.4c-1.6,0.3-3.1,1-4.5,2C96,36.9,95,38,94,39.6l-5.7,8.7l6.7,7.6c3.1,3.8,5,6,5.7,6.6c0.7,0.7,1.4,1.2,2.2,1.6c0.8,0.4,1.9,0.7,3.4,1c0,0.3,0.1,0.7,0.1,0.9c0,0.2,0,0.5-0.1,0.8c-0.5,0-3.2,0.1-8,0.2c-0.3,0-1.7,0.1-4.2,0.3c-0.8,0.1-1.5,0.1-2.3,0.2c-0.7,0-1.5,0.1-2.5,0l0.1-1.3c0.4-0.1,0.9-0.2,1.4-0.4c1.5-0.4,2.5-0.8,3.1-1.3c0.4-0.3,0.5-0.7,0.5-1.1c0-0.6-2.1-3.2-6.3-7.7l-2.7-2.9c-1.2,1.3-2.4,3.1-3.8,5.4c-0.8,1.4-1.4,2.4-1.9,3c-0.9,1.2-1.4,2.2-1.3,3c0,0.3,0.2,0.5,0.6,0.8s1.4,0.5,3.1,0.8c1.1,0.2,2,0.3,2.4,0.4c0.1,0.4,0.2,0.7,0.2,0.9c0,0.2,0,0.5,0,0.9c-2.2,0-4.4,0.1-6.5,0.2c-2.7,0.1-4.6,0.3-5.8,0.4c-1.2,0.1-1.9,0.2-2.2,0.2c-0.3,0-0.9,0-1.7,0c-0.1-0.4-0.2-0.7-0.2-0.9l0.1-0.6c0.4-0.2,0.9-0.4,1.5-0.5c1.9-0.3,3.6-1.1,5.1-2.4c1.4-1.3,4.6-5.7,9.4-13L71.4,37.6c-0.2-0.2-0.4-0.3-0.7-0.5c-0.5-0.2-1.1-0.4-1.9-0.5C67.6,36.4,66.8,36.3,66.3,36.2"/>
<path d="M138.7,48.7l-17.5,0.1l-3.3,0c-1.3,0-2.7,0.1-4.1,0.2c-0.3,0.9-0.4,1.5-0.4,1.8l0,0.4v0.4l0,2.1c0,1.8,0.6,3.9,1.7,6.5c1.1,2.6,2.7,4.5,4.8,5.9c2.1,1.4,4.7,2.1,7.8,2.2c1.7-0.1,3-0.3,4-0.6c1-0.3,2.4-1.1,4.2-2.2l3.1-2.6l0.3,1.7c0,0.2,0,0.4,0,0.7c-1.3,1.7-3,3.1-5,4.4c-2,1.3-4,2.2-6.1,2.7c-1,0.3-2.6,0.4-4.9,0.4c-2.1,0-4.1-0.4-6.1-1.3c-3-1.3-5.3-3.3-7-6.2c-1.7-2.8-2.6-6.3-2.6-10.3c0-1.3,0.2-2.9,0.7-4.9c0.5-2,1.3-4.1,2.6-6.4c0.8-1.5,1.9-2.8,3.1-3.8c1.7-1.4,3.3-2.4,4.6-2.9c1.9-0.8,4.1-1.2,6.6-1.2c2.7,0,4.9,0.5,6.6,1.5c2.3,1.3,4.1,3,5.2,5.1c1.1,2.1,1.7,4,1.7,5.7V48.7M114.3,47.2h2.1c1.5,0,5.9-0.2,13.3-0.7c1.2-0.1,1.9-0.2,2.1-0.3c0.5-0.6,0.8-1,0.8-1.5c0-0.9-0.3-1.9-0.9-3.1c-0.6-1.1-1.5-2-2.7-2.7c-1.2-0.6-2.6-0.9-4.2-0.9c-3.4,0-6.1,1.3-8.1,3.8C115.1,43.7,114.3,45.5,114.3,47.2"/>
<path d="M141.8,17.7v-1c0.8-0.3,1.7-0.5,2.7-0.8c1.5-0.5,3.6-1.2,6.5-2.1h2.1c0,1.4,0,2.2,0,2.4c0,23.9-0.1,38.1-0.2,42.7c-0.1,2.7-0.1,4.1-0.1,4.3c0,3.3,0.1,5.1,0.4,5.5c0.3,0.5,1.4,0.9,3.2,1.1c1.8,0.2,2.8,0.4,3.2,0.6c0.2,0.1,0.3,0.3,0.3,0.6c0,0.3-0.1,0.5-0.2,0.7c-0.1,0.1-0.4,0.2-0.7,0.2c-0.2,0-1.7,0-4.6-0.1l-5.7-0.2l-7.3,0.3c-0.5,0-0.8-0.1-1-0.3c-0.2-0.1-0.3-0.4-0.3-0.6c0-0.3,0.1-0.5,0.3-0.6c0.2-0.1,1.2-0.4,3.1-0.7c1.9-0.3,3-0.6,3.3-0.8c0.3-0.2,0.5-0.7,0.5-1.5c0.1-1,0.2-4,0.2-8.9l0-10l0.1-10.4l0-10.4l0.1-5.1c0-1-0.2-1.8-0.5-2.2c-0.3-0.5-1-0.9-2-1.3C143.5,18.5,142.4,18,141.8,17.7"/>
<path d="M219.8,25.9l0.4,6.1c0.2,1.9,0.2,3.1,0.2,3.8l-1.1,0.2c-1.8-4.1-4-7.1-6.7-9.2c-2.7-2-5.9-3.1-9.8-3.1c-4.7,0-8.4,0.6-11,1.7c-3.8,1.6-7.1,4.5-9.8,8.5c-2.7,4.1-4.1,8.9-4.1,14.6c0,3.3,0.5,6.3,1.5,8.9c1,2.6,2.4,5.1,4.2,7.3c1.8,2.3,4,4.2,6.4,5.9c1.6,1.1,3.5,1.9,5.8,2.5c1.3,0.3,3.1,0.4,5.6,0.4c1.6,0,3.4-0.2,5.4-0.7c2-0.5,3.4-1.1,4.4-1.8c1-0.8,1.7-1.6,2-2.6c0.4-1,0.5-2.8,0.5-5.6c0-4.6-0.3-7.3-0.9-8.1c-0.6-0.8-2.6-1.3-5.8-1.5l-1.6-0.1l-1.1,0c-0.2,0-0.4-0.1-0.6-0.1l-0.6-1c0-0.1,0.1-0.3,0.3-0.5c1.4-0.2,4.4-0.3,9.1-0.3c1,0,2.7,0,5.1,0.1l4.1,0.2l3.7,0c0.7,0,1.6,0,2.6,0.1c0.2,0,0.3,0.1,0.4,0.1c0.1,0.1,0.1,0.2,0.1,0.3c0,0.3-0.1,0.7-0.2,1.1c-1.1,0.2-2,0.4-2.6,0.4l-2.6,0c-0.9,0-1.6,0.3-2.1,0.9c-0.3,0.3-0.4,1.3-0.4,3l0,5.3c0,3.6-0.1,5.9-0.4,6.9c-0.2,0.6-0.5,1.1-1,1.6c-0.5,0.5-1.6,1-3.2,1.7c-2.3,0.9-4.5,1.6-6.4,1.9c-3.5,0.6-7,0.9-10.3,0.9c-5.3,0-9.7-0.7-13.1-2c-3.4-1.4-6.3-3.2-8.8-5.7c-2.5-2.4-4.2-4.9-5.2-7.3c-1.6-3.6-2.4-7.3-2.4-11.1c0-4.7,1.2-9.3,3.7-13.8c2.5-4.5,6.5-8.1,12-11c3.9-2,9.2-3,15.8-3c4.6,0,8.4,0.4,11.3,1.2C215.8,23.9,218.1,24.8,219.8,25.9"/>
<path d="M230.1,65.1l-0.1-0.6c0-0.2,0.2-0.5,0.5-0.9l2.6-0.3l3.7-0.3c0.3-0.1,0.5-0.3,0.7-0.6c0.2-0.4,0.4-1.5,0.6-3.3c0.9-9.8,1.3-15.5,1.3-17c0-1.5-0.2-2.5-0.5-3c-0.4-0.4-1.4-0.8-3-1.2c-1-0.2-1.7-0.5-2.3-0.8l0.3-1.3c3.2-1,5.3-1.9,6.4-2.7c1.6-1.2,2.9-2.8,4.1-4.8l1.5,0.2c0,1.5-0.1,4.7-0.6,9.7l-0.1,0.7c0,0.2,0,0.5,0,0.8c1.3-1.9,2.8-3.6,4.6-5.2l1.1-0.9c0.4-0.4,0.9-0.8,1.3-1c2.1-1,3.7-1.5,4.7-1.4c1.3,0.1,2.3,0.6,3,1.6c0.7,0.9,1,2,0.9,3.3c-0.1,1-0.4,1.7-1.1,2.2c-0.8,0.7-1.8,0.9-2.8,0.8c-0.5,0-1.4-0.4-2.7-1c-1.3-0.6-2.2-0.9-2.6-1c-0.8-0.1-1.4,0-1.7,0.2c-0.9,0.6-2,1.8-3.3,3.7c-1,1.4-1.6,2.7-1.7,4l-0.4,7.2l-0.7,8.6c0,1,0.1,1.6,0.2,1.9c0.1,0.2,0.4,0.5,0.8,0.8c3.1,0.5,4.9,0.9,5.5,1.1c0.4,0.1,0.7,0.1,0.9,0.2c1.2,0.1,2.1,0.4,2.6,0.8c0.2,0.2,0.4,0.4,0.3,0.7c0,0.2-0.2,0.4-0.4,0.7C245.7,66,238,65.6,230.1,65.1"/>
<path d="M264,28.5l0-1.3c1.9-0.6,2.9-0.9,3.1-1c1-0.5,2.1-1.2,3.3-2.1c1.2-1,2.1-2,2.9-3.2c0.3-0.1,0.6-0.1,0.8-0.1l0.5,0c0.1,1.4,0.2,2.4,0.2,3.1c0,0.1,0,0.8-0.1,2v2.3l0,12.6L274.6,54c0,1.1,0.1,1.8,0.5,2.2s1.5,0.9,3.4,1.4c1.2,0.3,2,0.6,2.6,0.8c0.1,0.2,0.1,0.4,0.1,0.5c0,0.2-0.1,0.4-0.2,0.7c-1.1,0-2.6-0.1-4.4-0.2c-2.4-0.2-4-0.3-4.8-0.3c-0.4,0-2.7,0.1-7,0.2c-0.9,0-1.7,0.1-2.5,0.2c-0.1,0-0.4,0-0.7-0.1c-0.1-0.2-0.2-0.4-0.2-0.5c0-0.4,0.3-0.7,0.8-1c0.1-0.1,1.6-0.4,4.4-1c0.9-0.2,1.5-0.5,1.8-0.9c0.5-0.6,0.7-1.6,0.7-2.9c0.1-2.2,0.1-8.4,0.1-18.4c0-2-0.1-3.3-0.3-3.7c-0.1-0.3-0.5-0.7-1.2-1.2C267.4,29.4,266,28.9,264,28.5 M267.7,5.8c0-1,0.4-1.8,1.1-2.5c0.7-0.7,1.6-1,2.7-1c1.1,0,2,0.4,2.8,1.2c0.8,0.8,1.2,1.6,1.2,2.5c0,0.9,0,4.7-0.8,5.5c-0.8,0.8-2.2-1.7-3.3-1.7s-2-0.4-2.7-1.1C268,7.9,267.7,7,267.7,5.8"/>
<path d="M313.2,42.1l0-1.2l0-4.9l0-9.4c0-2.6-0.3-4.2-0.8-5c-0.6-0.7-2.2-1.4-5-2.2c-0.2-0.1-0.5-0.1-0.9-0.3v-0.5c0-0.3,0-0.6,0.1-0.9c3.8-0.4,7.1-1.1,9.9-2l2.2,0c0.1,1.9,0.2,4.1,0.2,6.4l-0.2,16.3l0.3,18.4l-0.1,9.8c0,2,0.1,3.1,0.4,3.4c0.6,0.6,1.8,0.9,3.7,0.9c0.4,0,0.9,0,1.6,0.1v0.8c0,0.2,0,0.4,0,0.6c-0.9,0.2-1.8,0.4-2.7,0.5l-6.1,1.2c-0.9,0.2-1.6,0.3-2.2,0.3v-4.1c-0.5,0.1-1.2,0.4-2.2,0.8c-4.4,1.9-8.5,2.8-12.1,2.8c-2.2,0-4.5-0.7-6.8-2.2c-2.3-1.5-4.1-3.5-5.3-6.1c-1.2-2.6-1.9-5.2-1.9-8c0-2.4,0.4-4.7,1.2-7c0.8-2.2,1.9-4.1,3.2-5.5c0.8-1,2-1.9,3.6-2.9s2.8-1.5,3.9-1.8c2.5-0.6,4.2-1,5-1c3.8,0,6.9,0.6,9.4,1.7C312.2,41.7,312.8,41.9,313.2,42.1 M313.2,68.2c0.1-1.9,0.2-5.8,0.2-11.7c0-5-0.2-8.1-0.7-9.5s-1.6-2.6-3.5-3.7c-1.9-1.2-3.9-1.8-6.2-1.8c-3.2,0-6,1.3-8.2,3.8c-2.2,2.5-3.4,6.2-3.4,11.1c0,4.3,1.2,7.8,3.6,10.3c2.4,2.6,5.5,3.9,9.1,3.9c2.1,0,4-0.3,5.7-0.8C311.5,69.3,312.7,68.7,313.2,68.2"/>
<path d="M339,70.8c0,2.2-2.2,5.6-4.4,5.6S331,73,331,70.8s1.8-4,4-4C337.2,66.9,339,68.6,339,70.8"/>
</svg>